<?xml version="1.0" encoding="UTF-8"?> <svg xmlns="http://www.w3.org/2000/svg" id="Layer_1" data-name="Layer 1" viewBox="0 0 123.22 61.93"><defs><style>.cls-1{fill:#707070;}.cls-2{fill:#4c4c4c;}</style></defs><title>cid-logo-zw</title><path d="M65.48,1.82a2,2,0,0,0-1.63.69,2.78,2.78,0,0,0-.59,1.87,2.85,2.85,0,0,0,.57,1.9,2.05,2.05,0,0,0,1.64.66A5.47,5.47,0,0,0,67,6.71v.64a4.65,4.65,0,0,1-1.6.24,2.71,2.71,0,0,1-2.13-.84,3.45,3.45,0,0,1-.75-2.38,3.79,3.79,0,0,1,.36-1.69,2.68,2.68,0,0,1,1-1.12,3.2,3.2,0,0,1,1.61-.39,3.84,3.84,0,0,1,1.71.36l-.3.62A3.38,3.38,0,0,0,65.48,1.82Z"></path><path d="M72.25,5.16A2.62,2.62,0,0,1,71.68,7a2,2,0,0,1-1.6.64A2.16,2.16,0,0,1,69,7.3a2,2,0,0,1-.75-.85A2.92,2.92,0,0,1,68,5.16a2.53,2.53,0,0,1,.58-1.78,2.25,2.25,0,0,1,3.15,0A2.61,2.61,0,0,1,72.25,5.16Zm-3.56,0a2.24,2.24,0,0,0,.36,1.37,1.42,1.42,0,0,0,2.11,0,2.22,2.22,0,0,0,.36-1.37,2.18,2.18,0,0,0-.36-1.36,1.27,1.27,0,0,0-1.07-.46,1.24,1.24,0,0,0-1,.46A2.23,2.23,0,0,0,68.69,5.16Z"></path><path d="M76.7,7.5v-3a1.26,1.26,0,0,0-.26-.86,1.06,1.06,0,0,0-.82-.28,1.32,1.32,0,0,0-1.07.4,2,2,0,0,0-.34,1.31V7.5H73.5V2.82h.57l.12.64h0a1.5,1.5,0,0,1,.61-.53,2,2,0,0,1,.88-.19A1.73,1.73,0,0,1,77,3.15a1.7,1.7,0,0,1,.43,1.3V7.5Z"></path><path d="M81.88,6.23a1.16,1.16,0,0,1-.48,1A2.28,2.28,0,0,1,80,7.59a3.05,3.05,0,0,1-1.45-.29V6.64a4.12,4.12,0,0,0,.72.27,3.33,3.33,0,0,0,.75.09,1.66,1.66,0,0,0,.85-.17.61.61,0,0,0,.06-1A3.6,3.6,0,0,0,80,5.36a4.76,4.76,0,0,1-.93-.42,1.36,1.36,0,0,1-.41-.42A1,1,0,0,1,78.57,4a1,1,0,0,1,.46-.9,2.19,2.19,0,0,1,1.28-.33,3.67,3.67,0,0,1,1.48.31l-.26.57a3.44,3.44,0,0,0-1.27-.29,1.51,1.51,0,0,0-.76.16.5.5,0,0,0-.26.44.51.51,0,0,0,.1.32.93.93,0,0,0,.31.25,6.42,6.42,0,0,0,.82.34,3.23,3.23,0,0,1,1.12.61A1.08,1.08,0,0,1,81.88,6.23Z"></path><path d="M87.08,5.16A2.57,2.57,0,0,1,86.5,7a2,2,0,0,1-1.59.64,2.2,2.2,0,0,1-1.12-.29A2,2,0,0,1,83,6.45a2.92,2.92,0,0,1-.26-1.29,2.57,2.57,0,0,1,.57-1.78,2.25,2.25,0,0,1,3.15,0A2.62,2.62,0,0,1,87.08,5.16Zm-3.57,0a2.24,2.24,0,0,0,.36,1.37,1.42,1.42,0,0,0,2.11,0,2.22,2.22,0,0,0,.36-1.37A2.18,2.18,0,0,0,86,3.8a1.25,1.25,0,0,0-1.06-.46,1.22,1.22,0,0,0-1,.46A2.16,2.16,0,0,0,83.51,5.16Z"></path><path d="M90.46,2.74a3.24,3.24,0,0,1,.56,0l-.1.66a2.13,2.13,0,0,0-.52-.07,1.28,1.28,0,0,0-1,.46A1.68,1.68,0,0,0,89,5V7.5h-.71V2.82h.59l.08.87h0a2,2,0,0,1,.63-.7A1.36,1.36,0,0,1,90.46,2.74Z"></path><path d="M93.4,7a2.23,2.23,0,0,0,.37,0L94,6.92v.54a1,1,0,0,1-.34.09,2,2,0,0,1-.4,0c-.9,0-1.36-.48-1.36-1.43V3.37h-.67V3l.67-.29.3-1h.41V2.82H94v.55H92.65V6.13a1,1,0,0,0,.2.65A.71.71,0,0,0,93.4,7Z"></path><path d="M94.92,1.56A.46.46,0,0,1,95,1.2a.4.4,0,0,1,.3-.11.39.39,0,0,1,.29.11.49.49,0,0,1,.13.36.47.47,0,0,1-.13.35.4.4,0,0,1-.29.12.41.41,0,0,1-.3-.12A.46.46,0,0,1,94.92,1.56Zm.77,5.94H95V2.82h.71Z"></path><path d="M97.86,2.82v3a1.17,1.17,0,0,0,.26.85,1,1,0,0,0,.81.29A1.37,1.37,0,0,0,100,6.6a2.09,2.09,0,0,0,.34-1.32V2.82h.71V7.5h-.59l-.1-.62h0a1.54,1.54,0,0,1-.6.53,2.11,2.11,0,0,1-.89.18,1.8,1.8,0,0,1-1.28-.41,1.73,1.73,0,0,1-.42-1.29V2.82Z"></path><path d="M108.52,7.5v-3a1.33,1.33,0,0,0-.23-.84.92.92,0,0,0-.75-.28,1.22,1.22,0,0,0-1,.38,1.8,1.8,0,0,0-.31,1.17V7.5h-.71v-3a1.28,1.28,0,0,0-.24-.84.92.92,0,0,0-.75-.28,1.13,1.13,0,0,0-1,.4,2.14,2.14,0,0,0-.31,1.31V7.5h-.71V2.82h.58l.11.64h0a1.53,1.53,0,0,1,.57-.53,1.71,1.71,0,0,1,.82-.19,1.38,1.38,0,0,1,1.43.79h0a1.52,1.52,0,0,1,.6-.58,1.94,1.94,0,0,1,.91-.21,1.55,1.55,0,0,1,1.19.41,1.82,1.82,0,0,1,.39,1.3V7.5Z"></path><path d="M117,5.16A2.62,2.62,0,0,1,116.43,7a2,2,0,0,1-1.59.64,2.2,2.2,0,0,1-1.12-.29,2,2,0,0,1-.75-.85,2.92,2.92,0,0,1-.26-1.29,2.57,2.57,0,0,1,.57-1.78,2.25,2.25,0,0,1,3.15,0A2.62,2.62,0,0,1,117,5.16Zm-3.57,0a2.24,2.24,0,0,0,.36,1.37,1.42,1.42,0,0,0,2.11,0,2.22,2.22,0,0,0,.36-1.37,2.18,2.18,0,0,0-.36-1.36,1.45,1.45,0,0,0-2.12,0A2.23,2.23,0,0,0,113.44,5.16Z"></path><path d="M121.45,7.5v-3a1.26,1.26,0,0,0-.26-.86,1.06,1.06,0,0,0-.82-.28,1.33,1.33,0,0,0-1.07.4A2,2,0,0,0,119,5.05V7.5h-.71V2.82h.57l.12.64h0a1.5,1.5,0,0,1,.61-.53,2,2,0,0,1,.88-.19,1.73,1.73,0,0,1,1.27.41,1.7,1.7,0,0,1,.43,1.3V7.5Z"></path><path d="M84,18V11.76h.72V18Z"></path><path d="M89.48,18V15a1.23,1.23,0,0,0-.26-.85,1.06,1.06,0,0,0-.82-.28,1.36,1.36,0,0,0-1.07.39A2,2,0,0,0,87,15.54V18h-.71V13.32h.57L87,14h0a1.52,1.52,0,0,1,.61-.54,2.14,2.14,0,0,1,.88-.19,1.78,1.78,0,0,1,1.27.41A1.72,1.72,0,0,1,90.19,15V18Z"></path><path d="M94.83,17.37h0a1.64,1.64,0,0,1-1.47.71,1.71,1.71,0,0,1-1.42-.62,2.79,2.79,0,0,1-.51-1.79,2.83,2.83,0,0,1,.51-1.8,1.74,1.74,0,0,1,1.42-.64,1.7,1.7,0,0,1,1.47.7h0l0-.34,0-.33v-1.9h.71V18h-.57Zm-1.42.12a1.31,1.31,0,0,0,1.06-.39,2,2,0,0,0,.32-1.28v-.15a2.37,2.37,0,0,0-.33-1.42,1.25,1.25,0,0,0-1-.42,1.09,1.09,0,0,0-1,.48,2.43,2.43,0,0,0-.33,1.37A2.28,2.28,0,0,0,92.45,17,1.1,1.1,0,0,0,93.41,17.49Z"></path><path d="M97,12.05a.49.49,0,0,1,.12-.36.44.44,0,0,1,.29-.11.41.41,0,0,1,.3.12.45.45,0,0,1,.12.35.49.49,0,0,1-.12.36.4.4,0,0,1-.3.11.39.39,0,0,1-.29-.11A.49.49,0,0,1,97,12.05ZM97.72,18H97V13.32h.71Z"></path><path d="M100.24,18l-1.77-4.68h.76l1,2.78a13.06,13.06,0,0,1,.41,1.26h0a9.11,9.11,0,0,1,.3-.94c.16-.47.54-1.51,1.12-3.1h.76L101.07,18Z"></path><path d="M103.54,12.05a.49.49,0,0,1,.12-.36.44.44,0,0,1,.3-.11.4.4,0,0,1,.29.12.42.42,0,0,1,.13.35.45.45,0,0,1-.13.36.39.39,0,0,1-.29.11.4.4,0,0,1-.3-.11A.49.49,0,0,1,103.54,12.05Zm.77,5.95h-.71V13.32h.71Z"></path><path d="M109,17.37h0a1.66,1.66,0,0,1-1.47.71,1.73,1.73,0,0,1-1.43-.62,2.79,2.79,0,0,1-.51-1.79,2.83,2.83,0,0,1,.51-1.8,1.76,1.76,0,0,1,1.43-.64,1.69,1.69,0,0,1,1.46.7H109l0-.34,0-.33v-1.9h.71V18h-.58Zm-1.42.12a1.3,1.3,0,0,0,1-.39,2,2,0,0,0,.33-1.28v-.15a2.37,2.37,0,0,0-.33-1.42,1.26,1.26,0,0,0-1.06-.42,1.09,1.09,0,0,0-.95.48,2.43,2.43,0,0,0-.33,1.37,2.36,2.36,0,0,0,.32,1.35A1.12,1.12,0,0,0,107.58,17.49Z"></path><path d="M111.84,13.32v3a1.23,1.23,0,0,0,.26.85,1,1,0,0,0,.81.28,1.34,1.34,0,0,0,1.08-.4,2.06,2.06,0,0,0,.34-1.31V13.32H115V18h-.59l-.1-.63h0a1.4,1.4,0,0,1-.6.53,2.11,2.11,0,0,1-.89.18,1.78,1.78,0,0,1-1.27-.4,1.7,1.7,0,0,1-.43-1.3V13.32Z"></path><path d="M119.42,18l-.14-.67h0a1.89,1.89,0,0,1-.7.6,2.17,2.17,0,0,1-.86.15,1.58,1.58,0,0,1-1.1-.35,1.32,1.32,0,0,1-.39-1c0-1,.75-1.44,2.27-1.49l.79,0V14.9a1.19,1.19,0,0,0-.24-.81.94.94,0,0,0-.75-.26,3.09,3.09,0,0,0-1.33.36l-.22-.55a3.63,3.63,0,0,1,.76-.29,3.38,3.38,0,0,1,.83-.11,1.82,1.82,0,0,1,1.24.37,1.57,1.57,0,0,1,.4,1.2V18Zm-1.6-.5a1.46,1.46,0,0,0,1-.36,1.35,1.35,0,0,0,.37-1V15.7l-.71,0a2.62,2.62,0,0,0-1.21.26.8.8,0,0,0-.38.72.75.75,0,0,0,.23.59A1,1,0,0,0,117.82,17.5Z"></path><path d="M122.11,18h-.71V11.36h.71Z"></path><path d="M73.78,25.31a3.17,3.17,0,0,1-.84,2.37,3.33,3.33,0,0,1-2.41.81H68.8V22.25h1.91a2.8,2.8,0,0,1,3.07,3.06Zm-.77,0a2.49,2.49,0,0,0-.61-1.84,2.46,2.46,0,0,0-1.82-.62h-1v5h.88a2.71,2.71,0,0,0,2-.64A2.52,2.52,0,0,0,73,25.34Z"></path><path d="M77.05,28.58A2.15,2.15,0,0,1,75.41,28a2.45,2.45,0,0,1-.6-1.76,2.65,2.65,0,0,1,.56-1.79,1.83,1.83,0,0,1,1.49-.67,1.74,1.74,0,0,1,1.39.58,2.16,2.16,0,0,1,.52,1.52v.45H75.54A1.89,1.89,0,0,0,76,27.53a1.41,1.41,0,0,0,1.11.43,3.8,3.8,0,0,0,1.5-.31v.63a3.52,3.52,0,0,1-1.52.3Zm-.2-4.26a1.16,1.16,0,0,0-.9.37,1.69,1.69,0,0,0-.39,1H78a1.56,1.56,0,0,0-.3-1A1.06,1.06,0,0,0,76.85,24.32Z"></path><path d="M81,28.49l-1.78-4.68H80l1,2.78a12.81,12.81,0,0,1,.4,1.26h0c0-.15.13-.46.29-.93s.55-1.51,1.13-3.11h.76l-1.78,4.68Z"></path><path d="M86.33,28.58A2.14,2.14,0,0,1,84.7,28a2.45,2.45,0,0,1-.6-1.76,2.7,2.7,0,0,1,.55-1.79,1.84,1.84,0,0,1,1.5-.67,1.74,1.74,0,0,1,1.39.58,2.21,2.21,0,0,1,.52,1.52v.45H84.83a1.84,1.84,0,0,0,.42,1.25,1.41,1.41,0,0,0,1.11.43,3.76,3.76,0,0,0,1.49-.31v.63a3.65,3.65,0,0,1-.71.23A3.75,3.75,0,0,1,86.33,28.58Zm-.19-4.26a1.16,1.16,0,0,0-.9.37,1.69,1.69,0,0,0-.39,1h2.44a1.62,1.62,0,0,0-.29-1A1.06,1.06,0,0,0,86.14,24.32Z"></path><path d="M90,28.49h-.71V21.85H90Z"></path><path d="M95.52,26.15a2.62,2.62,0,0,1-.58,1.79,2,2,0,0,1-1.59.64,2.2,2.2,0,0,1-1.12-.29,2,2,0,0,1-.75-.85,2.92,2.92,0,0,1-.26-1.29,2.57,2.57,0,0,1,.57-1.78,2.25,2.25,0,0,1,3.15,0A2.62,2.62,0,0,1,95.52,26.15Zm-3.57,0a2.24,2.24,0,0,0,.36,1.37,1.42,1.42,0,0,0,2.11,0,2.22,2.22,0,0,0,.36-1.37,2.2,2.2,0,0,0-.36-1.36,1.27,1.27,0,0,0-1.07-.46,1.24,1.24,0,0,0-1,.46A2.23,2.23,0,0,0,92,26.15Z"></path><path d="M98.94,28.58a2.07,2.07,0,0,1-.84-.17,1.5,1.5,0,0,1-.63-.52h0a7.43,7.43,0,0,1,0,.78V30.6h-.71V23.81h.58l.09.64h0a1.63,1.63,0,0,1,.63-.55,2,2,0,0,1,.84-.17,1.71,1.71,0,0,1,1.43.63,2.8,2.8,0,0,1,.51,1.79,2.79,2.79,0,0,1-.51,1.79A1.73,1.73,0,0,1,98.94,28.58Zm-.11-4.25a1.23,1.23,0,0,0-1,.4A1.94,1.94,0,0,0,97.47,26v.16a2.32,2.32,0,0,0,.33,1.41,1.23,1.23,0,0,0,1,.43,1.11,1.11,0,0,0,1-.49,2.34,2.34,0,0,0,.35-1.36,2.23,2.23,0,0,0-.35-1.34A1.14,1.14,0,0,0,98.83,24.33Z"></path><path d="M108.08,28.49v-3a1.33,1.33,0,0,0-.23-.84.92.92,0,0,0-.75-.28,1.22,1.22,0,0,0-1,.38,1.8,1.8,0,0,0-.31,1.17v2.61h-.71v-3a1.28,1.28,0,0,0-.24-.84.92.92,0,0,0-.75-.28,1.13,1.13,0,0,0-1,.4,2.14,2.14,0,0,0-.31,1.31v2.45h-.71V23.81h.57l.12.64h0a1.53,1.53,0,0,1,.57-.53,1.71,1.71,0,0,1,.82-.19,1.38,1.38,0,0,1,1.43.79h0a1.52,1.52,0,0,1,.6-.58,1.94,1.94,0,0,1,.91-.21,1.55,1.55,0,0,1,1.19.41,1.82,1.82,0,0,1,.39,1.3v3Z"></path><path d="M112.23,28.58a2.16,2.16,0,0,1-1.64-.63,2.45,2.45,0,0,1-.6-1.76,2.7,2.7,0,0,1,.56-1.79,1.84,1.84,0,0,1,1.5-.67,1.75,1.75,0,0,1,1.39.58,2.2,2.2,0,0,1,.51,1.52v.45h-3.22a1.84,1.84,0,0,0,.41,1.25,1.45,1.45,0,0,0,1.12.43,3.76,3.76,0,0,0,1.49-.31v.63a3.88,3.88,0,0,1-.71.23A3.75,3.75,0,0,1,112.23,28.58ZM112,24.32a1.13,1.13,0,0,0-.9.37,1.63,1.63,0,0,0-.39,1h2.44a1.56,1.56,0,0,0-.3-1A1,1,0,0,0,112,24.32Z"></path><path d="M118.36,28.49v-3a1.21,1.21,0,0,0-.26-.86,1,1,0,0,0-.81-.28,1.34,1.34,0,0,0-1.08.4,2,2,0,0,0-.34,1.31v2.45h-.71V23.81h.58l.11.64h0a1.38,1.38,0,0,1,.61-.53,1.92,1.92,0,0,1,.87-.19,1.76,1.76,0,0,1,1.28.41,1.74,1.74,0,0,1,.42,1.3v3Z"></path><path d="M122,28a2.06,2.06,0,0,0,.36,0l.28-.06v.54a1.09,1.09,0,0,1-.34.09,2,2,0,0,1-.4,0c-.91,0-1.36-.48-1.36-1.43V24.36h-.67V24l.67-.29.3-1h.41v1.08h1.36v.55h-1.36v2.76a1,1,0,0,0,.2.65A.69.69,0,0,0,122,28Z"></path><path d="M29.64,51.47A20.72,20.72,0,1,1,44.77,16.6l6.31-6.31a29.64,29.64,0,1,0,0,40.92L44.77,44.9A20.66,20.66,0,0,1,29.64,51.47Z"></path><path class="cls-1" d="M46.09,43.9l6.31,6.3a20.7,20.7,0,0,1,28.3,0L87,43.9a29.6,29.6,0,0,0-40.92,0Z"></path><path class="cls-2" d="M122.87,51.38l-6.31-6.31a20.72,20.72,0,0,1-28.31,0L82,51.38a29.63,29.63,0,0,0,40.92,0Z"></path></svg> 