<?xml version="1.0" encoding="utf-8"?>
<!-- Generator: Adobe Illustrator 18.1.1, SVG Export Plug-In . SVG Version: 6.00 Build 0)  -->
<svg version="1.1" id="Layer_1" xmlns="http://www.w3.org/2000/svg" xmlns:xlink="http://www.w3.org/1999/xlink" x="0px" y="0px"
	 width="175.3px" height="80px" viewBox="0 0 175.3 80" enable-background="new 0 0 175.3 80" xml:space="preserve">
<g>
	<polygon fill="#134995" points="24.4,51.4 24.4,51.4 24.4,51.4 24.4,51.4 24.4,51.4 	"/>
	<polygon fill="#134995" points="23.9,28.6 23.9,28.6 23.9,28.6 23.9,28.6 23.9,28.6 	"/>
	<polygon fill="#134995" points="15.4,47.3 15.4,47.3 15.5,47.3 15.4,47.3 15.4,47.3 	"/>
	<polygon fill="#134995" points="15.1,33.1 15.1,33.1 15.1,33.1 15.1,33.1 15.1,33.1 	"/>
	<g>
		<defs>
			<rect id="SVGID_1_" x="0" y="16" width="134.9" height="48"/>
		</defs>
		<clipPath id="SVGID_2_">
			<use xlink:href="#SVGID_1_"  overflow="visible"/>
		</clipPath>
		<polygon clip-path="url(#SVGID_2_)" fill="#134995" points="32.9,32.7 32.9,32.7 32.9,32.7 32.9,32.7 32.9,32.7 		"/>
		<path clip-path="url(#SVGID_2_)" fill="#134995" d="M35.3,42.3c2.8,1.9,4.2,5.5,7,5.9c-2.8,1.3-5.9-1.3-9.1-1.3
			c1.7,2.9,1.4,6.8,3.8,8.4c-3.1-0.1-4.8-3.7-7.7-5.1c0.3,3.3-1.7,6.7-0.2,9.2c-2.8-1.4-2.7-5.4-4.7-7.9c-1.2,3.1-4.4,5.3-4.2,8.2
			c-1.9-2.5-0.1-6.1-0.8-9.2l0,0c-2.4,2.3-6.3,2.9-7.3,5.6c-0.6-3,2.6-5.5,3.3-8.6c-3.2,1-6.9-0.1-9,1.8c0.8-3,4.7-3.8,6.7-6.4
			c-3.3-0.5-6.1-3.1-8.9-2.2c2-2.4,5.9-1.4,8.8-2.8c-2.8-1.9-4.2-5.5-7.1-5.9c2.8-1.3,5.9,1.3,9.1,1.3c-1.7-2.9-1.4-6.7-3.8-8.4
			c3.1,0.1,4.8,3.7,7.7,5.1c-0.3-3.3,1.7-6.7,0.2-9.2c2.8,1.4,2.7,5.4,4.7,7.9c1.2-3.1,4.4-5.3,4.2-8.2c1.9,2.5,0.1,6.1,0.8,9.2
			c0,0,0,0,0,0c2.4-2.3,6.3-2.9,7.3-5.6c0.6,3-2.6,5.5-3.3,8.6c3.2-1,6.9,0.1,9-1.8c-0.8,3-4.7,3.8-6.7,6.3c3.3,0.5,6.1,3.1,8.9,2.2
			C42.1,41.8,38.2,40.9,35.3,42.3L35.3,42.3z M48.1,37.1l-8.6-0.6l7.5-4.3c0,0-0.7-2.4-2.5-5.2l-8,3.2l4.9-7.1c0,0-1.6-1.9-4.5-3.6
			L31,25.8l1.3-8.5c0,0-2.3-1-5.6-1.3l-2.5,8.3L21.6,16c0,0-2.5,0.1-5.6,1.3l1.3,8.5l-5.9-6.3c0,0-2.2,1.2-4.5,3.6l4.9,7.1l-8-3.2
			c0,0-1.5,2-2.5,5.2l7.5,4.3l-8.6,0.6c0,0-0.4,2.5,0,5.7l8.6,0.6l-7.5,4.3c0,0,0.7,2.4,2.5,5.2l8-3.2L7,56.9c0,0,1.6,1.9,4.5,3.6
			l5.9-6.4L16,62.7c0,0,2.3,1,5.6,1.3l2.5-8.3l2.5,8.3c0,0,2.5-0.1,5.6-1.3L31,54.2l5.9,6.3c0,0,2.2-1.2,4.5-3.6l-4.9-7.1l8,3.2
			c0,0,1.5-2,2.5-5.2l-7.5-4.3l8.6-0.6C48.1,42.9,48.6,40.4,48.1,37.1L48.1,37.1z"/>
	</g>
	<polygon fill="#134995" points="33.2,46.9 33.2,46.9 33.2,46.9 33.2,46.9 33.2,46.9 	"/>
	<path fill="#134995" d="M27.2,41.9c0,3-1.1,4.4-3.1,4.4c-2,0-3.1-1.4-3.1-4.4v-8.3h-3.8v8.1c0,5.2,2.6,7.7,6.9,7.7
		c4.3-0.1,6.9-2.6,6.9-7.7v-8.1h-3.8V41.9L27.2,41.9z"/>
	<path fill="#134995" d="M60,35.5v5.3c0,1.6,0.6,2.4,1.7,2.4c1.1,0,1.7-0.8,1.7-2.4v-5.3h2.1v5.2c0,2.9-1.4,4.2-3.9,4.2
		c-2.3,0-3.7-1.3-3.7-4.3v-5.2H60L60,35.5z"/>
	<path fill="#134995" d="M75.2,41.3c0-1.1-0.1-2.5-0.1-3.8h0c-0.3,1.2-0.7,2.5-1,3.6l-1.1,3.6h-1.6l-1-3.6c-0.3-1.1-0.6-2.4-0.8-3.6
		h0c0,1.3-0.1,2.7-0.2,3.9L69,44.8h-1.9l0.6-9.3h2.8l0.9,3.1c0.3,1.1,0.6,2.2,0.8,3.3h0.1c0.2-1.1,0.6-2.3,0.9-3.3l1-3.1h2.8
		l0.5,9.3h-2L75.2,41.3L75.2,41.3z"/>
	<path fill="#134995" d="M85.8,44.6c-0.4,0.2-1.3,0.4-2.4,0.4c-3.2,0-4.9-2-4.9-4.7c0-3.2,2.3-4.9,5.1-4.9c1.1,0,1.9,0.2,2.3,0.4
		l-0.4,1.7c-0.4-0.2-1-0.3-1.8-0.3c-1.7,0-3,1-3,3.1c0,1.8,1.1,3,3,3c0.6,0,1.3-0.1,1.8-0.3L85.8,44.6L85.8,44.6z"/>
	<path fill="#134995" d="M92.1,35.5v5.3c0,1.6,0.6,2.4,1.7,2.4c1.1,0,1.7-0.8,1.7-2.4v-5.3h2.1v5.2c0,2.9-1.4,4.2-3.9,4.2
		c-2.3,0-3.7-1.3-3.7-4.3v-5.2H92.1L92.1,35.5z"/>
	<path fill="#134995" d="M101.7,36.2v1.8h1.5v1.5h-1.5v2.4c0,0.8,0.2,1.2,0.8,1.2c0.3,0,0.4,0,0.6-0.1l0,1.6
		c-0.3,0.1-0.8,0.2-1.4,0.2c-0.7,0-1.2-0.2-1.6-0.6c-0.4-0.4-0.6-1-0.6-2v-2.8h-0.9v-1.5h0.9v-1.3L101.7,36.2L101.7,36.2z"/>
	<path fill="#134995" d="M104.4,40.3c0-1,0-1.6-0.1-2.2h1.8l0.1,1.3h0.1c0.3-1,1.2-1.4,1.8-1.4c0.2,0,0.3,0,0.4,0v2
		c-0.2,0-0.3-0.1-0.6-0.1c-0.8,0-1.3,0.4-1.4,1.1c0,0.1,0,0.3,0,0.5v3.4h-2.1V40.3L104.4,40.3z"/>
	<path fill="#134995" d="M113.6,40.7c0-0.5-0.2-1.4-1.2-1.4c-0.9,0-1.3,0.8-1.3,1.4H113.6L113.6,40.7z M111.1,42.1
		c0.1,0.9,0.9,1.3,1.9,1.3c0.7,0,1.3-0.1,1.9-0.3l0.3,1.4c-0.7,0.3-1.5,0.4-2.4,0.4c-2.3,0-3.6-1.3-3.6-3.4c0-1.7,1.1-3.6,3.4-3.6
		c2.2,0,3,1.7,3,3.4c0,0.4,0,0.7-0.1,0.8H111.1L111.1,42.1z"/>
	<path fill="#134995" d="M121.9,44.7c-0.4,0.2-1.1,0.3-1.9,0.3c-2.2,0-3.6-1.3-3.6-3.4c0-2,1.4-3.6,3.9-3.6c0.6,0,1.2,0.1,1.6,0.3
		l-0.3,1.6c-0.2-0.1-0.6-0.2-1.2-0.2c-1.1,0-1.8,0.8-1.8,1.9c0,1.2,0.8,1.9,1.8,1.9c0.5,0,0.9-0.1,1.2-0.2L121.9,44.7L121.9,44.7z"
		/>
	<path fill="#134995" d="M123,35h2.1v3.9h0c0.2-0.3,0.5-0.5,0.8-0.7c0.3-0.2,0.7-0.3,1.1-0.3c1.3,0,2.4,0.9,2.4,3v3.9h-2.1v-3.7
		c0-0.9-0.3-1.5-1.1-1.5c-0.6,0-0.9,0.4-1,0.7c-0.1,0.1-0.1,0.3-0.1,0.5v4H123V35L123,35z"/>
	<path fill="#134995" d="M133.4,36.2v1.8h1.5v1.5h-1.5v2.4c0,0.8,0.2,1.2,0.8,1.2c0.3,0,0.4,0,0.6-0.1l0,1.6
		c-0.3,0.1-0.8,0.2-1.4,0.2c-0.7,0-1.2-0.2-1.6-0.6c-0.4-0.4-0.6-1-0.6-2v-2.8h-0.9v-1.5h0.9v-1.3L133.4,36.2L133.4,36.2z"/>
</g>
</svg>
