<?xml version="1.0" encoding="utf-8"?>
<!-- Generator: Adobe Illustrator 18.1.1, SVG Export Plug-In . SVG Version: 6.00 Build 0)  -->
<svg version="1.1" id="Layer_1" xmlns="http://www.w3.org/2000/svg" xmlns:xlink="http://www.w3.org/1999/xlink" x="0px" y="0px"
	 width="223px" height="80px" viewBox="0 0 223 80" enable-background="new 0 0 223 80" xml:space="preserve">
<g>
	<polygon fill="#FFD500" points="21.2,18.2 21.7,17.7 22.4,17.6 23,18 26.8,18 27.4,17.6 28.2,17.7 28.6,18.2 32.3,19.2 33,18.8 
		33.7,19.1 34,19.8 37.4,21.6 38.1,21.4 38.8,21.9 38.9,22.6 41.8,25.1 42.5,25.2 43,25.8 43,26.5 45.1,29.6 45.8,29.8 46.2,30.5 
		46,31.2 47.3,34.8 48,35.2 48.1,35.9 47.8,36.6 48.2,40.4 48.7,40.9 48.7,41.6 48.2,42.2 47.8,46 48.1,46.6 48,47.3 47.3,47.7 
		46,51.3 46.2,52 45.8,52.7 45.1,52.9 43,56 43,56.8 42.5,57.3 41.8,57.4 38.9,59.9 38.8,60.6 38.1,61.1 37.4,60.9 34,62.7 
		33.7,63.4 33,63.7 32.3,63.4 28.6,64.3 28.2,64.9 27.4,64.9 26.8,64.5 23,64.5 22.4,64.9 21.7,64.9 21.2,64.3 17.5,63.4 16.8,63.7 
		16.1,63.4 15.8,62.7 12.4,60.9 11.7,61.1 11.1,60.6 11,59.9 8.1,57.4 7.4,57.3 6.8,56.8 6.9,56 4.7,52.9 4,52.7 3.7,52 3.9,51.3 
		2.5,47.7 1.9,47.3 1.7,46.6 2.1,46 1.6,42.2 1.1,41.6 1.1,40.9 1.6,40.4 2.1,36.6 1.7,35.9 1.9,35.2 2.5,34.8 3.9,31.2 3.7,30.5 
		4,29.8 4.7,29.6 6.9,26.5 6.8,25.8 7.4,25.2 8.1,25.1 10.9,22.6 11.1,21.9 11.7,21.4 12.4,21.6 15.8,19.8 16.1,19.1 16.8,18.8 
		17.5,19.2 21.2,18.2 	"/>
	<g>
		<defs>
			<polygon id="SVGID_3_" points="21.2,18.2 21.7,17.7 22.4,17.6 23,18 26.8,18 27.4,17.6 28.2,17.7 28.6,18.2 32.3,19.2 33,18.8 
				33.7,19.1 34,19.8 37.4,21.6 38.1,21.4 38.8,21.9 38.9,22.6 41.8,25.1 42.5,25.2 43,25.8 43,26.5 45.1,29.6 45.8,29.8 46.2,30.5 
				46,31.2 47.3,34.8 48,35.2 48.1,35.9 47.8,36.6 48.2,40.4 48.7,40.9 48.7,41.6 48.2,42.2 47.8,46 48.1,46.6 48,47.3 47.3,47.7 
				46,51.3 46.2,52 45.8,52.7 45.1,52.9 43,56 43,56.8 42.5,57.3 41.8,57.4 38.9,59.9 38.8,60.6 38.1,61.1 37.4,60.9 34,62.7 
				33.7,63.4 33,63.7 32.3,63.4 28.6,64.3 28.2,64.9 27.4,64.9 26.8,64.5 23,64.5 22.4,64.9 21.7,64.9 21.2,64.3 17.5,63.4 
				16.8,63.7 16.1,63.4 15.8,62.7 12.4,60.9 11.7,61.1 11.1,60.6 11,59.9 8.1,57.4 7.4,57.3 6.8,56.8 6.9,56 4.7,52.9 4,52.7 
				3.7,52 3.9,51.3 2.5,47.7 1.9,47.3 1.7,46.6 2.1,46 1.6,42.2 1.1,41.6 1.1,40.9 1.6,40.4 2.1,36.6 1.7,35.9 1.9,35.2 2.5,34.8 
				3.9,31.2 3.7,30.5 4,29.8 4.7,29.6 6.9,26.5 6.8,25.8 7.4,25.2 8.1,25.1 10.9,22.6 11.1,21.9 11.7,21.4 12.4,21.6 15.8,19.8 
				16.1,19.1 16.8,18.8 17.5,19.2 21.2,18.2 			"/>
		</defs>
		<clipPath id="SVGID_2_">
			<use xlink:href="#SVGID_3_"  overflow="visible"/>
		</clipPath>
		<path clip-path="url(#SVGID_2_)" fill="#FFFFFF" d="M29,20.5c0.2,0.1,0.5,0.3,0.7,0.3c0.3,0.1,0.6,0.1,0.6-0.2
			c0.1-0.3-0.3-0.4-0.7-0.6c-0.4-0.2-0.7-0.5-0.5-1.1c0.2-0.7,1-0.9,1.6-0.7c0.4,0.1,0.7,0.3,1,0.5l-0.4,0.6
			c-0.2-0.1-0.5-0.3-0.7-0.3c-0.4-0.1-0.6,0-0.7,0.2c0,0.1,0,0.3,0.4,0.4c0.8,0.4,0.9,0.8,0.8,1.3c-0.2,0.8-0.9,1-1.7,0.8
			c-0.3-0.1-0.7-0.2-1-0.4L29,20.5L29,20.5z"/>
		<path clip-path="url(#SVGID_2_)" fill="none" stroke="#FFFFFF" stroke-width="0.4" d="M29,20.5c0.2,0.1,0.5,0.3,0.7,0.3
			c0.3,0.1,0.6,0.1,0.6-0.2c0.1-0.3-0.3-0.4-0.7-0.6c-0.4-0.2-0.7-0.5-0.5-1.1c0.2-0.7,1-0.9,1.6-0.7c0.4,0.1,0.7,0.3,1,0.5
			l-0.4,0.6c-0.2-0.1-0.5-0.3-0.7-0.3c-0.4-0.1-0.6,0-0.7,0.2c0,0.1,0,0.3,0.4,0.4c0.8,0.4,0.9,0.8,0.8,1.3c-0.2,0.8-0.9,1-1.7,0.8
			c-0.3-0.1-0.7-0.2-1-0.4L29,20.5L29,20.5z"/>
		<path clip-path="url(#SVGID_2_)" fill="#FFFFFF" d="M34.7,22.6c0.5,0.2,1,0.1,1.3-0.5c0.3-0.7,0.1-1.2-0.3-1.4
			c-0.4-0.2-1-0.1-1.3,0.5C34,21.9,34.2,22.4,34.7,22.6L34.7,22.6z M36,20.1c1,0.5,1.2,1.6,0.8,2.5c-0.5,0.9-1.4,1.3-2.5,0.7
			c-1-0.5-1.3-1.6-0.8-2.5C34,19.9,35,19.5,36,20.1L36,20.1z"/>
		<path clip-path="url(#SVGID_2_)" fill="none" stroke="#FFFFFF" stroke-width="0.4" d="M34.7,22.6c0.5,0.2,1,0.1,1.3-0.5
			c0.3-0.7,0.1-1.2-0.3-1.4c-0.4-0.2-1-0.1-1.3,0.5C34,21.9,34.2,22.4,34.7,22.6L34.7,22.6z M36,20.1c1,0.5,1.2,1.6,0.8,2.5
			c-0.5,0.9-1.4,1.3-2.5,0.7c-1-0.5-1.3-1.6-0.8-2.5C34,19.9,35,19.5,36,20.1L36,20.1z"/>
		<path clip-path="url(#SVGID_2_)" fill="#FFFFFF" d="M40,22.6l-2.2,2.7c0.6,0.5,1.1,1,1.7,1.5l0.5-0.5c-0.3-0.3-0.7-0.7-1.1-1
			l1.8-2.1"/>
		<path clip-path="url(#SVGID_2_)" fill="none" stroke="#FFFFFF" stroke-width="0.4" d="M40,22.6l-2.2,2.7c0.6,0.5,1.1,1,1.7,1.5
			l0.5-0.5c-0.3-0.3-0.7-0.7-1.1-1l1.8-2.1"/>
		<path clip-path="url(#SVGID_2_)" fill="#FFFFFF" d="M47.5,33.2l-3.3,1.2c-0.1-0.2-0.2-0.5-0.3-0.8l3.3-1.3"/>
		<path clip-path="url(#SVGID_2_)" fill="none" stroke="#FFFFFF" stroke-width="0.4" d="M47.5,33.2l-3.3,1.2
			c-0.1-0.2-0.2-0.5-0.3-0.8l3.3-1.3"/>
		<path clip-path="url(#SVGID_2_)" fill="#FFFFFF" d="M48.8,39.3l-2.7-0.5l0,0l2.5-1.1l-0.2-0.9l-3.3,1.7c0,0.3,0.1,0.6,0.1,1
			l3.6,0.8"/>
		<path clip-path="url(#SVGID_2_)" fill="none" stroke="#FFFFFF" stroke-width="0.4" d="M48.8,39.3l-2.7-0.5l0,0l2.5-1.1l-0.2-0.9
			l-3.3,1.7c0,0.3,0.1,0.6,0.1,1l3.6,0.8"/>
		<path clip-path="url(#SVGID_2_)" fill="#FFFFFF" d="M46,42.8c-0.1,0.2-0.2,0.5-0.2,0.8c0,0.3,0,0.6,0.3,0.6c0.3,0,0.4-0.4,0.6-0.7
			c0.2-0.4,0.4-0.8,1.1-0.7c0.7,0.1,1,0.9,0.9,1.5c0,0.4-0.2,0.7-0.3,1.1L47.7,45c0.1-0.2,0.2-0.5,0.2-0.7c0.1-0.4-0.1-0.6-0.3-0.6
			c-0.1,0-0.3,0.1-0.4,0.5c-0.3,0.8-0.7,1-1.1,1c-0.8-0.1-1.1-0.8-1-1.6c0-0.4,0.2-0.7,0.3-1L46,42.8L46,42.8z"/>
		<path clip-path="url(#SVGID_2_)" fill="none" stroke="#FFFFFF" stroke-width="0.4" d="M46,42.8c-0.1,0.2-0.2,0.5-0.2,0.8
			c0,0.3,0,0.6,0.3,0.6c0.3,0,0.4-0.4,0.6-0.7c0.2-0.4,0.4-0.8,1.1-0.7c0.7,0.1,1,0.9,0.9,1.5c0,0.4-0.2,0.7-0.3,1.1L47.7,45
			c0.1-0.2,0.2-0.5,0.2-0.7c0.1-0.4-0.1-0.6-0.3-0.6c-0.1,0-0.3,0.1-0.4,0.5c-0.3,0.8-0.7,1-1.1,1c-0.8-0.1-1.1-0.8-1-1.6
			c0-0.4,0.2-0.7,0.3-1L46,42.8L46,42.8z"/>
		<path clip-path="url(#SVGID_2_)" fill="#FFFFFF" d="M46.8,51L46,50.7c0.1-0.3,0.2-0.5,0.3-0.8l-2.4-1c0.1-0.2,0.2-0.5,0.3-0.8
			l2.5,0.9c0.1-0.3,0.2-0.5,0.3-0.8l0.8,0.3"/>
		<path clip-path="url(#SVGID_2_)" fill="none" stroke="#FFFFFF" stroke-width="0.4" d="M46.8,51L46,50.7c0.1-0.3,0.2-0.5,0.3-0.8
			l-2.4-1c0.1-0.2,0.2-0.5,0.3-0.8l2.5,0.9c0.1-0.3,0.2-0.5,0.3-0.8l0.8,0.3"/>
		<path clip-path="url(#SVGID_2_)" fill="#FFFFFF" d="M44.4,55.3l-2.9-2.1c0.2-0.2,0.3-0.5,0.5-0.7l2.9,2"/>
		<path clip-path="url(#SVGID_2_)" fill="none" stroke="#FFFFFF" stroke-width="0.4" d="M44.4,55.3l-2.9-2.1
			c0.2-0.2,0.3-0.5,0.5-0.7l2.9,2"/>
		<path clip-path="url(#SVGID_2_)" fill="#FFFFFF" d="M39.7,60.1l-0.5-0.7c0.2-0.2,0.5-0.4,0.7-0.6l-1.7-2c0.2-0.2,0.4-0.4,0.6-0.5
			l1.8,1.9c0.2-0.2,0.4-0.4,0.6-0.6l0.6,0.6"/>
		<path clip-path="url(#SVGID_2_)" fill="none" stroke="#FFFFFF" stroke-width="0.4" d="M39.7,60.1l-0.5-0.7
			c0.2-0.2,0.5-0.4,0.7-0.6l-1.7-2c0.2-0.2,0.4-0.4,0.6-0.5l1.8,1.9c0.2-0.2,0.4-0.4,0.6-0.6l0.6,0.6"/>
		<path clip-path="url(#SVGID_2_)" fill="#FFFFFF" d="M35.6,62.7l-1.6-3.2c0.2-0.1,0.5-0.3,0.7-0.4l1.7,3.1"/>
		<path clip-path="url(#SVGID_2_)" fill="none" stroke="#FFFFFF" stroke-width="0.4" d="M35.6,62.7l-1.6-3.2
			c0.2-0.1,0.5-0.3,0.7-0.4l1.7,3.1"/>
		<path clip-path="url(#SVGID_2_)" fill="#FFFFFF" d="M28.9,64.9l-0.6-3.5c0.7-0.1,1.4-0.3,2-0.5l0.3,0.9c0.4-0.1,0.7-0.2,1.1-0.3
			l0.2-0.7l0.5,1.2l-0.7,2.2L28.9,64.9L28.9,64.9z"/>
		<path clip-path="url(#SVGID_2_)" fill="none" stroke="#FFFFFF" stroke-width="0.4" d="M28.9,64.9l-0.6-3.5c0.7-0.1,1.4-0.3,2-0.5
			l0.3,0.9c0.4-0.1,0.7-0.2,1.1-0.3l0.2-0.7l0.5,1.2l-0.7,2.2L28.9,64.9L28.9,64.9z"/>
		<path clip-path="url(#SVGID_2_)" fill="#FFFFFF" d="M18.8,64.4l0.9-3.4c0.3,0.1,0.5,0.1,0.8,0.2l-0.8,3.4"/>
		<path clip-path="url(#SVGID_2_)" fill="none" stroke="#FFFFFF" stroke-width="0.4" d="M18.8,64.4l0.9-3.4c0.3,0.1,0.5,0.1,0.8,0.2
			l-0.8,3.4"/>
		<path clip-path="url(#SVGID_2_)" fill="#FFFFFF" d="M14.8,63l1.5-3.2c-0.7-0.3-1.3-0.7-2-1.1l-0.4,0.6c0.4,0.3,0.8,0.5,1.3,0.7
			l-1.3,2.5"/>
		<path clip-path="url(#SVGID_2_)" fill="none" stroke="#FFFFFF" stroke-width="0.4" d="M14.8,63l1.5-3.2c-0.7-0.3-1.3-0.7-2-1.1
			l-0.4,0.6c0.4,0.3,0.8,0.5,1.3,0.7l-1.3,2.5"/>
		<path clip-path="url(#SVGID_2_)" fill="#FFFFFF" d="M9.9,59.9l2.2-2.7c-0.6-0.5-1.1-1-1.7-1.5l-0.5,0.5c0.3,0.4,0.7,0.7,1.1,1
			l-1.8,2.1"/>
		<path clip-path="url(#SVGID_2_)" fill="none" stroke="#FFFFFF" stroke-width="0.4" d="M9.9,59.9l2.2-2.7c-0.6-0.5-1.1-1-1.7-1.5
			l-0.5,0.5c0.3,0.4,0.7,0.7,1.1,1l-1.8,2.1"/>
		<path clip-path="url(#SVGID_2_)" fill="#FFFFFF" d="M4.3,53.4l3.6-0.9C8,52.7,8.2,53,8.4,53.2l-2.1,3l-0.6-0.7l1.7-2.2l0,0
			l-2.7,0.8"/>
		<path clip-path="url(#SVGID_2_)" fill="none" stroke="#FFFFFF" stroke-width="0.4" d="M4.3,53.4l3.6-0.9C8,52.7,8.2,53,8.4,53.2
			l-2.1,3l-0.6-0.7l1.7-2.2l0,0l-2.7,0.8"/>
		<path clip-path="url(#SVGID_2_)" fill="#FFFFFF" d="M5.5,49.7c0-0.2-0.1-0.6-0.1-0.8c-0.1-0.3-0.3-0.5-0.6-0.4
			c-0.3,0.1-0.2,0.5-0.1,0.9c0,0.4,0,0.9-0.6,1.1c-0.7,0.3-1.3-0.3-1.5-0.9c-0.1-0.4-0.2-0.7-0.2-1.1l0.7,0c0,0.2,0.1,0.6,0.1,0.7
			c0.2,0.4,0.4,0.5,0.6,0.4c0.1,0,0.2-0.2,0.1-0.6c-0.1-0.9,0.1-1.2,0.6-1.4c0.8-0.3,1.3,0.2,1.6,0.9c0.1,0.3,0.2,0.7,0.2,1.1
			L5.5,49.7L5.5,49.7z"/>
		<path clip-path="url(#SVGID_2_)" fill="none" stroke="#FFFFFF" stroke-width="0.4" d="M5.5,49.7c0-0.2-0.1-0.6-0.1-0.8
			c-0.1-0.3-0.3-0.5-0.6-0.4c-0.3,0.1-0.2,0.5-0.1,0.9c0,0.4,0,0.9-0.6,1.1c-0.7,0.3-1.3-0.3-1.5-0.9c-0.1-0.4-0.2-0.7-0.2-1.1
			l0.7,0c0,0.2,0.1,0.6,0.1,0.7c0.2,0.4,0.4,0.5,0.6,0.4c0.1,0,0.2-0.2,0.1-0.6c-0.1-0.9,0.1-1.2,0.6-1.4c0.8-0.3,1.3,0.2,1.6,0.9
			c0.1,0.3,0.2,0.7,0.2,1.1L5.5,49.7L5.5,49.7z"/>
		<path clip-path="url(#SVGID_2_)" fill="#FFFFFF" d="M1,42.8l0.9-0.1c0,0.3,0,0.6,0.1,0.9l2.6-0.3c0,0.3,0.1,0.5,0.1,0.8l-2.6,0.4
			c0,0.3,0.1,0.6,0.1,0.8l-0.9,0.2"/>
		<path clip-path="url(#SVGID_2_)" fill="none" stroke="#FFFFFF" stroke-width="0.4" d="M1,42.8l0.9-0.1c0,0.3,0,0.6,0.1,0.9
			l2.6-0.3c0,0.3,0.1,0.5,0.1,0.8l-2.6,0.4c0,0.3,0.1,0.6,0.1,0.8l-0.9,0.2"/>
		<path clip-path="url(#SVGID_2_)" fill="#FFFFFF" d="M4.9,37.3c-0.1,0.3-0.1,0.6-0.2,0.9c0,0-0.5,0.1-0.8,0.2
			c-0.3,0.1-0.6,0.3-0.6,0.5c0,0,0,0.1,0,0.1l1.3,0.1c0,0.3,0,0.5-0.1,0.8l-3.4-0.2c0-0.5,0.1-1,0.1-1.4c0.1-0.7,0.4-1.2,1-1.2
			c0.5,0,0.8,0.4,0.8,0.9l0,0c0.1-0.2,0.3-0.2,0.5-0.3C4,37.6,4.9,37.3,4.9,37.3L4.9,37.3z"/>
		<path clip-path="url(#SVGID_2_)" fill="none" stroke="#FFFFFF" stroke-width="0.4" d="M4.9,37.3c-0.1,0.3-0.1,0.6-0.2,0.9
			c0,0-0.5,0.1-0.8,0.2c-0.3,0.1-0.6,0.3-0.6,0.5c0,0,0,0.1,0,0.1l1.3,0.1c0,0.3,0,0.5-0.1,0.8l-3.4-0.2c0-0.5,0.1-1,0.1-1.4
			c0.1-0.7,0.4-1.2,1-1.2c0.5,0,0.8,0.4,0.8,0.9l0,0c0.1-0.2,0.3-0.2,0.5-0.3C4,37.6,4.9,37.3,4.9,37.3L4.9,37.3z"/>
		<path clip-path="url(#SVGID_2_)" fill="#FFFFFF" d="M2.7,32.3l3.8,0.1c-0.1,0.3-0.3,0.6-0.4,0.9l-0.8,0C5.2,33.6,5,34,4.9,34.3
			l0.6,0.5c-0.1,0.3-0.2,0.6-0.3,0.9l-2.9-2.5"/>
		<path clip-path="url(#SVGID_2_)" fill="none" stroke="#FFFFFF" stroke-width="0.4" d="M2.7,32.3l3.8,0.1c-0.1,0.3-0.3,0.6-0.4,0.9
			l-0.8,0C5.2,33.6,5,34,4.9,34.3l0.6,0.5c-0.1,0.3-0.2,0.6-0.3,0.9l-2.9-2.5"/>
		<path clip-path="url(#SVGID_2_)" fill="#FFFFFF" d="M8.6,23.8l2.6,0.9l-1.5-1.8l0.7-0.6l2.1,2.8c-0.2,0.2-0.5,0.4-0.7,0.6
			l-2.5-0.8l1.6,1.6c-0.2,0.2-0.4,0.3-0.5,0.5l-2.5-2.5"/>
		<path clip-path="url(#SVGID_2_)" fill="none" stroke="#FFFFFF" stroke-width="0.4" d="M8.6,23.8l2.6,0.9l-1.5-1.8l0.7-0.6l2.1,2.8
			c-0.2,0.2-0.5,0.4-0.7,0.6l-2.5-0.8l1.6,1.6c-0.2,0.2-0.4,0.3-0.5,0.5l-2.5-2.5"/>
		<path clip-path="url(#SVGID_2_)" fill="#FFFFFF" d="M15.2,22.6c0.5-0.2,0.7-0.7,0.3-1.4c-0.3-0.7-0.9-0.8-1.3-0.5
			c-0.4,0.2-0.7,0.7-0.3,1.4C14.2,22.8,14.7,22.9,15.2,22.6L15.2,22.6z M13.8,20.1c1-0.5,2-0.1,2.5,0.7c0.5,0.9,0.2,1.9-0.8,2.5
			c-1,0.5-2,0.1-2.5-0.7C12.6,21.7,12.8,20.6,13.8,20.1L13.8,20.1z"/>
		<path clip-path="url(#SVGID_2_)" fill="none" stroke="#FFFFFF" stroke-width="0.4" d="M15.2,22.6c0.5-0.2,0.7-0.7,0.3-1.4
			c-0.3-0.7-0.9-0.8-1.3-0.5c-0.4,0.2-0.7,0.7-0.3,1.4C14.2,22.8,14.7,22.9,15.2,22.6L15.2,22.6z M13.8,20.1c1-0.5,2-0.1,2.5,0.7
			c0.5,0.9,0.2,1.9-0.8,2.5c-1,0.5-2,0.1-2.5-0.7C12.6,21.7,12.8,20.6,13.8,20.1L13.8,20.1z"/>
		<path clip-path="url(#SVGID_2_)" fill="#FFFFFF" d="M18.9,21c0.2,0,0.6,0,0.8,0c0.3-0.1,0.5-0.2,0.5-0.5c-0.1-0.3-0.5-0.2-0.9-0.3
			c-0.4,0-0.9-0.1-1-0.8c-0.2-0.7,0.5-1.2,1.1-1.4c0.4-0.1,0.7-0.1,1.1,0l-0.1,0.7c-0.2,0-0.6,0-0.7,0c-0.4,0.1-0.5,0.3-0.5,0.5
			c0,0.1,0.2,0.2,0.6,0.2c0.9,0,1.2,0.3,1.3,0.7c0.2,0.8-0.4,1.3-1.1,1.5c-0.3,0.1-0.7,0.1-1.1,0.1L18.9,21L18.9,21z"/>
		<path clip-path="url(#SVGID_2_)" fill="none" stroke="#FFFFFF" stroke-width="0.4" d="M18.9,21c0.2,0,0.6,0,0.8,0
			c0.3-0.1,0.5-0.2,0.5-0.5c-0.1-0.3-0.5-0.2-0.9-0.3c-0.4,0-0.9-0.1-1-0.8c-0.2-0.7,0.5-1.2,1.1-1.4c0.4-0.1,0.7-0.1,1.1,0
			l-0.1,0.7c-0.2,0-0.6,0-0.7,0c-0.4,0.1-0.5,0.3-0.5,0.5c0,0.1,0.2,0.2,0.6,0.2c0.9,0,1.2,0.3,1.3,0.7c0.2,0.8-0.4,1.3-1.1,1.5
			c-0.3,0.1-0.7,0.1-1.1,0.1L18.9,21L18.9,21z"/>
	</g>
	<path fill="#FFFFFF" d="M24.9,20c0.5,0,0.9-0.4,0.9-0.9c0-0.5-0.4-0.9-0.9-0.9c-0.5,0-0.9,0.4-0.9,0.9C24.1,19.6,24.5,20,24.9,20
		L24.9,20z"/>
	<path fill="none" stroke="#FFFFFF" stroke-width="0.4" d="M24.9,20c0.5,0,0.9-0.4,0.9-0.9c0-0.5-0.4-0.9-0.9-0.9
		c-0.5,0-0.9,0.4-0.9,0.9C24.1,19.6,24.5,20,24.9,20L24.9,20z"/>
	<path fill="#FFFFFF" d="M42.4,29.2c0.3,0.4,0.8,0.5,1.2,0.2c0.4-0.3,0.5-0.8,0.2-1.2c-0.3-0.4-0.8-0.5-1.2-0.2
		C42.2,28.3,42.1,28.8,42.4,29.2L42.4,29.2z"/>
	<path fill="none" stroke="#FFFFFF" stroke-width="0.4" d="M42.4,29.2c0.3,0.4,0.8,0.5,1.2,0.2c0.4-0.3,0.5-0.8,0.2-1.2
		c-0.3-0.4-0.8-0.5-1.2-0.2C42.2,28.3,42.1,28.8,42.4,29.2L42.4,29.2z"/>
	<path fill="#FFFFFF" d="M24.9,62.5c0.5,0,0.9,0.4,0.9,0.9c0,0.5-0.4,0.9-0.9,0.9c-0.5,0-0.9-0.4-0.9-0.9
		C24.1,62.9,24.5,62.5,24.9,62.5L24.9,62.5z"/>
	<path fill="none" stroke="#FFFFFF" stroke-width="0.4" d="M24.9,62.5c0.5,0,0.9,0.4,0.9,0.9c0,0.5-0.4,0.9-0.9,0.9
		c-0.5,0-0.9-0.4-0.9-0.9C24.1,62.9,24.5,62.5,24.9,62.5L24.9,62.5z"/>
	<path fill="#FFFFFF" d="M7.5,29.2c0.3-0.4,0.2-0.9-0.2-1.2c-0.4-0.3-0.9-0.2-1.2,0.2c-0.3,0.4-0.2,0.9,0.2,1.2
		C6.6,29.7,7.2,29.6,7.5,29.2L7.5,29.2z"/>
	<path fill="none" stroke="#FFFFFF" stroke-width="0.4" d="M7.5,29.2c0.3-0.4,0.2-0.9-0.2-1.2c-0.4-0.3-0.9-0.2-1.2,0.2
		c-0.3,0.4-0.2,0.9,0.2,1.2C6.6,29.7,7.2,29.6,7.5,29.2L7.5,29.2z"/>
	<polyline fill="#FFD500" points="27.2,50.5 33,63.7 33.7,63.4 	"/>
	<polyline fill="#FFD500" points="15.7,37.7 2,35.1 1.9,35.2 1.7,35.9 	"/>
	<polyline fill="#FFD500" points="4,29.8 3.7,30.5 3.7,30.6 15.7,37.7 	"/>
	<g>
		<defs>
			<path id="SVGID_5_" d="M24.9,65.1c13.2,0,23.8-10.7,23.8-23.8c0-13.2-10.7-23.8-23.8-23.8c-13.2,0-23.8,10.7-23.8,23.8
				C1.1,54.4,11.8,65.1,24.9,65.1L24.9,65.1z"/>
		</defs>
		<clipPath id="SVGID_4_">
			<use xlink:href="#SVGID_5_"  overflow="visible"/>
		</clipPath>
		<polyline clip-path="url(#SVGID_4_)" fill="#1D1D1B" points="22.4,17.4 24.9,31.7 27.5,17.4 		"/>
		<polyline clip-path="url(#SVGID_4_)" fill="#1D1D1B" points="28.2,17.5 27.2,32 33.1,18.7 		"/>
		<polyline clip-path="url(#SVGID_4_)" fill="#1D1D1B" points="33.8,18.9 29.4,32.8 38.3,21.3 		"/>
		<polyline clip-path="url(#SVGID_4_)" fill="#1D1D1B" points="38.9,21.7 31.2,34.1 42.7,25.1 		"/>
		<polyline clip-path="url(#SVGID_4_)" fill="#1D1D1B" points="43.2,25.6 32.8,35.8 46,29.8 		"/>
		<polyline clip-path="url(#SVGID_4_)" fill="#1D1D1B" points="46.4,30.4 33.8,37.9 48.2,35.1 		"/>
		<polyline clip-path="url(#SVGID_4_)" fill="#1D1D1B" points="48.3,35.9 34.4,40.1 48.9,40.9 		"/>
		<polyline clip-path="url(#SVGID_4_)" fill="#1D1D1B" points="48.9,41.6 34.4,42.4 48.3,46.6 		"/>
		<polyline clip-path="url(#SVGID_4_)" fill="#1D1D1B" points="48.2,47.4 33.8,44.6 46.4,52.1 		"/>
		<polyline clip-path="url(#SVGID_4_)" fill="#1D1D1B" points="46,52.7 32.8,46.7 43.2,56.9 		"/>
		<polyline clip-path="url(#SVGID_4_)" fill="#1D1D1B" points="42.7,57.5 31.2,48.4 38.9,60.8 		"/>
		<polyline clip-path="url(#SVGID_4_)" fill="#1D1D1B" points="38.3,61.2 29.4,49.7 33.8,63.6 		"/>
		<polyline clip-path="url(#SVGID_4_)" fill="#1D1D1B" points="27.5,65.1 24.9,50.8 22.4,65.1 		"/>
		<polyline clip-path="url(#SVGID_4_)" fill="#1D1D1B" points="21.7,65.1 22.6,50.5 16.8,63.8 		"/>
		<polyline clip-path="url(#SVGID_4_)" fill="#1D1D1B" points="16.1,63.6 20.5,49.7 11.6,61.2 		"/>
		<polyline clip-path="url(#SVGID_4_)" fill="#1D1D1B" points="11,60.8 18.6,48.4 7.2,57.5 		"/>
		<polyline clip-path="url(#SVGID_4_)" fill="#1D1D1B" points="6.7,56.9 17.1,46.7 3.8,52.7 		"/>
		<polyline clip-path="url(#SVGID_4_)" fill="#1D1D1B" points="3.5,52.1 16,44.6 1.7,47.4 		"/>
		<polyline clip-path="url(#SVGID_4_)" fill="#1D1D1B" points="1.5,46.6 15.5,42.4 0.9,41.6 		"/>
		<polyline clip-path="url(#SVGID_4_)" fill="#1D1D1B" points="0.9,40.9 15.5,40.1 1.5,35.9 		"/>
		<polyline clip-path="url(#SVGID_4_)" fill="#1D1D1B" points="1.7,35.1 16,37.9 3.5,30.4 		"/>
		<polyline clip-path="url(#SVGID_4_)" fill="#1D1D1B" points="3.8,29.8 17.1,35.8 6.7,25.6 		"/>
		<polyline clip-path="url(#SVGID_4_)" fill="#1D1D1B" points="7.2,25.1 18.6,34.1 11,21.7 		"/>
		<polyline clip-path="url(#SVGID_4_)" fill="#1D1D1B" points="11.6,21.3 20.5,32.8 16.1,18.9 		"/>
		<polyline clip-path="url(#SVGID_4_)" fill="#1D1D1B" points="16.8,18.7 22.6,32 21.7,17.5 		"/>
		<path clip-path="url(#SVGID_4_)" fill="#FFFFFF" d="M40,22.6l-2.2,2.7c0.6,0.5,1.1,1,1.7,1.5l0.5-0.5c-0.3-0.3-0.7-0.7-1.1-1
			l1.8-2.1"/>
		<path clip-path="url(#SVGID_4_)" fill="#FFFFFF" d="M47.5,33.2l-3.3,1.2c-0.1-0.2-0.2-0.5-0.3-0.8l3.3-1.3"/>
		<path clip-path="url(#SVGID_4_)" fill="#FFFFFF" d="M48.8,39.3l-2.7-0.5l0,0l2.5-1.1l-0.2-0.9l-3.3,1.7c0,0.3,0.1,0.6,0.1,1
			l3.6,0.8"/>
		<path clip-path="url(#SVGID_4_)" fill="#FFFFFF" d="M46.8,51L46,50.7c0.1-0.3,0.2-0.5,0.3-0.8l-2.4-1c0.1-0.2,0.2-0.5,0.3-0.8
			l2.5,0.9c0.1-0.3,0.2-0.5,0.3-0.8l0.8,0.3"/>
		<path clip-path="url(#SVGID_4_)" fill="#FFFFFF" d="M44.4,55.3l-2.9-2.1c0.2-0.2,0.3-0.5,0.5-0.7l2.9,2"/>
		<path clip-path="url(#SVGID_4_)" fill="#FFFFFF" d="M39.7,60.1l-0.5-0.7c0.2-0.2,0.5-0.4,0.7-0.6l-1.7-2c0.2-0.2,0.4-0.4,0.6-0.5
			l1.8,1.9c0.2-0.2,0.4-0.4,0.6-0.6l0.6,0.6"/>
		<path clip-path="url(#SVGID_4_)" fill="#FFFFFF" d="M35.6,62.7l-1.6-3.2c0.2-0.1,0.5-0.3,0.7-0.4l1.7,3.1"/>
		<polyline clip-path="url(#SVGID_4_)" fill="#1D1D1B" points="33.1,63.8 27.2,50.5 28.2,65.1 		"/>
	</g>
	<g>
		<defs>
			<polyline id="SVGID_7_" points="33.1,63.8 27.2,50.5 28.2,65.1 			"/>
		</defs>
		<defs>
			<path id="SVGID_8_" d="M24.9,65.1c13.2,0,23.8-10.7,23.8-23.8c0-13.2-10.7-23.8-23.8-23.8c-13.2,0-23.8,10.7-23.8,23.8
				C1.1,54.4,11.8,65.1,24.9,65.1L24.9,65.1z"/>
		</defs>
		<clipPath id="SVGID_6_">
			<use xlink:href="#SVGID_7_"  overflow="visible"/>
		</clipPath>
		<clipPath id="SVGID_9_" clip-path="url(#SVGID_6_)">
			<use xlink:href="#SVGID_8_"  overflow="visible"/>
		</clipPath>
		<path clip-path="url(#SVGID_9_)" fill="#FFFFFF" d="M31.1,63.7l-0.3-1.2c0.2-0.1,0.5-0.1,0.7-0.2L31.1,63.7L31.1,63.7L31.1,63.7z
			 M31.7,64.2l0.7-2.2l-0.5-1.2l-0.2,0.7c-0.4,0.1-0.7,0.2-1.1,0.3L30.4,61c-0.7,0.2-1.4,0.3-2,0.5l0.1,0.7c0.4-0.1,0.8-0.2,1.3-0.3
			l0.1,0.6c-0.4,0.1-0.8,0.2-1.2,0.3l0.1,0.7c0.4-0.1,0.8-0.2,1.3-0.3l0.1,0.6c-0.5,0.1-1,0.2-1.4,0.3l0.1,0.9"/>
	</g>
	<g>
		<defs>
			<path id="SVGID_11_" d="M24.9,65.1c13.2,0,23.8-10.7,23.8-23.8c0-13.2-10.7-23.8-23.8-23.8c-13.2,0-23.8,10.7-23.8,23.8
				C1.1,54.4,11.8,65.1,24.9,65.1L24.9,65.1z"/>
		</defs>
		<clipPath id="SVGID_10_">
			<use xlink:href="#SVGID_11_"  overflow="visible"/>
		</clipPath>
		<path clip-path="url(#SVGID_10_)" fill="#FFFFFF" d="M18.8,64.4l0.9-3.4c0.3,0.1,0.5,0.1,0.8,0.2l-0.8,3.4"/>
		<path clip-path="url(#SVGID_10_)" fill="#FFFFFF" d="M14.8,63l1.5-3.2c-0.7-0.3-1.3-0.7-2-1.1l-0.4,0.6c0.4,0.3,0.8,0.5,1.3,0.7
			l-1.3,2.5"/>
		<path clip-path="url(#SVGID_10_)" fill="#FFFFFF" d="M9.9,59.9l2.2-2.7c-0.6-0.5-1.1-1-1.7-1.5l-0.5,0.5c0.3,0.4,0.7,0.7,1.1,1
			l-1.8,2.1"/>
		<path clip-path="url(#SVGID_10_)" fill="#FFFFFF" d="M4.3,53.4l3.6-0.9C8,52.7,8.2,53,8.4,53.2l-2.1,3l-0.6-0.7l1.7-2.2l0,0
			l-2.7,0.8"/>
		<path clip-path="url(#SVGID_10_)" fill="#FFFFFF" d="M1,42.8l0.9-0.1c0,0.3,0,0.6,0.1,0.9l2.6-0.3c0,0.3,0.1,0.5,0.1,0.8l-2.6,0.4
			c0,0.3,0.1,0.6,0.1,0.8l-0.9,0.2"/>
		<path clip-path="url(#SVGID_10_)" fill="#FFFFFF" d="M1.9,38.5c0,0.1,0,0.3,0,0.4L2.7,39c0-0.1,0-0.3,0-0.4c0-0.2,0-0.5-0.4-0.6
			C2.1,38,1.9,38.2,1.9,38.5L1.9,38.5z M1.1,38.4l0.2,0c0.1-0.7,0.4-1.2,1-1.2c0.5,0,0.8,0.4,0.8,0.9l0,0c0.1-0.2,0.3-0.2,0.5-0.3
			c0.3-0.2,1.3-0.5,1.3-0.5c-0.1,0.3-0.1,0.6-0.2,0.9c0,0-0.5,0.1-0.8,0.2c-0.3,0.1-0.6,0.3-0.6,0.5c0,0,0,0.1,0,0.1l1.3,0.1
			c0,0.3,0,0.5-0.1,0.8L1,39.8"/>
		<path clip-path="url(#SVGID_10_)" fill="#FFFFFF" d="M3.3,33l1.1,0.8c0.1-0.3,0.2-0.5,0.3-0.7L3.3,33L3.3,33L3.3,33z M2.7,32.3
			l3.8,0.1c-0.1,0.3-0.3,0.6-0.4,0.9l-0.8,0C5.2,33.6,5,34,4.9,34.3l0.6,0.5c-0.1,0.3-0.2,0.6-0.3,0.9l-2.9-2.5"/>
		<path clip-path="url(#SVGID_10_)" fill="#FFFFFF" d="M8.6,23.8l2.6,0.9l-1.5-1.8l0.7-0.6l2.1,2.8c-0.2,0.2-0.5,0.4-0.7,0.6
			l-2.5-0.8l1.6,1.6c-0.2,0.2-0.4,0.3-0.5,0.5l-2.5-2.5"/>
		<path clip-path="url(#SVGID_10_)" fill="#FFFFFF" d="M29,20.5c0.2,0.1,0.5,0.3,0.7,0.3c0.3,0.1,0.6,0.1,0.6-0.2
			c0.1-0.3-0.3-0.4-0.7-0.6c-0.4-0.2-0.7-0.5-0.5-1.1c0.2-0.7,1-0.9,1.6-0.7c0.4,0.1,0.7,0.3,1,0.5l-0.4,0.6
			c-0.2-0.1-0.5-0.3-0.7-0.3c-0.4-0.1-0.6,0-0.7,0.2c0,0.1,0,0.3,0.4,0.4c0.8,0.4,0.9,0.8,0.8,1.3c-0.2,0.8-0.9,1-1.7,0.8
			c-0.3-0.1-0.7-0.2-1-0.4L29,20.5L29,20.5z"/>
		<path clip-path="url(#SVGID_10_)" fill="#FFFFFF" d="M34.7,22.6c0.5,0.2,1,0.1,1.3-0.5c0.3-0.7,0.1-1.2-0.3-1.4
			c-0.4-0.2-1-0.1-1.3,0.5C34,21.9,34.2,22.4,34.7,22.6L34.7,22.6z M36,20.1c1,0.5,1.2,1.6,0.8,2.5c-0.5,0.9-1.4,1.3-2.5,0.7
			c-1-0.5-1.3-1.6-0.8-2.5C34,19.9,35,19.5,36,20.1L36,20.1z"/>
		<path clip-path="url(#SVGID_10_)" fill="#FFFFFF" d="M46,42.8c-0.1,0.2-0.2,0.5-0.2,0.8c0,0.3,0,0.6,0.3,0.6
			c0.3,0,0.4-0.4,0.6-0.7c0.2-0.4,0.4-0.8,1.1-0.7c0.7,0.1,1,0.9,0.9,1.5c0,0.4-0.2,0.7-0.3,1.1L47.7,45c0.1-0.2,0.2-0.5,0.2-0.7
			c0.1-0.4-0.1-0.6-0.3-0.6c-0.1,0-0.3,0.1-0.4,0.5c-0.3,0.8-0.7,1-1.1,1c-0.8-0.1-1.1-0.8-1-1.6c0-0.4,0.2-0.7,0.3-1L46,42.8
			L46,42.8z"/>
		<path clip-path="url(#SVGID_10_)" fill="#FFFFFF" d="M5.5,49.7c0-0.2-0.1-0.6-0.1-0.8c-0.1-0.3-0.3-0.5-0.6-0.4
			c-0.3,0.1-0.2,0.5-0.1,0.9c0,0.4,0,0.9-0.6,1.1c-0.7,0.3-1.3-0.3-1.5-0.9c-0.1-0.4-0.2-0.7-0.2-1.1l0.7,0c0,0.2,0.1,0.6,0.1,0.7
			c0.2,0.4,0.4,0.5,0.6,0.4c0.1,0,0.2-0.2,0.1-0.6c-0.1-0.9,0.1-1.2,0.6-1.4c0.8-0.3,1.3,0.2,1.6,0.9c0.1,0.3,0.2,0.7,0.2,1.1
			L5.5,49.7L5.5,49.7z"/>
		<path clip-path="url(#SVGID_10_)" fill="#FFFFFF" d="M15.2,22.6c0.5-0.2,0.7-0.7,0.3-1.4c-0.3-0.7-0.9-0.8-1.3-0.5
			c-0.4,0.2-0.7,0.7-0.3,1.4C14.2,22.8,14.7,22.9,15.2,22.6L15.2,22.6z M13.8,20.1c1-0.5,2-0.1,2.5,0.7c0.5,0.9,0.2,1.9-0.8,2.5
			c-1,0.5-2,0.1-2.5-0.7C12.6,21.7,12.8,20.6,13.8,20.1L13.8,20.1z"/>
		<path clip-path="url(#SVGID_10_)" fill="#FFFFFF" d="M18.9,21c0.2,0,0.6,0,0.8,0c0.3-0.1,0.5-0.2,0.5-0.5
			c-0.1-0.3-0.5-0.2-0.9-0.3c-0.4,0-0.9-0.1-1-0.8c-0.2-0.7,0.5-1.2,1.1-1.4c0.4-0.1,0.7-0.1,1.1,0l-0.1,0.7c-0.2,0-0.6,0-0.7,0
			c-0.4,0.1-0.5,0.3-0.5,0.5c0,0.1,0.2,0.2,0.6,0.2c0.9,0,1.2,0.3,1.3,0.7c0.2,0.8-0.4,1.3-1.1,1.5c-0.3,0.1-0.7,0.1-1.1,0.1
			L18.9,21L18.9,21z"/>
		<path clip-path="url(#SVGID_10_)" fill="#FFFFFF" d="M24.9,20c0.5,0,0.9-0.4,0.9-0.9c0-0.5-0.4-0.9-0.9-0.9
			c-0.5,0-0.9,0.4-0.9,0.9C24.1,19.6,24.5,20,24.9,20L24.9,20z"/>
		<path clip-path="url(#SVGID_10_)" fill="#FFFFFF" d="M42.4,29.2c0.3,0.4,0.8,0.5,1.2,0.2c0.4-0.3,0.5-0.8,0.2-1.2
			c-0.3-0.4-0.8-0.5-1.2-0.2C42.2,28.3,42.1,28.8,42.4,29.2L42.4,29.2z"/>
		<path clip-path="url(#SVGID_10_)" fill="#FFFFFF" d="M24.9,62.5c0.5,0,0.9,0.4,0.9,0.9c0,0.5-0.4,0.9-0.9,0.9
			c-0.5,0-0.9-0.4-0.9-0.9C24.1,62.9,24.5,62.5,24.9,62.5L24.9,62.5z"/>
		<path clip-path="url(#SVGID_10_)" fill="#FFFFFF" d="M7.5,29.2c0.3-0.4,0.2-0.9-0.2-1.2c-0.4-0.3-0.9-0.2-1.2,0.2
			c-0.3,0.4-0.2,0.9,0.2,1.2C6.6,29.7,7.2,29.6,7.5,29.2L7.5,29.2z"/>
	</g>
	<path fill="#E4032E" d="M28.2,44.5c-0.3,0.3-0.6,0.4-1.1,0.4h-0.9c-0.5,0-0.9,0.2-1.2,0.6h-0.3c-0.3-0.4-0.7-0.6-1.2-0.6h-0.9
		c-0.8,0-1.5-0.7-1.5-1.5v-5.9"/>
	<path fill="#FFFFFF" d="M21.2,37.6h7.4v5.9c0,0.4-0.2,0.8-0.4,1"/>
	<path fill="#1D1D1B" d="M28.2,37.9h-6.6v5.5c0,0.6,0.5,1.1,1.1,1.1h0.9c0.5,0,1,0.2,1.3,0.6h0c0.3-0.4,0.8-0.6,1.3-0.6h0.9
		c0.6,0,1.1-0.5,1.1-1.1V37.9L28.2,37.9z M29,43.5c0,1-0.8,1.9-1.9,1.9h-0.9c-0.5,0-0.8,0.3-1,0.7h-0.7c-0.2-0.4-0.6-0.7-1-0.7h-0.9
		c-1,0-1.9-0.8-1.9-1.9v-6.3H29V43.5L29,43.5z"/>
	<path fill="#1D1D1B" d="M123.3,35.7h4.4v0.7h-0.1c-1.3,0-1.5,0.6-1.5,1.4v4.2c0,3.7-2.7,4.5-4.7,4.5c-3,0-4.9-1.3-4.9-3.9v-5
		c0-0.8-0.2-1.1-1.2-1.1h-0.3v-0.7h5.3v0.7h-0.3c-0.7,0-1.2,0.3-1.2,1.1v5c0,2,1.5,2.8,3,2.8c2.2,0,3.3-1.2,3.3-3.1v-4.1
		c0-1.2-0.3-1.7-1.4-1.7h-0.3V35.7L123.3,35.7z"/>
	<path fill="#1D1D1B" d="M136.1,44.6c0,0.8,0.3,1,1,1v0.5h-4v-0.5c0.7-0.1,1-0.5,1-1.9v-1.5c0-1.3-0.4-1.9-1-1.9
		c-0.5,0-1.1,0.3-1.8,0.7v3.4c0,0.8,0.3,1.1,1,1.1h0.2v0.5h-4.3v-0.5h0.1c0.7,0,1-0.3,1-1.2v-3.3c0-0.4-0.2-0.6-0.8-0.8l-0.4-0.1
		v-0.4l2.9-1h0.3v1.5c1.2-0.8,2.3-1.3,3.1-1.3c1.2,0,1.8,0.9,1.8,2.9V44.6L136.1,44.6z"/>
	<path fill="#1D1D1B" d="M141.1,36.2c0,0.7-0.6,1.1-1.3,1.1c-0.8,0-1.3-0.5-1.3-1.1c0-0.6,0.6-1.1,1.3-1.1
		C140.5,35.1,141.1,35.6,141.1,36.2L141.1,36.2z M141.8,46.1h-4.2v-0.5h0.2c0.7,0,0.9-0.3,0.9-1.2v-3.2c0-0.4-0.1-0.6-0.6-0.7
		l-0.6-0.2v-0.4l2.9-1h0.3v5.6c0,0.7,0.3,1.1,1,1.1V46.1L141.8,46.1z"/>
	<path fill="#1D1D1B" d="M142,39.3h4.3v0.5h-0.6c-0.4,0-0.5,0.3-0.2,0.9l1.5,3.3l1.3-3c0.4-0.9,0.2-1.2-1-1.3v-0.5h3.3v0.5
		c-0.9,0.1-1.1,0.3-1.4,1l-2.4,5.4h-1l-2.5-5.4c-0.3-0.7-0.6-1-1.3-1V39.3L142,39.3z"/>
	<path fill="#1D1D1B" d="M155.3,42c0-1.3-0.5-2.1-1.2-2.1c-0.7,0-1.3,0.9-1.2,2.1H155.3L155.3,42z M157.4,44.2
		c-0.9,1.3-2.3,2.1-3.6,2.1c-1.8,0-3.1-1.4-3.1-3.4c0-2.2,1.5-3.8,3.6-3.8c0.9,0,1.6,0.3,2.1,0.8c1,1,0.5,1.9,1.1,2.2v0.5h-4.7
		c0.1,1.4,1.1,2.5,2.1,2.5c0.6,0,1.2-0.4,2-1.2L157.4,44.2L157.4,44.2z"/>
	<path fill="#1D1D1B" d="M163.1,46.1h-4.7v-0.5h0.1c0.7,0,0.9-0.3,0.9-1.2v-2.7c0-0.8-0.1-0.9-0.6-1.1l-0.5-0.2v-0.4l2.8-1h0.4v1.9
		h0c0.6-1.2,0.9-1.7,1.5-1.7c0.1,0,0.3,0,0.3,0.1l1.3,0.5c-0.2,0.7-0.5,1.3-0.8,1.8c-0.5-0.2-1.1-0.4-1.4-0.4c-0.3,0-0.6,0.2-1,0.8
		v2.7c0,0.8,0.3,1.1,1.1,1.1h0.4V46.1L163.1,46.1z"/>
	<path fill="#1D1D1B" d="M165.8,44.1h0.5c0.3,0.9,1,1.4,1.7,1.4c0.5,0,0.9-0.4,0.9-0.8c0-1.2-3.2-1.6-3.2-3.6c0-1.3,1.1-2.1,2.6-2.1
		c0.6,0,1.2,0.1,1.9,0.4l0,1.8h-0.5c-0.3-0.9-0.9-1.4-1.6-1.4c-0.4,0-0.8,0.3-0.8,0.6c0,1.4,3.3,1.4,3.3,3.7c0,1.2-0.9,2.1-2.2,2.1
		c-1.2,0-1.5-0.2-1.8-0.2c-0.1,0-0.2,0.1-0.3,0.2H166L165.8,44.1L165.8,44.1z"/>
	<path fill="#1D1D1B" d="M175.1,36.2c0,0.7-0.6,1.1-1.3,1.1c-0.8,0-1.3-0.5-1.3-1.1c0-0.6,0.6-1.1,1.3-1.1
		C174.5,35.1,175.1,35.6,175.1,36.2L175.1,36.2z M175.8,46.1h-4.2v-0.5h0.2c0.7,0,0.9-0.3,0.9-1.2v-3.2c0-0.4-0.1-0.6-0.6-0.7
		l-0.6-0.2v-0.4l2.9-1h0.3v5.6c0,0.7,0.3,1.1,1,1.1V46.1L175.8,46.1z"/>
	<path fill="#1D1D1B" d="M179.6,44.3c0,0.6,0.3,0.9,0.8,0.9c0.4,0,0.8-0.3,1.3-0.8l0.2,0.5c-0.5,0.9-1.5,1.5-2.4,1.5
		c-1.1,0-1.9-0.6-1.9-2.1v-4h-0.9v-0.4c1-0.4,2.1-1.6,2.5-2.6h0.5v2.1h2.2l-0.3,0.9h-1.9V44.3L179.6,44.3z"/>
	<path fill="#1D1D1B" d="M184.5,41.3c-0.6-1.2-0.9-1.5-1.6-1.5v-0.5h4.3v0.5c-0.9,0-1,0.3-0.7,1l1.4,2.9l1.3-2.6
		c0.4-0.7,0.1-1.3-0.9-1.3v-0.5h3.1v0.5c-0.8,0.2-1,0.4-1.4,1.3l-3.8,7.7c-0.4,0.8-0.9,1.2-1.5,1.2c-0.6,0-1.1-0.4-1.1-1
		c0-0.3,0.1-0.6,0.3-0.7c0.8-0.8,1.7,0.3,2.6-1.7l0.3-0.7L184.5,41.3L184.5,41.3z"/>
	<path fill="#1D1D1B" d="M63.7,35.7H68v0.6h-0.1c-1.3,0-1.5,0.6-1.5,1.4v4.1c0,3.7-2.7,4.4-4.7,4.4c-3,0-4.9-1.3-4.9-3.8v-5
		c0-0.8-0.2-1.1-1.2-1.1h-0.3v-0.6h5.2v0.6h-0.3c-0.7,0-1.2,0.3-1.2,1.1v5c0,2,1.5,2.7,3,2.7c2.2,0,3.3-1.2,3.3-3.1v-4
		c0-1.2-0.3-1.7-1.4-1.7h-0.3V35.7L63.7,35.7z"/>
	<path fill="#1D1D1B" d="M70.7,44.2c0,0.6,0.3,0.9,0.8,0.9c0.4,0,0.8-0.2,1.3-0.8l0.2,0.5c-0.5,0.9-1.5,1.5-2.4,1.5
		c-1.1,0-1.9-0.6-1.9-2.1v-4h-0.9v-0.4c1-0.4,2.1-1.6,2.4-2.6h0.5v2.1h2.2l-0.2,0.9h-1.9V44.2L70.7,44.2z"/>
	<path fill="#1D1D1B" d="M78.3,46.1h-4.6v-0.5h0.1c0.7,0,0.9-0.3,0.9-1.2v-2.7c0-0.7-0.1-0.9-0.6-1.1l-0.5-0.2v-0.4l2.7-1h0.4v1.9h0
		c0.6-1.2,0.9-1.7,1.4-1.7c0.1,0,0.2,0,0.3,0l1.3,0.5c-0.2,0.7-0.5,1.3-0.8,1.8C78.6,41.2,78,41,77.7,41c-0.3,0-0.6,0.2-1,0.7v2.7
		c0,0.8,0.3,1.1,1.1,1.1h0.4V46.1L78.3,46.1z"/>
	<path fill="#1D1D1B" d="M85,41.9c0-1.3-0.5-2.1-1.2-2.1c-0.7,0-1.3,0.9-1.2,2.1H85L85,41.9z M87.1,44.1c-0.9,1.3-2.3,2.1-3.6,2.1
		c-1.8,0-3-1.4-3-3.4c0-2.2,1.5-3.7,3.6-3.7c0.9,0,1.6,0.3,2.1,0.8c1,1,0.5,1.9,1.1,2.2v0.5h-4.6c0.1,1.4,1.1,2.4,2,2.4
		c0.6,0,1.2-0.3,2-1.2L87.1,44.1L87.1,44.1z"/>
	<path fill="#1D1D1B" d="M95.2,44.5c-0.8,1.2-1.9,1.8-3.4,1.8c-2,0-3.5-1.4-3.5-3.3c0-2.2,1.9-3.9,4.3-3.9c1.4,0,2.5,0.6,2.5,1.4
		c0,0.5-0.3,0.8-0.9,0.8c-1.2,0-1.4-1.5-2.4-1.5c-0.8,0-1.4,1-1.4,2.5c0,1.8,0.9,3,2.1,3c0.8,0,1.4-0.4,2.1-1.2L95.2,44.5L95.2,44.5
		z"/>
	<path fill="#1D1D1B" d="M98.8,44.4c0,1,0.3,1.1,0.9,1.1h0.2v0.5h-4.2v-0.5h0.2c0.8,0,0.9-0.3,0.9-1.2v-7.3c0-0.5-0.1-0.6-0.5-0.7
		l-0.5-0.2v-0.4l2.6-0.8h0.4v5.4c0.9-0.6,2.1-1.3,3-1.3c1.2,0,1.8,1,1.8,2.9v2.2c0,1,0.1,1.3,0.7,1.3h0.2v0.5h-3.9v-0.5h0.1
		c0.7,0,0.8-0.3,0.8-1.2v-2.5c0-0.9-0.4-1.5-1.1-1.5c-0.5,0-1.1,0.2-1.7,0.6V44.4L98.8,44.4z"/>
	<path fill="#1D1D1B" d="M108.1,44.2c0,0.6,0.3,0.9,0.8,0.9c0.4,0,0.8-0.2,1.3-0.8l0.2,0.5c-0.5,0.9-1.5,1.5-2.4,1.5
		c-1.1,0-1.9-0.6-1.9-2.1v-4h-0.9v-0.4c1-0.4,2.1-1.6,2.4-2.6h0.5v2.1h2.2l-0.2,0.9h-1.9V44.2L108.1,44.2z"/>
</g>
</svg>
