<?xml version="1.0" encoding="utf-8"?>
<!-- Generator: Adobe Illustrator 18.1.1, SVG Export Plug-In . SVG Version: 6.00 Build 0)  -->
<svg version="1.1" id="Layer_1" xmlns="http://www.w3.org/2000/svg" xmlns:xlink="http://www.w3.org/1999/xlink" x="0px" y="0px"
	 width="280px" height="80px" viewBox="0 0 280 80" enable-background="new 0 0 280 80" xml:space="preserve">
<g>
	<polygon fill="#1D1D1B" points="27.2,53.8 27.2,26.6 0,26.6 0,53.8 27.2,53.8 	"/>
	<path fill="#FFFFFF" d="M7.2,34.8c0,0,0.7,0,1.1,0c0.6,0,1-0.1,1,0c0,0.1,0,6.1,0,6.1s0.1,1.3,0.4,1.9c0.5,1.1,3,1.2,3,1.2
		s0.4,0,1.2,0c0.8-0.1,2.5-0.3,3-1.3c0,0,0.4-0.4,0.5-2.8c0.1-2.5-0.2-5-0.2-5l2.4-0.1c0,0-0.2,1.8-0.2,5.1c0,3.3,0.3,5.3,0.3,5.3
		l-2.3,0.7l0-2.5l-1.1,1c0,0-0.6,0.7-2.1,1c-1.5,0.4-2.6,0.3-3.3,0.2c-0.7-0.1-1.3-0.3-1.7-0.5c-0.4-0.2-1-0.5-1.6-1.5
		c-0.4-0.6-0.4-1.9-0.4-1.9l0-2.6L7.2,34.8L7.2,34.8z"/>
	<polygon fill="#FFFFFF" points="15.6,34 10.4,28.8 11.6,27.6 16.8,32.9 15.6,34 15.6,34 	"/>
	<polygon fill="#FFFFFF" points="11.4,34 10.3,32.9 15.5,27.7 16.7,28.8 11.4,34 11.4,34 	"/>
	<polygon fill="#FFFFFF" points="15.7,41.9 10.4,36.7 11.6,35.6 16.8,40.8 15.7,41.9 15.7,41.9 	"/>
	<polygon fill="#FFFFFF" points="11.4,42 10.3,40.8 15.5,35.6 16.7,36.7 11.4,42 11.4,42 	"/>
	<polygon fill="#FFFFFF" points="15.6,52.5 10.4,47.3 11.6,46.1 16.8,51.4 15.6,52.5 15.6,52.5 	"/>
	<polygon fill="#FFFFFF" points="11.4,52.5 10.3,51.4 15.5,46.2 16.6,47.3 11.4,52.5 11.4,52.5 	"/>
	<path fill="#1D1D1B" d="M164.7,34l-2.1-5.4h0l-1.8,5.4H164.7L164.7,34z M160.5,34.8l-0.8,2.7c-0.2,0.5-0.2,0.9-0.2,1.2
		c0,0.6,0.9,0.8,1.4,0.8c0.2,0,0.2,0.1,0.2,0.4c0,0.2,0,0.3-0.2,0.3c-0.4,0-1.8-0.1-2.3-0.1c-0.5,0-1.3,0.1-1.9,0.1
		c-0.4,0-0.4-0.1-0.4-0.3v-0.2c0-0.1,0.2-0.1,0.6-0.2c1-0.1,1.1-0.3,1.5-1.3l3.7-10.8c0.4-0.3,0.8-0.8,1.2-0.9l4.7,11.9
		c0.3,0.8,0.7,1.2,1.7,1.2c0.2,0,0.2,0.2,0.2,0.4c0,0.2-0.1,0.2-0.4,0.2c-0.3,0-1.5-0.1-2.2-0.1c-0.8,0-1.5,0-2.3,0.1
		c-0.3,0-0.3-0.1-0.3-0.3c0-0.2,0.1-0.3,0.4-0.3c0.3,0,1.2-0.1,1.2-0.5c0-0.2-0.1-0.5-0.3-1.1l-1.2-3H160.5L160.5,34.8z"/>
	<path fill="#1D1D1B" d="M179,30c0.4,0,0.9,0,1.3,0c0.4,0,0.7,0,1.1,0c0.2,0,0.3,0.1,0.3,0.1v0.2c0,0.1,0,0.2-0.1,0.2
		c-0.1,0-0.3,0-0.4,0c-0.8,0-0.8,0.4-0.8,1.3c0,0.8,0.2,6.1,0.2,6.9c0,0.4,0.2,0.8,0.8,0.8c0.6,0,0.6,0,0.6,0.2
		c0,0.2-0.1,0.3-0.1,0.3c-0.7,0-1.3-0.1-1.9-0.1c-0.6,0-1.2,0.1-1.8,0.1c-0.1,0-0.1-0.1-0.1-0.1v-0.1c0-0.1,0.1-0.2,0.8-0.2
		c0.3,0,0.5-0.3,0.5-0.8c0-1.5-0.1-4.8-0.1-7.2c-0.1,0,0,0,0,0c-0.8,1.6-1.8,4-2.3,5.2l-1.3,3.5c0,0-0.1,0.1-0.1,0.1
		c-0.1,0-0.1-0.1-0.2-0.3c-0.1-0.4-0.2-0.7-0.4-1l-2.7-6.5c-0.1-0.2-0.2-0.4-0.2-0.4c-0.1,0-0.1,0.3-0.1,0.4c0,1.1-0.2,5.4-0.2,6.1
		c0,0.6,0,1,1.2,1c0.1,0,0.1,0.1,0.1,0.2c0,0.1,0,0.2-0.1,0.2c-0.2,0-0.9-0.1-1.6-0.1c-0.8,0-1.6,0.1-1.8,0.1c0,0-0.1,0-0.1-0.1
		v-0.2c0-0.1,0.1-0.1,0.3-0.1c1.2,0,1.3-0.4,1.3-1.6c0-0.7,0.2-5.9,0.2-6.4c0-0.7-0.4-1.1-1.6-1.1c0,0-0.1-0.1-0.1-0.2v-0.2
		c0-0.1,0-0.1,0.1-0.1c0.5,0,1,0.1,1.6,0.1c0.4,0,0.7-0.1,1.1-0.1c0.1,0,0.2,0.2,0.3,0.4l3,7.3h0.1L179,30L179,30z"/>
	<path fill="#1D1D1B" d="M184.5,34.9c-1-0.6-1.4-1.2-1.4-2.3c0-1.8,1.4-2.8,3.3-2.8c0.5,0,1.3,0.2,1.8,0.4l0.1,1.8v0.1
		c0,0.1-0.1,0.1-0.3,0.1c-0.2,0-0.2-0.1-0.2-0.2c-0.1-0.9-0.8-1.6-1.8-1.6c-1,0-1.7,0.7-1.7,1.6c0,1,0.6,1.4,2,2.2
		c1.4,0.7,2.6,1.4,2.6,3.1c0,1.9-1.7,2.9-3.5,2.9c-0.6,0-1.5-0.2-2.1-0.4c-0.1-0.1-0.2-0.2-0.2-0.6l-0.2-1.3c0-0.1,0.3-0.1,0.4-0.1
		c0,0,0.1,0,0.1,0.1c0.3,1.1,1.1,1.7,2.2,1.7c1,0,1.9-0.9,1.9-1.8c0-0.9-0.5-1.5-1.3-1.9L184.5,34.9L184.5,34.9z"/>
	<path fill="#1D1D1B" d="M194.8,38.5c0,1,0.7,1,1.6,1l0.1,0.1v0.2c0,0.2-0.1,0.2-0.3,0.2c-0.3,0-1-0.1-2-0.1c-0.8,0-2,0.1-2.3,0.1
		c0-0.1-0.1-0.2-0.1-0.3c0,0,0-0.1,0.1-0.2l0.1-0.1h0.2c1.3,0,1.3-0.4,1.3-1.6v-6.7l0-0.6h-1.9c-1.1,0-1.2,0.7-1.5,1.6
		c0,0.1-0.1,0.1-0.2,0.1c-0.2,0-0.3-0.1-0.3-0.1c0-0.2,0.2-1.6,0.2-2.7c0-0.1,0.2-0.1,0.4-0.1c0.5,0.6,0.6,0.6,1.2,0.6h5.2
		c1,0,1.3-0.3,1.6-0.7c0.1,0,0.4,0,0.4,0.1c0,0.1-0.3,1.3-0.3,2.3c0,0.2,0,0.5-0.1,0.5c-0.1,0-0.5-0.1-0.5-0.1l-0.1-0.7
		c-0.1-0.7-0.4-0.7-1-0.7h-1.9V38.5L194.8,38.5z"/>
	<path fill="#1D1D1B" d="M201,31.5c0-0.9-0.7-1-1.5-1c-0.1,0-0.1-0.1-0.1-0.1v-0.2c0-0.1,0.2-0.1,0.7-0.1c0.6,0,1.2,0.1,1.8,0.1
		c0.6,0,1.1-0.1,1.7-0.1h3c0.1,0,0.1,0.1,0.1,0.3V32c0,0.1,0,0.1-0.1,0.1c-0.1,0-0.3,0-0.4-0.2l0-0.4c-0.1-0.9-0.7-1.1-1.5-1.1h-1.5
		c-0.8,0-1,0.2-1,1.2v2.6c0,0,0.1,0.1,0.1,0.1l1.7-0.1c0.8,0,1.1-0.3,1.3-1c0-0.1,0.1-0.1,0.2-0.1c0.1,0,0.2,0,0.2,0.1
		c0,0.3-0.1,0.9-0.1,1.4c0,0.8,0.1,1.2,0.1,1.4c0,0.1-0.1,0.2-0.2,0.2c-0.1,0-0.2,0-0.2-0.2c-0.1-0.4-0.1-0.6-0.1-0.8
		c-0.1-0.2-0.2-0.3-0.7-0.3l-2,0c-0.2,0-0.2,0.1-0.2,0.2v3.4c0,1,0.7,1,1.7,1h0.8c0.7,0,1.3,0,1.6-0.2c0.3-0.2,0.7-1,0.9-1.4
		c0.2,0,0.4,0,0.4,0.1c0,0,0,0.2-0.1,0.2l-0.4,1.4c-0.1,0.4-0.2,0.4-0.4,0.4c-1.5,0-3-0.1-5.1-0.1c-0.5,0-1.6,0.1-2.4,0.1
		c0,0-0.1-0.1-0.1-0.2c0-0.1,0-0.2,0.1-0.2c1.2-0.1,1.6-0.2,1.6-1.5V31.5L201,31.5z"/>
	<path fill="#1D1D1B" d="M211.5,34.6c0.2,0,0.4,0,0.5,0c1.1,0,2.5-0.4,2.5-2.1c0-1.2-0.8-2-2.1-2c-1,0-1,0.2-1,0.6V34.6L211.5,34.6z
		 M210.3,31.6c0-0.7,0-1.1-0.9-1.1h-0.6c-0.1,0-0.1-0.2-0.1-0.3c0-0.1,0-0.2,0.1-0.2c0.8,0,1.7,0,2.5,0c0.6,0,1.3,0,1.9,0
		c1.4,0,2.9,1,2.9,2.4c0,1.3-1.2,2.1-2.3,2.3v0c0.5,0.1,1.1,1.2,1.3,1.4l1.6,2.4c0.5,0.7,0.8,0.9,1.7,0.9l0.1,0.1v0.3
		c0,0.1-0.1,0.1-0.2,0.1c-0.3,0-0.7,0-0.9,0c-0.3,0-0.7,0-1,0c-0.3,0-1-0.9-1.8-2.4c-0.9-1.6-1.5-2.5-2.4-2.5c-0.1,0-0.3,0-0.5,0
		v3.5c0,0.5,0,1,0.7,1c0.5,0,0.8,0,0.8,0.1c0,0.3,0,0.4-0.3,0.4c-0.7,0-1.3-0.1-1.9-0.1c-0.2,0-1.8,0.1-2,0.1
		c-0.1,0-0.1-0.2-0.1-0.3c0-0.1,0.1-0.2,0.3-0.2c1,0,1.2-0.2,1.2-1.2V31.6L210.3,31.6z"/>
	<path fill="#1D1D1B" d="M221.7,38c0,1.6,1.6,1.6,2.2,1.6c1.9,0,4-1.6,4-4.5c0-2.5-1.4-3.8-2.3-4.3c-0.7-0.3-1.6-0.4-2.2-0.4
		c-1.2,0-1.7,0.1-1.7,1V38L221.7,38z M220.4,31.7c0-0.5-0.1-1.1-0.6-1.1c-0.2,0-0.6,0.1-0.9,0.1c-0.1,0-0.1-0.2-0.1-0.3
		c0-0.1,0-0.1,0.2-0.2c0.9-0.2,3.2-0.4,4.4-0.4c0.8,0,1.5,0.1,2.2,0.3c1.9,0.5,3.7,2.2,3.7,4.8c0,3.5-2.9,5.1-5.6,5.1
		c-1.3,0-2-0.1-2.7-0.1c-0.7,0-1.4,0-2.1,0.1c-0.1,0-0.1-0.1-0.1-0.2c0-0.1,0.1-0.2,0.1-0.2c0.5-0.1,0.8-0.1,1.1-0.3
		c0.2-0.1,0.4-0.4,0.4-0.8V31.7L220.4,31.7z"/>
	<path fill="#1D1D1B" d="M234.6,35.5l-1.6-4h0l-1.3,4H234.6L234.6,35.5z M231.5,36l-0.6,2c-0.1,0.4-0.2,0.7-0.2,0.9
		c0,0.5,0.7,0.6,1,0.6c0.1,0,0.2,0.1,0.2,0.3c0,0.1,0,0.2-0.1,0.2c-0.3,0-1.4-0.1-1.7-0.1c-0.4,0-1,0.1-1.4,0.1
		c-0.3,0-0.3,0-0.3-0.2v-0.2c0-0.1,0.1-0.1,0.5-0.1c0.7-0.1,0.8-0.2,1.1-1l2.8-8.1c0.3-0.2,0.6-0.6,0.9-0.7l3.5,8.9
		c0.2,0.6,0.5,0.9,1.3,0.9c0.2,0,0.2,0.2,0.2,0.3c0,0.2-0.1,0.2-0.3,0.2c-0.2,0-1.1-0.1-1.7-0.1c-0.6,0-1.1,0-1.7,0.1
		c-0.2,0-0.2,0-0.2-0.2c0-0.2,0.1-0.2,0.3-0.2c0.2,0,0.9,0,0.9-0.4c0-0.1-0.1-0.3-0.3-0.8l-0.9-2.3H231.5L231.5,36z"/>
	<path fill="#1D1D1B" d="M248.2,30c0.4,0,0.9,0,1.3,0c0.4,0,0.7,0,1.1,0c0.2,0,0.3,0.1,0.3,0.1v0.2c0,0.1,0,0.2-0.1,0.2
		c-0.1,0-0.3,0-0.4,0c-0.8,0-0.8,0.4-0.8,1.3c0,0.8,0.2,6.1,0.2,6.9c0,0.4,0.2,0.8,0.8,0.8c0.6,0,0.6,0,0.6,0.2
		c0,0.2-0.1,0.3-0.1,0.3c-0.7,0-1.3-0.1-1.9-0.1c-0.6,0-1.2,0.1-1.8,0.1c-0.1,0-0.1-0.1-0.1-0.1v-0.1c0-0.1,0.1-0.2,0.8-0.2
		c0.3,0,0.5-0.3,0.5-0.8c0-1.5-0.1-4.8-0.1-7.2c-0.1,0,0,0,0,0c-0.8,1.6-1.8,4-2.3,5.2l-1.3,3.5c0,0-0.1,0.1-0.1,0.1
		c-0.1,0-0.1-0.1-0.2-0.3c-0.1-0.4-0.2-0.7-0.4-1l-2.7-6.5c-0.1-0.2-0.2-0.4-0.2-0.4c-0.1,0-0.1,0.3-0.1,0.4c0,1.1-0.2,5.4-0.2,6.1
		c0,0.6,0,1,1.2,1c0.1,0,0.1,0.1,0.1,0.2c0,0.1,0,0.2-0.1,0.2c-0.2,0-0.9-0.1-1.7-0.1c-0.8,0-1.6,0.1-1.8,0.1c0,0-0.1,0-0.1-0.1
		v-0.2c0-0.1,0.1-0.1,0.3-0.1c1.2,0,1.3-0.4,1.3-1.6c0-0.7,0.2-5.9,0.2-6.4c0-0.7-0.4-1.1-1.6-1.1c0,0-0.1-0.1-0.1-0.2v-0.2
		c0-0.1,0-0.1,0.1-0.1c0.5,0,1,0.1,1.6,0.1c0.3,0,0.7-0.1,1.1-0.1c0.1,0,0.2,0.2,0.3,0.4l3,7.3h0.1L248.2,30L248.2,30z"/>
	<path fill="#1D1D1B" d="M142.6,35c0-2.4-1.6-4.8-4.1-4.8c-2.6,0-3.9,2-3.9,4.4c0,2.4,1.5,4.9,4.1,4.9
		C141.2,39.6,142.6,37.5,142.6,35L142.6,35z M133.1,35.2c0-2.9,2.5-5.3,5.4-5.3c3,0,5.6,2,5.6,4.9c0,2.8-2.7,5.4-5.5,5.4
		C135.6,40.1,133.1,38.2,133.1,35.2L133.1,35.2z"/>
	<path fill="#1D1D1B" d="M145.8,31.6c0-0.9-0.1-1-1-1h-0.2c-0.3,0-0.4,0-0.4-0.1c0-0.1,0-0.4,0.2-0.4h5.8c0.5,0,1-0.1,1.4-0.1
		c0.1,0,0.2,0,0.2,0.1l0.1,1.6c0,0.1,0,0.2,0,0.3c0,0.1-0.1,0.1-0.3,0.1h-0.2c0-0.2-0.1-0.3-0.1-0.5l-0.1-0.4
		c-0.2-0.6-0.6-0.6-1-0.6h-2c-1,0-1.1,0.3-1.1,1.4v2.5h2.1c1.2,0,1.5-0.3,1.5-1.1c0.1,0,0.3-0.1,0.4-0.1c0.1,0,0.1,0,0.1,0.1
		c0,0.1-0.1,0.3-0.1,1.3c0,0.4,0.1,1.1,0.1,1.4c0,0.1-0.1,0.2-0.3,0.2c-0.1,0-0.2-0.1-0.2-0.4c-0.1-0.6-0.4-1.1-1.6-1.1h-2v3.7
		c0,0.5,0.1,0.8,0.8,0.9l0.7,0.1c0.1,0,0.1,0.1,0.1,0.2c0,0.1,0,0.3-0.2,0.3c-1.1,0-1.5-0.1-2.2-0.1c-0.6,0-1.6,0.1-2,0.1
		c-0.1,0-0.1-0.1-0.1-0.3c0-0.1,0-0.2,0.1-0.2l0.6,0c0.7-0.1,0.9-0.2,0.9-1.1V31.6L145.8,31.6z"/>
	<path fill="#1D1D1B" d="M36.5,28.8c0-1.5-0.9-1.5-1.9-1.5l-0.1-0.1v-0.3c0-0.2,0.1-0.2,0.3-0.2c0.5,0,1.7,0.1,2.6,0.1
		c0.9,0,1.9-0.1,2.8-0.1l0.1,0.1v0.5l-0.1,0.1h-0.2c-1.2,0-1.8,0.1-1.8,1.5v5.4c0,2.7,0.5,4.8,3.8,4.8c3.4,0,4.5-1.6,4.5-4.8v-4.9
		c0-2.1,0-2-1.7-2.1l-0.1-0.2v-0.4l0.1-0.1c0.3,0,0.7,0.1,2.1,0.1c0.8,0,1.8-0.1,2.4-0.1l0.1,0.1v0.4l-0.1,0.1c-1.4,0-1.9,0.1-1.9,1
		v6.7c0,3.4-2,5.2-5.4,5.2c-2.7,0-5.4-1-5.4-4.1V28.8L36.5,28.8z"/>
	<path fill="#1D1D1B" d="M50.4,31.8c0-0.3,0-0.4-0.1-0.5c-0.1-0.2-0.7-0.7-1-0.8l-0.7,0c-0.1,0-0.1-0.1-0.1-0.3c0-0.1,0-0.2,0.1-0.2
		c0.4,0,0.8,0,1.1,0c0.6,0,1.7,0.1,1.9,0.1l4.3,5.1c0.6,0.8,1.3,1.5,2.3,2.5h0.1v-6.2c0-0.9-0.3-1.1-0.8-1.1l-0.6,0
		c-0.1,0-0.1-0.1-0.1-0.2c0-0.1,0-0.2,0.1-0.2c0.3,0,1,0.1,1.7,0.1c0.6,0,1.3-0.1,1.7-0.1c0.1,0,0.1,0.1,0.1,0.1v0.3
		c0,0.1,0,0.1-0.1,0.1h-0.4c-1,0-1,0.5-1,1.7v8.1h-0.3L51,31.6v6.5c0,1.2,0.2,1.3,1.4,1.4c0.1,0,0.1,0.1,0.1,0.2
		c0,0.1,0,0.2-0.1,0.2c-0.3,0-1.2-0.1-1.8-0.1c-0.7,0-1,0.1-1.6,0.1c-0.1,0-0.1-0.1-0.1-0.3c0-0.1,0-0.2,0.2-0.2
		c0.6,0,1.3-0.1,1.3-0.9V31.8L50.4,31.8z"/>
	<path fill="#1D1D1B" d="M64.1,37.4c0,2.1,0,2.1,1.4,2.1l0.1,0.1v0.3c0,0.1-0.2,0.1-0.3,0.1c-0.2,0-1.1-0.1-1.7-0.1
		c-0.7,0-1.4,0.1-2.1,0.1c-0.1,0-0.1-0.1-0.1-0.3c0-0.2,0-0.2,0.4-0.2c1,0,1-0.2,1-1.3v-6.7c0-0.8-0.2-1-1.4-1l0-0.1l0-0.2
		c0-0.2,0.1-0.2,0.2-0.2c0.4,0,0.8,0.1,1.8,0.1c0.7,0,1.5-0.1,2.1-0.1l0.1,0.1v0.3l-0.1,0.1l-0.4,0c-0.6,0-1,0.1-1,0.7V37.4
		L64.1,37.4z"/>
	<path fill="#1D1D1B" d="M67.5,31c-0.2-0.4-0.7-0.5-1.1-0.5l-0.1-0.1v-0.4l0.2,0c0.6,0,1.4,0.1,1.8,0.1c0.6,0,1.3-0.1,1.9-0.1l0,0
		l0,0.4l-0.7,0.1c-0.2,0-0.5,0.1-0.5,0.3c0,0.1,0.1,0.3,0.1,0.4l1.6,4.2l0.9,2.1c0.1,0.2,0.1,0.3,0.2,0.3c0,0,0.1-0.1,0.1-0.2l2-5.3
		c0.2-0.6,0.4-1.1,0.4-1.3c0-0.2-0.1-0.4-0.5-0.4l-0.7-0.1l-0.1,0V30c0.5,0,1.1,0.1,1.6,0.1c0.4,0,1.4-0.1,1.5-0.1l0.1,0.1v0.3
		l-0.1,0.1l-0.4,0c-0.3,0-0.4,0.2-0.6,0.6c-1.3,3.2-1.7,4.2-2.7,7l-0.7,1.8c-0.1,0.2-0.1,0.2-0.2,0.2c-0.1,0-0.2,0-0.2-0.1L67.5,31
		L67.5,31z"/>
	<path fill="#1D1D1B" d="M78.5,31.5c0-0.9-0.7-1-1.5-1c-0.1,0-0.1-0.1-0.1-0.1v-0.2c0-0.1,0.2-0.1,0.7-0.1c0.6,0,1.2,0.1,1.8,0.1
		c0.6,0,1.1-0.1,1.7-0.1h3c0.1,0,0.1,0.1,0.1,0.3V32c0,0.1,0,0.1-0.1,0.1c-0.1,0-0.3,0-0.4-0.2l0-0.4c-0.1-0.9-0.7-1.1-1.5-1.1h-1.4
		c-0.8,0-1,0.2-1,1.2v2.5c0,0,0.1,0.1,0.1,0.1l1.7-0.1c0.8,0,1.1-0.3,1.3-1c0-0.1,0.1-0.1,0.2-0.1c0.1,0,0.2,0,0.2,0.1
		c0,0.3-0.1,0.9-0.1,1.4c0,0.8,0.1,1.2,0.1,1.4c0,0.1-0.1,0.2-0.2,0.2c-0.1,0-0.2,0-0.2-0.2c-0.1-0.4-0.1-0.6-0.1-0.8
		c-0.1-0.2-0.2-0.3-0.7-0.3l-2,0c-0.2,0-0.2,0.1-0.2,0.2v3.4c0,1,0.7,1,1.7,1h0.8c0.7,0,1.3,0,1.6-0.2c0.3-0.2,0.7-1,0.9-1.4
		c0.2,0,0.4,0,0.4,0.1c0,0,0,0.2-0.1,0.2l-0.4,1.4C84.6,40,84.5,40,84.3,40c-1.5,0-3-0.1-5.1-0.1c-0.5,0-1.6,0.1-2.4,0.1
		c0,0-0.1-0.1-0.1-0.2c0-0.1,0-0.2,0.1-0.2c1.2-0.1,1.6-0.2,1.6-1.5V31.5L78.5,31.5z"/>
	<path fill="#1D1D1B" d="M89,34.5c0.2,0,0.4,0,0.5,0c1.1,0,2.5-0.4,2.5-2.1c0-1.2-0.8-2-2.1-2c-1,0-1,0.2-1,0.6V34.5L89,34.5z
		 M87.8,31.5c0-0.7,0-1.1-0.9-1.1h-0.6c-0.1,0-0.1-0.2-0.1-0.3c0-0.1,0-0.2,0.1-0.2c0.8,0,1.6,0,2.5,0c0.6,0,1.3,0,1.9,0
		c1.4,0,2.8,1,2.8,2.4c0,1.3-1.2,2.1-2.3,2.3v0c0.5,0.1,1.1,1.2,1.3,1.4l1.5,2.4c0.5,0.7,0.8,0.9,1.7,0.9l0.1,0.1v0.3
		c0,0.1-0.1,0.1-0.2,0.1c-0.3,0-0.7,0-0.9,0c-0.3,0-0.7,0-1,0c-0.3,0-1-0.9-1.8-2.4C91,35.9,90.4,35,89.5,35c-0.1,0-0.3,0-0.5,0v3.4
		c0,0.5,0,1,0.7,1c0.5,0,0.8,0,0.8,0.1c0,0.3,0,0.4-0.3,0.4c-0.7,0-1.3-0.1-1.9-0.1c-0.2,0-1.8,0.1-2,0.1c-0.1,0-0.1-0.2-0.1-0.3
		c0-0.1,0.1-0.2,0.3-0.2c1,0,1.2-0.2,1.2-1.2V31.5L87.8,31.5z"/>
	<path fill="#1D1D1B" d="M98,34.8c-1-0.6-1.4-1.2-1.4-2.3c0-1.8,1.4-2.7,3.3-2.7c0.5,0,1.3,0.2,1.8,0.4l0.1,1.8V32
		c0,0.1-0.1,0.1-0.3,0.1c-0.2,0-0.2-0.1-0.2-0.2c-0.1-0.9-0.8-1.5-1.8-1.5c-1,0-1.7,0.7-1.7,1.6c0,1,0.6,1.4,2,2.2
		c1.4,0.7,2.6,1.4,2.6,3.1c0,1.9-1.7,2.9-3.5,2.9c-0.6,0-1.5-0.2-2.1-0.4c-0.1-0.1-0.2-0.2-0.2-0.5l-0.2-1.3c0-0.1,0.3-0.1,0.4-0.1
		c0,0,0.1,0,0.1,0.1c0.3,1.1,1.1,1.7,2.2,1.7c1,0,1.9-0.9,1.9-1.8c0-0.9-0.5-1.5-1.3-1.9L98,34.8L98,34.8z"/>
	<path fill="#1D1D1B" d="M106.3,37.4c0,2.1,0,2.1,1.4,2.1l0.1,0.1v0.3c0,0.1-0.2,0.1-0.3,0.1c-0.2,0-1.1-0.1-1.7-0.1
		c-0.7,0-1.4,0.1-2.1,0.1c-0.1,0-0.1-0.1-0.1-0.3c0-0.2,0-0.2,0.4-0.2c1,0,1-0.2,1-1.3v-6.7c0-0.8-0.2-1-1.4-1l0-0.1l0-0.2
		c0-0.2,0.1-0.2,0.2-0.2c0.4,0,0.8,0.1,1.8,0.1c0.7,0,1.5-0.1,2.1-0.1l0.1,0.1v0.3l-0.1,0.1l-0.4,0c-0.6,0-1,0.1-1,0.7V37.4
		L106.3,37.4z"/>
	<path fill="#1D1D1B" d="M113.8,38.5c0,1,0.7,1,1.6,1l0.1,0.1v0.2c0,0.2-0.1,0.2-0.3,0.2c-0.3,0-1-0.1-2-0.1c-0.8,0-2,0.1-2.3,0.1
		c0-0.1-0.1-0.2-0.1-0.3c0,0,0-0.1,0.1-0.2l0.1-0.1h0.2c1.3,0,1.3-0.4,1.3-1.6v-6.7l0-0.6h-1.9c-1.1,0-1.2,0.7-1.5,1.6
		c0,0.1-0.1,0.1-0.2,0.1c-0.2,0-0.3-0.1-0.3-0.1c0-0.2,0.2-1.5,0.2-2.7c0-0.1,0.2-0.1,0.4-0.1c0.5,0.6,0.6,0.6,1.2,0.6h5.2
		c1,0,1.3-0.3,1.6-0.7c0.1,0,0.4,0,0.4,0.1c0,0.1-0.3,1.3-0.3,2.3c0,0.2,0,0.5-0.1,0.5c-0.1,0-0.5-0.1-0.5-0.1l-0.1-0.7
		c-0.1-0.7-0.4-0.7-1-0.7h-1.9V38.5L113.8,38.5z"/>
	<path fill="#1D1D1B" d="M122.5,35.5c0-0.1,0-0.3-0.2-0.6l-3.2-4.3c-0.1-0.1-0.2-0.2-0.5-0.2l-0.5,0l-0.1,0V30l0.1,0l0.2,0
		c0.2,0,1.8,0.1,2,0.1c0.4,0,0.9-0.1,1.4-0.1c0.3,0,0.5,0,0.5,0.1v0.2c0,0.1,0,0.2-0.1,0.2l-0.8,0c-0.2,0-0.3,0.1-0.3,0.2
		c0,0.1,0.1,0.2,0.2,0.4l2,2.8c0.1,0.2,0.2,0.3,0.4,0.4c0.3-0.3,1.5-2,2.1-2.9c0.2-0.3,0.4-0.6,0.4-0.7c0-0.2-0.1-0.3-0.5-0.3
		l-0.7,0c0,0,0-0.2,0-0.3c0-0.1,0-0.2,0.1-0.2c0.6,0.1,1.2,0.1,1.8,0.1c0.4,0,1-0.1,1.2-0.1L128,30v0.3l-0.1,0.1l-0.5,0
		c-0.5,0-1,1-1.3,1.4l-2.4,3.2v3.3c0,0.3,0,0.6,0,0.6c0.1,0.3,0.5,0.5,1,0.5h0.4l0.1,0.1v0.4l-0.1,0H125c-0.6,0-1.2-0.1-1.9-0.1
		c-0.6,0-1.3,0.1-1.9,0.1H121l-0.1,0v-0.2c0-0.1,0-0.2,0.1-0.2l0.7-0.1c0.4,0,0.7-0.2,0.7-0.9V35.5L122.5,35.5z"/>
</g>
</svg>
