<?xml version="1.0" encoding="utf-8"?>
<!-- Generator: Adobe Illustrator 18.1.1, SVG Export Plug-In . SVG Version: 6.00 Build 0)  -->
<svg version="1.1" id="Layer_1" xmlns="http://www.w3.org/2000/svg" xmlns:xlink="http://www.w3.org/1999/xlink" x="0px" y="0px"
	 width="214.2px" height="80px" viewBox="0 0 214.2 80" enable-background="new 0 0 214.2 80" xml:space="preserve">
<g>
	<polygon fill="#1D1D1B" points="12.3,61.1 0,27.7 7.4,27.7 17,53.5 26.3,27.7 31.2,27.7 19.3,61.1 12.3,61.1 	"/>
	<path fill="#1D1D1B" d="M35.3,48.2c0,3.9,0.6,6.7,1.7,8.4c1.2,1.8,2.7,3.1,4.7,4c2,0.9,4.4,1.3,7.1,1.3c2.8,0,5.1-0.5,7-1.4
		c1.8-1,3.2-2.3,4.2-4c1-1.7,1.5-4.4,1.5-8.3V27.7h-6v20.9c0,3.4-0.6,5.7-1.7,6.9c-1.2,1.2-2.7,1.8-4.7,1.8c-2,0-3.6-0.6-4.9-1.8
		c-1.3-1.2-1.9-3.7-1.9-7.4V27.7h-6.9V48.2L35.3,48.2z"/>
	<path fill="#0F88CA" d="M71,52.9v0.9l0.3-0.2c-0.1-0.2-0.1-0.5-0.2-0.7L71,52.9L71,52.9z M75.4,43.1c0,0.1,0.1,0.3,0.3,0.3
		c0.1,0,0.3-0.1,0.3-0.3c0-0.1-0.1-0.3-0.3-0.3C75.5,42.8,75.4,43,75.4,43.1 M91.9,51.2c-0.4-1.1-1.5-1.8-2.9-1.7
		c-0.8-1.5-2.1-0.8-2.5-0.4c0.4,0.4,0.7,0.5,1.2,0.6V50c-0.9,0-1.2-0.4-1.8-1.1c-0.3,2.2,2.3,3,3.1,1.2c1.2,0,1.9,0.5,2.2,1.3
		c0.3,0.8,0,1.6-0.4,2c-0.7,0.9-1.9,0.9-3,0.3c-0.7-0.3-1.4-1-2-1.7c-0.9-1-1.4-1.5-2.1-1.8c-0.4-0.2-0.8-0.3-1.1-0.3
		c-0.2,0-0.4-0.1-0.7-0.1c-0.2,0-0.4,0-0.6,0.1c-1.6,0.2-3.2,0.9-5.1,1.1h-1c-0.6,0.6-1.2,1.1-1.7,1.5l-1.2,1c0,0,0,0,0,0
		c-0.5,0.5-0.8,0.7-0.8,0.7c0.1,1.1,0.2,1.7,0.2,2.7c0,0.8,0,1.3,0,1.6c0,0.4-0.1,0.7-0.2,1c-0.1,0.3-0.3,0.5-0.7,0.5
		c-0.3,0.1-1.1-0.5-1.4-0.1c-0.2,0.3,0,1,0.3,1.2h2.2c0.3-0.6,0.4-0.9,0.5-1.2c0.2-0.3,0.3-0.7,0.5-0.9c0.2-0.3,0.3-0.6,0.4-0.9
		c0-0.3,0.1-0.5,0.2-0.7c0.2-0.4,0.4-0.8,0.5-1c0-0.1,0.1-0.1,0.1-0.2c0.1,0.1,0.2,0.3,0.3,0.4c0.5,0.8,1,1.4,1.7,1.7
		c0.3,0.1,0.5,0.3,0.6,0.4c0.1,0.1,0.1,0.4,0.1,0.7c0,0.3-0.1,0.6-0.4,0.7c-0.5,0.2-1.2-0.5-1.5-0.1c-0.3,0.3,0,0.8,0.3,1.2h2
		c0.5-0.8,0.7-1.8,0.7-2.7c0-0.9,0-1.1-0.6-1.4c-0.2-0.1-0.4-0.6-0.5-1c0-0.1,0-0.1,0-0.3c0.9-0.3,2-0.9,3.1-1.7c0,0.1,0,0.3,0,0.5
		c0.2,1.3,0.3,2.4,1.3,3.3c0.3,0.3,0.5,0.5,0.5,0.7c0,0.1-0.1,0.5-0.3,0.7c-0.2,0.5-0.7,0.9-1.1,0.9c-0.5,0.1-1-0.6-1.4-0.2
		c-0.3,0.3,0.1,1,0.3,1.2h2c0.7-1.2,1.6-2.2,1.9-2.9c0.2-0.5,0.2-0.7-0.2-0.8c-0.7-0.4-0.6-1.2-0.4-2.1c0-0.2,0.1-0.3,0.2-0.5
		c0.5,1.4,1.2,2.7,2.7,3.1c0.3,0,0.6,0.2,0.7,0.3c0,0.1,0,0.4,0,0.6c-0.1,0.4-0.3,1-0.7,1.2c-0.4,0.3-1.3-0.7-1.6-0.1
		c-0.2,0.4,0.2,1,0.3,1.2h2c0.5-1.2,1-2.3,1.2-3.1c0.1-0.9,0.1-1.3-0.6-1.4c-0.4,0-0.7-0.2-0.8-0.7c-0.3-0.9-0.2-2.5-0.9-3.5
		c0.8,0.9,1.6,1.6,2.3,2c1.7,0.9,3.5,0.6,4.3-0.6C92.1,52.9,92.1,51.9,91.9,51.2 M83,41c2.8-2.2,11.6-8.2,18-10.5
		C93.4,32.4,87.4,36.8,83,41 M70.5,38.8c1.2-3.8,3.1-10.6,6.4-15.6C74.6,25.8,71.2,31.3,70.5,38.8 M73.7,39.9
		c0.2-0.8,0.7-2.4,1.6-4.2c-1,1.3-1.5,2.3-2,3.6C73.5,39.4,73.7,39.6,73.7,39.9 M108.8,27.9c0.5,0,1,0,0.8,0.7c0,0.5-0.2,0.7-1,0.9
		c-2.4,0.4-3.4,0.9-7,2.4c1.7-0.5,3.2-0.8,4-0.8c0.4,0,0.6,0,0.6,0.4c0,0.5-0.3,0.8-0.7,0.9c-2.1,0.7-4.9,2-7.5,3.1
		c2.7-0.8,4-0.8,4.6-0.8c0.4-0.1,0.9-0.1,0.7,0.6c-0.1,0.6-0.3,0.8-1.3,1.1c-3.9,1-6.4,2-10.7,4.2c4.6-1.3,7.6-1.5,9.6-1.6
		c1,0,1.4,0,1.3,0.6c0,0.5-0.1,0.8-1,1c-2.8,0.8-6.3,1.5-9.2,2.7c1.3-0.2,2.6-0.4,3.3-0.3c0.6,0.1,0.9,0.2,0.8,0.7
		c-0.1,0.6-0.5,0.9-1.2,1c-2.5,0.2-3.3,0.5-6.3,1.4c0.6,0,0.6,0.4,0.3,0.7c-0.3,0.4-0.7,0.7-1.2,0.7c-0.9,0-2.8,0.1-4.2,1
		c-0.8,0.6-1.2-0.8-0.8-1.3c1.1-1.2,4.4-3,6.1-4.2c-3.3,1.6-6.4,3-9.3,5.7c-1,0.9-1.5,0.5-1.6,0.1c-0.1-0.5-0.1-0.8-0.6-0.5
		c-0.4,0.2-0.6,0.4-1.3,1l0,0L75.2,50v0L71,53.8v-0.9l3.3-3V49l-1.9,1.7v-0.9l2.8-2.5v-2.4l2.3-0.2l-1.8-0.6c1-0.8,1.9-0.2,2.2,0.1
		c0-0.1,0.1-0.8-0.5-1.2c-0.3-0.1-0.6-0.3-1.2-0.2c-0.8-0.7-1.7-0.3-2.1,0.1c-0.7-0.9-1.6-1-1.6-1l0.7,1.5L72,43l0.9,1.2
		c-0.5,0.8-1.1,1.8-1.6,3.6c-0.2,0.7-0.4,2.1-0.4,3.4c0,0.1,0,0.2,0,0.3c-1.1-2.5-2.3-6.5-2.3-11.2c0-3,0.5-7.3,2.7-11.9
		c2.3-4.9,5.1-7.6,7.2-9.5c1-0.9,1.5-1.2,2.1-1.3c0.4,0,0.7,0.1,0.9,0.6c0.3,1,0.2,1.1,0,1.5c-0.6,1-2.4,3-3.3,5.6
		c1.9-2.2,1.8-2,3-3.1c0.3-0.3,0.8-0.6,1,0c0.3,0.7,0.3,0.8-0.1,1.4c-0.3,0.5-1.8,1.9-3.4,4.9c0.8-0.9,1.2-1.4,1.4-1.5
		c0.3-0.3,0.6-0.7,1-0.1c0.5,0.7,0.2,0.7,0,1.2c-0.1,0.4-1.7,2.9-2.8,5c0.8-0.9,0.9-1.1,1.3-1.3c0.2-0.1,0.4,0,0.5,0.3
		c0.1,0.3,0.1,0.8,0,1c-1,2.1-1.6,2.4-2.7,6.1c0.9-1.1,1-1.2,1.4-1.7c0.3-0.2,0.7-0.6,1,0c0.2,0.3,0.3,0.7,0.1,1.3
		c-0.5,1.2-0.6,1.4-1.6,3.5c0.3-0.1,0.4,0,0.6,0.3c0.8-1,1.7-1.9,2.4-2.6c2.7-2.8,5.2-5,9-7.5c4.3-2.9,7.9-4.6,10.4-5.6
		c1.3-0.4,2.3-0.8,2.8-0.8c0.5-0.1,0.9,0,0.9,0.4c0,0.4-0.1,0.7-0.3,0.8c-0.7,0.4-1.2,0.6-3,1.5C103.8,28.1,107.3,27.7,108.8,27.9"
		/>
	<polygon fill="#0F88CA" points="171.3,61.1 171.3,53.9 173.3,53.9 175,58.9 176.8,53.9 178.5,53.9 178.5,61.1 177.1,61.1 
		177.1,55.7 175.4,60.6 174.2,60.6 172.5,55.6 172.5,61.1 171.3,61.1 	"/>
	<path fill="#0F88CA" d="M170.6,61.1l-2.8-7.1h-1.5l-2.8,7.1h1.1l0.7-1.9h3l0.7,1.9H170.6L170.6,61.1z M167.9,58.2h-2.2l1.1-2.8
		L167.9,58.2L167.9,58.2z"/>
	<path fill="#0F88CA" d="M163.4,57.3c0-0.7-0.1-1.3-0.4-1.9c-0.3-0.5-0.6-0.9-1.1-1.2c-0.5-0.3-1.1-0.4-1.9-0.4h-3.1v7.1h2.9
		c0.9,0,1.5-0.2,2-0.5c0.5-0.3,0.9-0.8,1.1-1.3C163.2,58.7,163.4,58.1,163.4,57.3 M161.8,57.4c0,0.5-0.1,1-0.3,1.4
		c-0.2,0.4-0.4,0.7-0.7,0.9c-0.3,0.2-0.8,0.3-1.3,0.3h-1.1v-5.1h0.9c0.7,0,1.2,0.1,1.6,0.3c0.3,0.2,0.5,0.5,0.7,0.9
		C161.7,56.5,161.8,56.9,161.8,57.4"/>
	<path fill="#0F88CA" d="M154.8,56.9c0.2-0.4,0.4-0.8,0.4-1.2c0-0.3-0.1-0.7-0.2-0.9c-0.2-0.3-0.4-0.5-0.7-0.6
		c-0.3-0.1-0.7-0.2-1.3-0.2h-2.7v7.1h1.4v-2.9h0.8l1.8,2.9h1.8l-2.3-3.3C154.2,57.5,154.5,57.3,154.8,56.9 M153.7,55.9
		c0,0.3-0.1,0.6-0.4,0.9c-0.2,0.3-0.7,0.4-1.3,0.4h-0.3v-2.3h0.5c0.6,0,1,0.1,1.2,0.3C153.6,55.3,153.7,55.6,153.7,55.9"/>
	<polygon fill="#0F88CA" points="144.4,61.1 144.4,53.9 148.9,53.9 148.9,54.9 145.8,54.9 145.8,56.9 148.4,56.9 148.4,57.9 
		145.8,57.9 145.8,60.1 149.2,60.1 149.2,61.1 144.4,61.1 	"/>
	<polygon fill="#0F88CA" points="139.7,61.1 139.7,54.9 137.2,54.9 137.2,53.9 143.8,53.9 143.8,54.9 141.2,54.9 141.2,61.1 
		139.7,61.1 	"/>
	<path fill="#0F88CA" d="M132.4,59.8c0.6,0.2,1,0.4,1.2,0.4c0.3,0,0.5,0.1,0.8,0.1c0.4,0,0.7-0.1,0.9-0.3c0.2-0.2,0.3-0.4,0.3-0.7
		c0-0.2-0.1-0.4-0.2-0.5c-0.1-0.2-0.4-0.4-0.8-0.6l-0.5-0.3c-0.7-0.4-1.2-0.7-1.4-1.1c-0.2-0.3-0.4-0.7-0.4-1.1c0-0.5,0.2-1,0.6-1.4
		c0.4-0.4,1-0.6,1.8-0.6c0.6,0,1.2,0.1,1.9,0.2v1.1c-0.7-0.3-1.3-0.4-1.8-0.4c-0.4,0-0.6,0.1-0.8,0.2c-0.2,0.2-0.3,0.3-0.3,0.6
		c0,0.2,0.1,0.3,0.2,0.5c0.1,0.1,0.4,0.3,0.8,0.6l0.5,0.3c0.8,0.4,1.3,0.8,1.5,1.1c0.2,0.3,0.3,0.7,0.3,1.1c0,0.6-0.2,1.1-0.7,1.5
		c-0.4,0.4-1.2,0.6-2.1,0.6c-0.6,0-1.2-0.1-2-0.2V59.8L132.4,59.8z"/>
	<polygon fill="#0F88CA" points="123.8,61.1 123.8,53.9 125.7,53.9 127.5,58.9 129.2,53.9 131,53.9 131,61.1 129.6,61.1 129.6,55.7 
		127.8,60.6 126.6,60.6 124.9,55.6 124.9,61.1 123.8,61.1 	"/>
	<path fill="#0F88CA" d="M122.8,61.1l-2.8-7.1h-1.5l-2.8,7.1h1.1l0.7-1.9h3l0.7,1.9H122.8L122.8,61.1z M120.2,58.2H118l1.1-2.8
		L120.2,58.2L120.2,58.2z"/>
	<polygon fill="#0F88CA" points="175.1,40.9 176.5,40.9 176.5,48 175.1,48 175.1,40.9 	"/>
	<polygon fill="#0F88CA" points="169.1,48 169.1,40.9 173.6,40.9 173.6,41.9 170.5,41.9 170.5,43.9 173.1,43.9 173.1,44.8 
		170.5,44.8 170.5,47 173.9,47 173.9,48 169.1,48 	"/>
	<polygon fill="#0F88CA" points="164.5,48 164.5,41.9 161.9,41.9 161.9,40.9 168.5,40.9 168.5,41.9 165.9,41.9 165.9,48 164.5,48 	
		"/>
	<polygon fill="#0F88CA" points="159.9,40.9 161.4,40.9 161.4,48 159.9,48 159.9,40.9 	"/>
	<path fill="#0F88CA" d="M153.8,46.7c0.6,0.2,1,0.4,1.2,0.4c0.3,0,0.5,0.1,0.8,0.1c0.4,0,0.7-0.1,0.9-0.3c0.2-0.2,0.3-0.4,0.3-0.7
		c0-0.2-0.1-0.4-0.2-0.5c-0.1-0.2-0.4-0.4-0.8-0.6l-0.5-0.3c-0.7-0.4-1.2-0.7-1.4-1.1c-0.2-0.3-0.4-0.7-0.4-1.1c0-0.5,0.2-1,0.6-1.4
		c0.4-0.4,1-0.6,1.8-0.6c0.6,0,1.2,0.1,1.9,0.2v1.1c-0.7-0.3-1.3-0.4-1.8-0.4c-0.4,0-0.6,0.1-0.8,0.2c-0.2,0.2-0.3,0.3-0.3,0.6
		c0,0.2,0.1,0.3,0.2,0.5c0.1,0.1,0.4,0.3,0.8,0.6l0.5,0.3c0.8,0.4,1.3,0.8,1.5,1.1c0.2,0.3,0.3,0.7,0.3,1.1c0,0.6-0.2,1.1-0.7,1.5
		c-0.4,0.4-1.2,0.6-2.1,0.6c-0.6,0-1.2-0.1-2-0.2V46.7L153.8,46.7z"/>
	<path fill="#0F88CA" d="M152.1,43.8c0.2-0.4,0.4-0.8,0.4-1.2c0-0.4-0.1-0.7-0.2-0.9c-0.2-0.3-0.4-0.5-0.7-0.6
		c-0.3-0.1-0.7-0.2-1.3-0.2h-2.7V48h1.4v-2.9h0.8l1.8,2.9h1.8l-2.3-3.3C151.5,44.5,151.8,44.2,152.1,43.8 M151,42.8
		c0,0.3-0.1,0.6-0.4,0.9c-0.2,0.3-0.7,0.4-1.3,0.4H149v-2.3h0.5c0.6,0,1,0.1,1.2,0.3C150.9,42.3,151,42.5,151,42.8"/>
	<polygon fill="#0F88CA" points="141.6,48 141.6,40.9 146.1,40.9 146.1,41.9 143,41.9 143,43.9 145.6,43.9 145.6,44.8 143,44.8 
		143,47 146.4,47 146.4,48 141.6,48 	"/>
	<polygon fill="#0F88CA" points="136.7,48 134.1,40.9 135.7,40.9 137.7,46.4 139.7,40.9 140.8,40.9 138.2,48 136.7,48 	"/>
	<polygon fill="#0F88CA" points="131.6,40.9 133.1,40.9 133.1,48 131.6,48 131.6,40.9 	"/>
	<polygon fill="#0F88CA" points="123.9,48 123.9,40.9 125.2,40.9 128.5,45.8 128.5,40.9 129.7,40.9 129.7,48 128.4,48 125.1,43.1 
		125.1,48 123.9,48 	"/>
	<path fill="#0F88CA" d="M116.5,40.9h1.5v4.4c0,0.8,0.1,1.3,0.4,1.6c0.3,0.3,0.6,0.4,1,0.4c0.4,0,0.8-0.1,1-0.4
		c0.2-0.3,0.4-0.7,0.4-1.5v-4.5h1.3v4.4c0,0.8-0.1,1.4-0.3,1.8c-0.2,0.4-0.5,0.6-0.9,0.8c-0.4,0.2-0.9,0.3-1.5,0.3
		c-0.6,0-1.1-0.1-1.5-0.3c-0.4-0.2-0.8-0.5-1-0.9c-0.2-0.4-0.4-1-0.4-1.8V40.9L116.5,40.9z"/>
	<polygon fill="#0F88CA" points="137.6,35 137.6,27.8 142.2,27.8 142.2,28.8 139.1,28.8 139.1,30.8 141.7,30.8 141.7,31.8 
		139.1,31.8 139.1,34 142.4,34 142.4,35 137.6,35 	"/>
	<path fill="#0F88CA" d="M132.2,35.2c0.4,0.2,0.8,0.2,1.2,0.2c0.2,0,0.3,0,0.5-0.1c0.1-0.1,0.2-0.2,0.3-0.3c0.1-0.1,0.1-0.4,0.1-0.9
		v-6.3h1.5v6.1c0,0.7-0.1,1.2-0.2,1.5c-0.2,0.3-0.4,0.6-0.7,0.7c-0.3,0.2-0.8,0.3-1.3,0.3c-0.4,0-0.8-0.1-1.3-0.2L132.2,35.2
		L132.2,35.2z"/>
	<polygon fill="#0F88CA" points="130.2,27.8 131.7,27.8 131.7,35 130.2,35 130.2,27.8 	"/>
	<path fill="#0F88CA" d="M127.9,30.8c0.2-0.4,0.4-0.8,0.4-1.2c0-0.4-0.1-0.7-0.2-0.9c-0.2-0.3-0.4-0.5-0.7-0.6
		c-0.3-0.1-0.7-0.2-1.2-0.2h-2.7V35h1.4v-2.9h0.8l1.8,2.9h1.8l-2.3-3.3C127.3,31.5,127.7,31.2,127.9,30.8 M126.8,29.8
		c0,0.3-0.1,0.6-0.3,0.9c-0.2,0.3-0.7,0.4-1.3,0.4h-0.3v-2.3h0.5c0.6,0,1,0.1,1.2,0.3C126.7,29.3,126.8,29.5,126.8,29.8"/>
	<polygon fill="#0F88CA" points="118.4,35 115.8,27.8 117.4,27.8 119.4,33.4 121.4,27.8 122.5,27.8 119.9,35 118.4,35 	"/>
	<polygon fill="#0F88CA" points="181.2,48 181.2,41.9 183.7,41.9 183.7,40.9 177.1,40.9 177.1,41.9 179.7,41.9 179.7,48 181.2,48 	
		"/>
</g>
</svg>
