<?xml version="1.0" encoding="utf-8"?>
<!-- Generator: Adobe Illustrator 18.1.1, SVG Export Plug-In . SVG Version: 6.00 Build 0)  -->
<svg version="1.1" id="Layer_1" xmlns="http://www.w3.org/2000/svg" xmlns:xlink="http://www.w3.org/1999/xlink" x="0px" y="0px"
	 width="169px" height="80px" viewBox="0 0 169 80" enable-background="new 0 0 169 80" xml:space="preserve">
<g>
	<g>
		<g>
			<path fill-rule="evenodd" clip-rule="evenodd" fill="#80CFF5" d="M126.7,59.6c-0.8-0.4-0.4-1.5,0.4-1.7c1.7-0.5,2.1-0.8,3.2-1.5
				c1.2-0.7,1.9-1.3,3-2.8c1.3-1.8,2.1-3.4,1.4-5.6c-0.1-0.2-0.4-0.7-0.8-0.7c-0.4,0-0.8,0.4-1.1,0.7c-0.8,1.4-0.3,3.5-1.8,4.3
				c-0.3,0.2-0.6,0-0.8,0c-1-0.1-1.9-0.7-3.1-0.3c-1.1,0.4-1.7,1.5-3.2,1.6c-1.5,0.1-2-0.5-2.5-1.5c-0.3-0.5-0.5-1.5-1.3-1.6
				c-0.6-0.1-1.4,0.1-2.3,0.8c-1.6,1.2-2.1,2-3.6,1.7c-1.6-0.3-0.9-2.5-1.8-2.9c-0.8-0.3-2.2,1.1-2.8,1.6c-0.6,0.5-1.7,1.7-2.2,2.1
				c-0.5,0.4-1.5,0.3-2.3-0.3c-2-1.5-2.5-2.9-2.4-3.6c0-1.1,1.5-1.5,1.8-1.5c0.6-0.1,1,0.1,1.1,0.4c0.3,0.7,0.1,2.7,0.9,2.9
				c0.7,0.1,2.2-1.1,3.6-2.6c0.6-0.6,1.1-1.4,1.7-2c0.7-0.7,1.4-1.1,1.8-1.1c0.7,0,1.1,0.5,1.1,1.4c0,0.5-0.4,1.6-0.4,2.5
				c0,0.7,0.1,1.3,0.7,1.4c1.6,0.3,3.6-2.9,4-3.5c0.5-0.7,1.8-1.1,2.5-0.8c0.7,0.3,1.2,1.2,1.2,1.9c0,0.8-0.1,1.9,0.6,2.3
				c0.8,0.5,2.4-0.1,3.9-0.8c0.8-0.3,1.6-0.2,2.4-0.4c1.6-0.5,0.9-3.9,3.2-4.7c0.8-0.3,1.9-0.2,2.4,0c1.2,0.5,1.5,1.9,1.6,2.4
				c0.1,0.4,0.9,2.5-1.5,6.2c-1.1,1.8-2.4,3-4.8,4.4C129.2,59.2,127.7,60,126.7,59.6"/>
			<path fill-rule="evenodd" clip-rule="evenodd" fill="#80CFF5" d="M84.7,51.7c-1.8-0.3,0.2-2,0.8-2.3c0.3-0.2,1.3-0.2,1.4,0
				C87.2,49.8,85.5,51.8,84.7,51.7 M94.2,58.4c0-0.6,1.2-6.5,1.3-7.1c0-0.2-0.5-0.3-1,0.2c-0.7,0.7-1.7,2.4-3.9,2
				c-1.2-0.2-1.6-1.2-1.7-1.6c-0.1-0.3-0.2-1.1-0.6-1.1c-0.4,0-0.9,0.6-1.2,1.1c-0.3,0.7-0.5,1.4-1.1,1.7c-0.6,0.3-2.3,0.4-3.2-0.4
				c-0.4-0.4-1-1.5-0.4-2.4c0.8-1.3,1.8-2.2,2.3-2.6c0.7-0.5,1.9-1,2.5-0.9c0.7,0.1,0.9,0.5,1.3,0.5c0.3,0,1.6-0.1,1.8,0.5
				c0.2,1.1-0.1,2.6,0.4,3.2c0.6,0.7,1.3,0.6,1.9,0.2c1.8-1.3,2.9-4.1,5.4-4.4c0.5-0.8,2.7-5.8,3.9-7c1.2-1.2,2.8-0.6,3.3-0.1
				c1.1,1.2,0.5,2.2-0.8,2.6c-1.1,0.4-1.8,1-2.6,1.9c-2,2.5-3.2,4.6-4.1,7.5c-0.8,2.2-1,4.1-1.7,6.3c-0.1,0.2-0.1,0.4-0.2,0.5
				C95.6,59,94.2,59.6,94.2,58.4z"/>
			<path fill-rule="evenodd" clip-rule="evenodd" fill="#80CFF5" d="M68.7,55.6c-0.3-1,0.2-2.1,0.6-2.6c0.3-0.5,0.9-1.1,1.6-1.7
				c0.5-0.4,1.6-1.1,2.5-1.9c0.7-0.5,1.2-1.1,1.3-1.3c0.1-0.3,0.2-0.8-0.1-0.9c-0.1-0.1-0.4,0.1-0.6,0.2c-0.7,0.3-2,1.1-3.1,1.3
				c-0.6,0.1-1.4,0-1.7-0.4c-0.3-0.3-0.5-0.7-0.1-1.2c0.5-0.5,3.9-1.6,4-1.6c0.4-0.1,1.1-0.2,1.4-0.2c0.9,0,1.2,0.6,1.5,1.1
				c0.3,0.6,0.5,1.4,0.5,2.2c0,0.9-0.9,1.3-1.6,1.3c-0.3,0-0.6,0.1-1,0.2c-0.2,0.1-1,0.7-1.4,1c-0.8,0.7-1.5,1.4-1.6,2.8
				c-0.1,1.2,1.5,1,1.8,1c0.2,0,1.2-0.2,2.4-1c0.2-0.1,0.9-0.6,1.4-0.9c0.5-0.2,0.9-0.2,1,0c0.4,0.3,0.7,0.7,0.2,1.4
				c-0.4,0.6-1.5,0.8-2.5,1.1c-0.9,0.3-3,1.5-5.2,1.3C69.8,56.8,68.9,56.4,68.7,55.6"/>
			<path fill-rule="evenodd" clip-rule="evenodd" fill="#80CFF5" d="M52.2,67.7c-0.2,0.1-0.6,0.2-1.5,0.5c-1,0.3-3.7,0.6-5.9,0.2
				c-2.2-0.4-10.9-3.3-8.8-14.1c0.9-4.6,3.7-7.9,9.7-9c2.7-0.5,5-0.7,7.8-0.7c2.8,0,6,0.6,8.8,2c0.2,0.1,0.6,0.4,0.8,0.5
				c0.3,0.1,0.9,0,1.3-0.4c0.2-0.4,0.2-0.8-0.2-1.1c-1.6-1.3-5.4-2.5-10.4-2.7c-4.9-0.2-7.1,0.2-9.5,0.4c-1.6,0.1-0.9-0.6-0.8-0.7
				c1.8-2.1,5-5.8,12.4-10.4c7.4-4.6,12.1-5.6,13.3-5.7c1.2-0.1,3.2,0.8,4.8,1.1c1.1,0.2,2.5,0.3,2.8-0.2c0.3-0.4,0.2-0.8-1.2-1.5
				c-1.3-0.7-5-1.3-5.9-1.3c-5.2,0.3-9.9,3-15.3,6.3c-5.4,3.3-10.7,8.1-12.3,9.9c-1,1.2-2.1,2.1-2.6,2.7c-0.3,0.3-1.1,0.7-1.6,0.8
				c-1.1,0.3-8.8,1.5-19.2,5.6c-10.9,4.3-15,8-16.2,9.9c-0.4,0.7-0.5,1.5,0,1.9c0.5,0.4,1.4,1,2.5,1.4c1.7,0.6,2.8,0.8,3.4,0.7
				c0.4-0.1,0.5-0.3,0.6-0.6c0.1-0.4-0.2-0.6-0.2-0.9c-0.1-0.4-0.8-0.7-1.9-1c-0.6-0.2-2.5-0.9-0.7-2.4c3-2.5,5.8-4.4,13.3-7.4
				c11.1-4.4,15.5-4.7,16.7-4.9c1.1-0.2,0.7,0.3,0.2,0.9c-1.9,2.9-2.4,4.1-2.7,6.8c-1.7,12,7.9,15.2,11,15.6
				c4.1,0.6,7.2-0.6,8.1-1.1c0.4-0.3,0.4-0.7,0.3-1.2C53,67.6,53,67.4,52.2,67.7"/>
			<path fill-rule="evenodd" clip-rule="evenodd" fill="#80CFF5" d="M55.2,67.9c0.3-0.1,0.7-0.6,0.6-1c-0.2-0.6-0.8-0.4-1.1-0.3
				c-0.3,0.1-0.9,0.2-1.1,0.5c-0.1,0.3,0.1,0.4,0.1,0.6C53.9,68.3,54.5,68.3,55.2,67.9"/>
			<path fill-rule="evenodd" clip-rule="evenodd" fill="#80CFF5" d="M56.3,67c0.2,0.2,0.9,0.2,1.6-0.2c0.5-0.2,0.8-0.7,1.4-0.9
				c0.4-0.2,1-0.6,1.5-0.8c1.5-0.5,1.9-1.6,0.9-1.4c-1.4,0.2-5.1,1.9-5.4,2.1C55.8,66.1,55.9,66.6,56.3,67"/>
			<path fill-rule="evenodd" clip-rule="evenodd" fill="#80CFF5" d="M11.3,64.2c-0.4,0-0.7-0.2-0.9-0.4c-0.2-0.2-0.5-0.2-0.6-0.8
				c-0.1-0.4,0.7-0.7,1.1-0.7c0.5,0.1,1.3,0.2,1.8,0.1c0.9-0.1,1.5-0.1,1.8,0.3c0.3,0.3,0.4,0.5,0,0.9c-0.3,0.3-1.1,0.5-1.9,0.5
				C12.3,64.2,11.7,64.2,11.3,64.2"/>
			<path fill-rule="evenodd" clip-rule="evenodd" fill="#80CFF5" d="M15.3,63.1c-0.1-0.2,0-0.4,0.2-0.5c0.1-0.1,0.8-0.3,1.1-0.2
				c0.2,0.1,0.4,0.1,0.4,0.3c0.1,0.3,0.1,0.6-0.3,0.8c-0.3,0.2-0.3,0.2-0.6,0.2l-0.3,0C15.5,63.7,15.4,63.4,15.3,63.1"/>
			<polyline fill="#073D85" points="21.4,29.5 21.4,17.4 28,17.4 28,19.5 23.8,19.5 23.8,22.2 27.8,22.2 27.8,24.3 23.8,24.3 
				23.8,27.4 28,27.4 28,29.5 21.4,29.5 			"/>
			<path fill="#073D85" d="M35.9,22.1c-1.8-0.4-2.7,0.8-2.7,3.5v3.9h-2.5v-9.6h2.3c0,0.5-0.1,1.3-0.2,1.9h0c0.5-1.2,1.4-2.3,3.1-2.1
				L35.9,22.1"/>
			<path fill="#073D85" d="M45.1,29.4c0-0.8-0.1-1.7-0.1-2.5v-4c0-2.1-0.9-3.3-4-3.3c-1.2,0-2.5,0.3-3.4,0.6l0.2,2.1
				c0.8-0.5,2-0.8,2.8-0.8c1.4,0,1.9,0.5,1.9,1.5v0.5c-3.3,0-5.5,1.2-5.5,3.5c0,1.5,1,2.5,2.7,2.5c1.4,0,2.6-0.8,3.1-1.8l0,0
				c-0.1,0.5-0.1,1.1-0.1,1.6H45.1 M42.5,25.4c0,1.2-0.8,2.3-2,2.3c-0.7,0-1.1-0.4-1.1-1c0-0.8,0.6-1.5,3.2-1.5V25.4z"/>
			<path fill="#073D85" d="M49.4,29.6c-0.7,0-1.4-0.1-2-0.2l0.1-2c0.6,0.2,1.3,0.3,2.1,0.3c0.9,0,1.6-0.4,1.6-1c0-1.7-3.9-0.7-3.9-4
				c0-1.7,1.4-3.1,4.1-3.1c0.6,0,1.2,0.1,1.8,0.2l-0.1,1.9c-0.5-0.2-1.2-0.2-1.8-0.2c-1,0-1.4,0.4-1.4,1c0,1.6,3.9,0.9,3.9,4
				C53.7,28.4,52,29.6,49.4,29.6"/>
			<path fill="#073D85" d="M67.4,29.4v-6.1c0-1-0.2-1.7-1.1-1.7c-1.1,0-2.2,1.3-2.2,3.2v4.6h-2.4v-6.1c0-0.9-0.2-1.7-1.1-1.7
				c-1.1,0-2.2,1.4-2.2,3.2v4.6h-2.5v-9.6h2.3c0,0.4,0,1.2-0.1,1.7h0c0.6-1.2,1.7-1.9,3.2-1.9c1.7,0,2.4,1,2.6,1.9
				c0.4-0.9,1.5-1.9,3.1-1.9c1.9,0,2.9,1,2.9,3.2v6.6H67.4"/>
			<path fill="#073D85" d="M78.5,29.4c0-0.4,0-1.2,0.1-1.7l0,0c-0.6,1.1-1.7,1.9-3.3,1.9c-2.2,0-2.9-1.4-2.9-3.1v-6.7H75V26
				c0,1,0.3,1.6,1.2,1.6c1.3,0,2.2-1.4,2.2-3.1v-4.6h2.5v9.6H78.5"/>
			<path fill="#073D85" d="M85.2,29.6c-0.7,0-1.4-0.1-2-0.2l0.1-2c0.6,0.2,1.3,0.3,2.1,0.3c0.9,0,1.6-0.4,1.6-1c0-1.7-3.9-0.7-3.9-4
				c0-1.7,1.4-3.1,4.1-3.1c0.6,0,1.2,0.1,1.8,0.2l-0.1,1.9c-0.5-0.2-1.2-0.2-1.8-0.2c-1,0-1.4,0.4-1.4,1c0,1.6,3.9,0.9,3.9,4
				C89.5,28.4,87.8,29.6,85.2,29.6"/>
			<path fill="#073D85" d="M105.1,29.4l-0.9-5.7c-0.2-1.1-0.3-2-0.4-2.9h0c-0.2,0.8-0.4,1.6-0.7,2.6l-1.9,6H99l-1.8-5.6
				c-0.3-1-0.6-2.1-0.8-3h0c-0.1,1.1-0.2,2-0.3,3.1l-0.7,5.5H93l1.9-12h2.7l2,6.2c0.3,0.9,0.5,1.7,0.7,2.5h0
				c0.2-0.9,0.4-1.6,0.7-2.5l2.1-6.2h2.7l1.9,12H105.1"/>
			<path fill="#073D85" d="M114.8,29.6c-4.2,0-5.6-2.8-5.6-5.8c0-3.8,2-6.5,6-6.5c0.9,0,1.8,0.1,2.5,0.3l-0.2,2.1
				c-0.8-0.2-1.6-0.4-2.4-0.4c-2.2,0-3.4,1.7-3.4,4c0,2.6,1.1,4.1,3.5,4.1c0.7,0,1.7-0.2,2.3-0.5l0.3,2.1
				C117,29.4,115.9,29.6,114.8,29.6"/>
			<path fill="#073D85" d="M22.8,36.7c-1.2,0-1.4-0.6-1.4-1.3V33h0.7v2.3c0,0.5,0.2,0.8,0.8,0.8c0.5,0,0.8-0.2,0.8-0.8V33h0.7v2.2
				C24.3,36.2,23.8,36.7,22.8,36.7"/>
			<path fill="#073D85" d="M27,36.7v-1.7c0-0.3-0.1-0.4-0.3-0.4c-0.4,0-0.6,0.4-0.6,0.9v1.3h-0.7V34H26c0,0.1,0,0.3,0,0.5l0,0
				c0.2-0.3,0.5-0.5,0.9-0.5c0.6,0,0.8,0.4,0.8,0.9v1.9H27"/>
			<path fill="#073D85" d="M28.7,36.7h0.7V34h-0.7V36.7z M29.5,33.2c0-0.2-0.2-0.4-0.4-0.4c-0.2,0-0.4,0.2-0.4,0.4
				c0,0.2,0.2,0.4,0.4,0.4C29.3,33.6,29.5,33.4,29.5,33.2z"/>
			<path fill="#073D85" d="M31.8,36.7h-0.7l-1-2.7h0.8l0.4,1.2c0.1,0.2,0.1,0.4,0.2,0.6h0c0-0.2,0.1-0.4,0.2-0.6L32,34h0.7
				L31.8,36.7"/>
			<path fill="#073D85" d="M35.5,35.1c0-0.7-0.3-1.2-1.1-1.2c-0.8,0-1.3,0.6-1.3,1.4c0,0.9,0.5,1.4,1.3,1.4c0.3,0,0.7-0.1,1-0.2
				L35.4,36c-0.2,0.1-0.5,0.2-0.8,0.2c-0.5,0-0.7-0.2-0.7-0.7h1.7C35.5,35.3,35.5,35.2,35.5,35.1 M34.8,35h-1c0-0.3,0.2-0.5,0.5-0.5
				C34.7,34.4,34.8,34.6,34.8,35z"/>
			<path fill="#073D85" d="M37.8,34.6c-0.5-0.1-0.7,0.2-0.7,1v1.1h-0.7V34H37c0,0.1,0,0.4,0,0.5h0c0.1-0.3,0.4-0.6,0.9-0.6
				L37.8,34.6"/>
			<path fill="#073D85" d="M39,36.7c-0.2,0-0.4,0-0.6,0l0-0.6c0.2,0,0.4,0.1,0.6,0.1c0.3,0,0.4-0.1,0.4-0.3c0-0.5-1.1-0.2-1.1-1.1
				c0-0.5,0.4-0.9,1.1-0.9c0.2,0,0.3,0,0.5,0l0,0.5c-0.2,0-0.3-0.1-0.5-0.1c-0.3,0-0.4,0.1-0.4,0.3c0,0.4,1.1,0.2,1.1,1.1
				C40.2,36.4,39.8,36.7,39,36.7"/>
			<path fill="#073D85" d="M41.1,34h0.7v2.7h-0.7V34z M41.4,33.6c-0.2,0-0.4-0.2-0.4-0.4c0-0.2,0.2-0.4,0.4-0.4
				c0.2,0,0.4,0.2,0.4,0.4C41.9,33.4,41.7,33.6,41.4,33.6z"/>
			<path fill="#073D85" d="M43.7,36.7c-0.6,0-0.8-0.2-0.8-0.8v-1.4h-0.5V34h0.5v-0.8l0.7-0.2v1h0.7v0.5h-0.7v1.2
				c0,0.3,0.1,0.4,0.3,0.4c0.1,0,0.2,0,0.3,0v0.6C44.1,36.7,43.9,36.7,43.7,36.7"/>
			<path fill="#073D85" d="M46.3,36.9C46,37.7,45.7,38,45.1,38c-0.1,0-0.3,0-0.4,0l0-0.6c0.1,0,0.2,0.1,0.4,0.1
				c0.2,0,0.4-0.1,0.5-0.5l0.1-0.3l-1-2.7h0.8l0.4,1c0.1,0.2,0.2,0.5,0.2,0.7h0c0.1-0.2,0.2-0.6,0.3-0.9l0.3-0.9h0.7L46.3,36.9"/>
			<path fill="#073D85" d="M53.3,36.7L53,34.9c-0.1-0.3-0.1-0.6-0.1-0.9h0c0,0.2-0.1,0.5-0.2,0.8l-0.6,1.8h-0.7L50.9,35
				c-0.1-0.3-0.2-0.6-0.2-0.9h0c0,0.3-0.1,0.6-0.1,0.9l-0.2,1.7h-0.7l0.6-3.7H51l0.6,1.9c0.1,0.3,0.2,0.5,0.2,0.8h0
				c0.1-0.3,0.1-0.5,0.2-0.8l0.6-1.9h0.8l0.6,3.7H53.3"/>
			<path fill="#073D85" d="M55.9,34.4c-0.3,0-0.5,0.2-0.5,0.5h1C56.4,34.6,56.2,34.4,55.9,34.4 M57,35.4h-1.7c0,0.5,0.2,0.7,0.7,0.7
				c0.3,0,0.6-0.1,0.8-0.2l0.1,0.5c-0.3,0.1-0.6,0.2-1,0.2c-0.9,0-1.3-0.4-1.3-1.4c0-0.8,0.5-1.4,1.3-1.4c0.8,0,1.1,0.5,1.1,1.2
				C57,35.2,57,35.3,57,35.4z"/>
			<path fill="#073D85" d="M60.2,36.7v-3.9h-0.7v1.2c-0.1,0-0.2,0-0.3,0c-0.9,0-1.4,0.6-1.4,1.5c0,0.8,0.3,1.3,1,1.3
				c0.4,0,0.7-0.2,0.8-0.5h0c0,0.1,0,0.3,0,0.4H60.2 M59.5,35.3c0,0.5-0.2,0.9-0.6,0.9c-0.3,0-0.5-0.3-0.5-0.8
				c0-0.7,0.3-0.9,0.7-0.9c0.1,0,0.2,0,0.4,0V35.3z"/>
			<path fill="#073D85" d="M61.2,34h0.7v2.7h-0.7V34z M61.5,33.6c-0.2,0-0.4-0.2-0.4-0.4c0-0.2,0.2-0.4,0.4-0.4
				c0.2,0,0.4,0.2,0.4,0.4C62,33.4,61.8,33.6,61.5,33.6z"/>
			<path fill="#073D85" d="M63.9,36.7c-0.7,0-1.2-0.4-1.2-1.3c0-0.8,0.4-1.5,1.4-1.5c0.2,0,0.4,0,0.6,0.1l-0.1,0.6
				c-0.1-0.1-0.3-0.1-0.5-0.1c-0.4,0-0.7,0.3-0.7,0.8c0,0.5,0.2,0.8,0.6,0.8c0.2,0,0.4,0,0.5-0.1l0.1,0.6
				C64.5,36.6,64.2,36.7,63.9,36.7"/>
			<path fill="#073D85" d="M66.8,35.5c-0.7,0-0.9,0.2-0.9,0.4c0,0.2,0.1,0.3,0.3,0.3C66.6,36.2,66.8,35.9,66.8,35.5L66.8,35.5
				 M66.9,36.7c0-0.2,0-0.3,0-0.5l0,0c-0.1,0.3-0.5,0.5-0.9,0.5c-0.5,0-0.8-0.3-0.8-0.7c0-0.6,0.6-1,1.6-1v-0.1
				c0-0.3-0.1-0.4-0.5-0.4c-0.2,0-0.6,0.1-0.8,0.2l-0.1-0.6c0.3-0.1,0.6-0.2,1-0.2c0.9,0,1.1,0.4,1.1,0.9V36c0,0.2,0,0.5,0,0.7H66.9
				z"/>
			<rect x="68.6" y="32.7" fill="#073D85" width="0.7" height="3.9"/>
			<path fill="#073D85" d="M73.6,36.7c-1.3,0-1.7-0.8-1.7-1.8c0-1.2,0.6-2,1.8-2c0.3,0,0.5,0,0.8,0.1l-0.1,0.6
				c-0.2-0.1-0.5-0.1-0.7-0.1c-0.7,0-1,0.5-1,1.2c0,0.8,0.3,1.2,1.1,1.2c0.2,0,0.5-0.1,0.7-0.2l0.1,0.6
				C74.2,36.6,73.9,36.7,73.6,36.7"/>
			<path fill="#073D85" d="M77.5,35.1c0-0.7-0.3-1.2-1.1-1.2c-0.8,0-1.3,0.6-1.3,1.4c0,0.9,0.5,1.4,1.3,1.4c0.3,0,0.7-0.1,1-0.2
				L77.3,36c-0.2,0.1-0.5,0.2-0.8,0.2c-0.5,0-0.7-0.2-0.7-0.7h1.7C77.5,35.3,77.5,35.2,77.5,35.1 M76.8,35h-1c0-0.3,0.2-0.5,0.5-0.5
				C76.6,34.4,76.8,34.6,76.8,35z"/>
			<path fill="#073D85" d="M80,36.7v-1.7c0-0.3-0.1-0.4-0.3-0.4c-0.4,0-0.6,0.4-0.6,0.9v1.3h-0.7V34H79c0,0.1,0,0.3,0,0.5l0,0
				c0.2-0.3,0.5-0.5,0.9-0.5c0.6,0,0.8,0.4,0.8,0.9v1.9H80"/>
			<path fill="#073D85" d="M82.6,36.7c-0.6,0-0.8-0.2-0.8-0.8v-1.4h-0.5V34h0.5v-0.8l0.7-0.2v1h0.7v0.5h-0.7v1.2
				c0,0.3,0.1,0.4,0.3,0.4c0.1,0,0.2,0,0.3,0v0.6C83,36.7,82.8,36.7,82.6,36.7"/>
			<path fill="#073D85" d="M85,34.4c-0.3,0-0.5,0.2-0.5,0.5h1C85.5,34.6,85.3,34.4,85,34.4 M86.2,35.4h-1.7c0,0.5,0.2,0.7,0.7,0.7
				c0.3,0,0.6-0.1,0.8-0.2l0.1,0.5c-0.3,0.1-0.6,0.2-1,0.2c-0.9,0-1.3-0.4-1.3-1.4c0-0.8,0.5-1.4,1.3-1.4c0.8,0,1.1,0.5,1.1,1.2
				C86.2,35.2,86.2,35.3,86.2,35.4z"/>
			<path fill="#073D85" d="M88.5,34.6c-0.5-0.1-0.7,0.2-0.7,1v1.1H87V34h0.7c0,0.1,0,0.4,0,0.5h0c0.1-0.3,0.4-0.6,0.9-0.6L88.5,34.6
				"/>
			<path fill="#073D85" d="M93.6,36.7l-0.9-1.2c-0.1-0.1-0.2-0.3-0.3-0.4c0.6-0.1,0.9-0.5,0.9-1c0-0.7-0.5-1-1.3-1c-0.4,0-0.8,0-1,0
				v3.7h0.7v-1.5h0l1,1.5H93.6 M92.6,34.1c0,0.3-0.3,0.6-0.7,0.6c-0.1,0-0.2,0-0.3,0v-1.1c0.1,0,0.2,0,0.3,0
				C92.4,33.6,92.6,33.7,92.6,34.1z"/>
			<path fill="#073D85" d="M96.6,35.3c0-0.9-0.5-1.3-1.3-1.3c-0.8,0-1.4,0.6-1.4,1.4c0,1,0.5,1.4,1.3,1.4
				C96,36.7,96.6,36.1,96.6,35.3 M95.9,35.3c0,0.5-0.3,0.8-0.6,0.8c-0.4,0-0.6-0.3-0.6-0.8c0-0.6,0.3-0.8,0.6-0.8
				C95.7,34.5,95.9,34.8,95.9,35.3z"/>
			<path fill="#073D85" d="M98.3,36.7c-0.6,0-0.8-0.2-0.8-0.8v-1.4h-0.5V34h0.5v-0.8l0.7-0.2v1h0.7v0.5h-0.7v1.2
				c0,0.3,0.1,0.4,0.3,0.4c0.1,0,0.2,0,0.3,0v0.6C98.7,36.7,98.5,36.7,98.3,36.7"/>
			<path fill="#073D85" d="M100.6,36.7c-0.6,0-0.8-0.2-0.8-0.8v-1.4h-0.5V34h0.5v-0.8l0.7-0.2v1h0.7v0.5h-0.7v1.2
				c0,0.3,0.1,0.4,0.3,0.4c0.1,0,0.2,0,0.3,0v0.6C101,36.7,100.8,36.7,100.6,36.7"/>
			<path fill="#073D85" d="M104.2,35.1c0-0.7-0.3-1.2-1.1-1.2c-0.8,0-1.3,0.6-1.3,1.4c0,0.9,0.5,1.4,1.3,1.4c0.3,0,0.7-0.1,1-0.2
				l-0.1-0.5c-0.2,0.1-0.5,0.2-0.8,0.2c-0.5,0-0.7-0.2-0.7-0.7h1.7C104.2,35.3,104.2,35.2,104.2,35.1 M103.5,35h-1
				c0-0.3,0.2-0.5,0.5-0.5C103.4,34.4,103.6,34.6,103.5,35z"/>
			<path fill="#073D85" d="M106.5,34.6c-0.5-0.1-0.7,0.2-0.7,1v1.1h-0.7V34h0.7c0,0.1,0,0.4,0,0.5h0c0.1-0.3,0.4-0.6,0.9-0.6
				L106.5,34.6"/>
			<path fill="#073D85" d="M109.5,36.7v-3.9h-0.7v1.2c-0.1,0-0.2,0-0.3,0c-0.9,0-1.4,0.6-1.4,1.5c0,0.8,0.3,1.3,1,1.3
				c0.4,0,0.7-0.2,0.8-0.5h0c0,0.1,0,0.3,0,0.4H109.5 M108.8,35.3c0,0.5-0.2,0.9-0.6,0.9c-0.3,0-0.5-0.3-0.5-0.8
				c0-0.7,0.3-0.9,0.7-0.9c0.1,0,0.2,0,0.4,0V35.3z"/>
			<path fill="#073D85" d="M112.6,36.7c0-0.2,0-0.5,0-0.7v-1.1c0-0.6-0.2-0.9-1.1-0.9c-0.3,0-0.7,0.1-1,0.2l0.1,0.6
				c0.2-0.1,0.6-0.2,0.8-0.2c0.4,0,0.5,0.1,0.5,0.4V35c-0.9,0-1.6,0.3-1.6,1c0,0.4,0.3,0.7,0.8,0.7c0.4,0,0.7-0.2,0.9-0.5l0,0
				c0,0.1,0,0.3,0,0.5H112.6 M111.9,35.5c0,0.3-0.2,0.6-0.6,0.6c-0.2,0-0.3-0.1-0.3-0.3C111,35.7,111.2,35.5,111.9,35.5L111.9,35.5z
				"/>
			<path fill="#073D85" d="M116.9,36.7V35c0-0.3-0.1-0.5-0.3-0.5c-0.3,0-0.6,0.4-0.6,0.9v1.3h-0.7V35c0-0.3-0.1-0.5-0.3-0.5
				c-0.3,0-0.6,0.4-0.6,0.9v1.3h-0.7V34h0.7c0,0.1,0,0.3,0,0.5h0c0.2-0.3,0.5-0.5,0.9-0.5c0.5,0,0.7,0.3,0.7,0.5
				c0.1-0.3,0.4-0.5,0.9-0.5c0.5,0,0.8,0.3,0.8,0.9v1.8H116.9"/>
		</g>
	</g>
</g>
</svg>
