<?xml version="1.0" encoding="utf-8"?>
<!-- Generator: Adobe Illustrator 18.1.1, SVG Export Plug-In . SVG Version: 6.00 Build 0)  -->
<svg version="1.1" id="Layer_1" xmlns="http://www.w3.org/2000/svg" xmlns:xlink="http://www.w3.org/1999/xlink" x="0px" y="0px"
	 width="138.5px" height="80px" viewBox="0 0 138.5 80" enable-background="new 0 0 138.5 80" xml:space="preserve">
<g>
	<g>
		<defs>
			<rect id="SVGID_13_" x="-15.9" width="144" height="80"/>
		</defs>
		<clipPath id="SVGID_2_">
			<use xlink:href="#SVGID_13_"  overflow="visible"/>
		</clipPath>
		<g clip-path="url(#SVGID_2_)">
			<defs>
				<rect id="SVGID_15_" x="-15.9" width="144" height="80"/>
			</defs>
			<clipPath id="SVGID_4_">
				<use xlink:href="#SVGID_15_"  overflow="visible"/>
			</clipPath>
			<path clip-path="url(#SVGID_4_)" fill="#17498B" d="M52.9,60.4v-0.3c0.4-0.1,0.5-0.1,0.5-0.6v-1.4c0-0.7-0.3-0.9-0.7-0.9
				c-0.2,0-0.5,0.1-0.7,0.3v2.1c0,0.5,0,0.6,0.5,0.6v0.3h-1.9v-0.3c0.5-0.1,0.6-0.1,0.6-0.6v-4.1c-0.4-0.1-0.9-0.1-1.6-0.1H49v4
				c0,0.7,0.1,0.8,0.8,0.8v0.3h-2.5v-0.3c0.7,0,0.7-0.1,0.7-0.8v-4h-0.4c-0.7,0-0.9,0.1-1,0.3c-0.1,0.2-0.2,0.4-0.3,0.8h-0.3
				c0-0.6,0.1-1.1,0.1-1.6h0.2c0.1,0.2,0.2,0.2,0.5,0.2h3.5c0.7,0,0.8,0,0.8-0.2v-0.1c0.3,0,0.7-0.1,0.9-0.2v2.7
				c0.3-0.3,0.7-0.6,1.1-0.6c0.7,0,1.2,0.5,1.2,1.4v1.5c0,0.5,0.1,0.6,0.5,0.6v0.3H52.9z M58.4,59.6c-0.5,0.7-1.1,0.9-1.5,0.9
				c-1.1,0-1.7-0.8-1.7-1.8c0-0.6,0.2-1.1,0.6-1.5c0.4-0.4,0.8-0.6,1.3-0.6c0.7,0,1.3,0.6,1.3,1.3c0,0.2-0.1,0.3-0.2,0.3
				c-0.2,0-1.2,0.1-2.1,0.1c0,1,0.6,1.5,1.2,1.5c0.3,0,0.6-0.1,0.9-0.4L58.4,59.6z M56.2,58c0.4,0,0.8,0,1.1,0c0.1,0,0.2,0,0.2-0.2
				c0-0.4-0.2-0.9-0.6-0.9C56.6,56.9,56.3,57.3,56.2,58 M66,55.2c-0.5,0-0.6,0.1-0.7,0.5c0,0.3-0.1,0.6-0.1,1.4v3.3h-0.4l-3.5-4.3h0
				v2c0,0.7,0,1.1,0.1,1.4c0,0.4,0.2,0.5,0.8,0.6v0.3h-2v-0.3c0.5,0,0.7-0.2,0.7-0.5c0-0.3,0.1-0.7,0.1-1.4v-1.8
				c0-0.6,0-0.7-0.2-0.9c-0.2-0.2-0.3-0.3-0.7-0.3V55h1.4l3.3,3.9h0v-1.7c0-0.8,0-1.1-0.1-1.4c-0.1-0.4-0.2-0.5-0.8-0.5V55h2V55.2z
				 M69.4,59.6c-0.5,0.7-1.1,0.9-1.5,0.9c-1.1,0-1.7-0.8-1.7-1.8c0-0.6,0.2-1.1,0.6-1.5c0.4-0.4,0.8-0.6,1.3-0.6
				c0.7,0,1.3,0.6,1.3,1.3c0,0.2-0.1,0.3-0.2,0.3c-0.2,0-1.2,0.1-2.1,0.1c0,1,0.6,1.5,1.2,1.5c0.3,0,0.6-0.1,0.9-0.4L69.4,59.6z
				 M67.2,58c0.4,0,0.8,0,1.1,0c0.1,0,0.2,0,0.2-0.2c0-0.4-0.2-0.9-0.6-0.9C67.6,56.9,67.3,57.3,67.2,58 M71.7,60.4
				c-0.1,0.1-0.3,0.1-0.3,0.1c-0.6,0-0.9-0.3-0.9-1v-2.4h-0.5l0-0.1l0.2-0.3h0.4v-0.6l0.8-0.6l0.1,0v1.2h0.9
				c0.1,0.1,0.1,0.3-0.1,0.4h-0.8v2.1c0,0.7,0.3,0.8,0.5,0.8c0.2,0,0.3,0,0.5-0.1l0.1,0.3L71.7,60.4z M74.9,60.4v-0.3
				c0.4-0.1,0.5-0.1,0.5-0.6v-1.4c0-0.7-0.3-0.9-0.7-0.9c-0.2,0-0.5,0.1-0.7,0.3v2.1c0,0.5,0,0.6,0.4,0.6v0.3h-1.9v-0.3
				c0.5-0.1,0.5-0.1,0.5-0.6v-3.9c0-0.5,0-0.5-0.5-0.6v-0.2c0.4-0.1,1-0.2,1.4-0.3v2.7c0.3-0.3,0.7-0.6,1.1-0.6
				c0.7,0,1.2,0.5,1.2,1.4v1.5c0,0.5,0.1,0.6,0.5,0.6v0.3H74.9z M80.4,59.6c-0.5,0.7-1.1,0.9-1.5,0.9c-1.1,0-1.7-0.8-1.7-1.8
				c0-0.6,0.2-1.1,0.6-1.5c0.4-0.4,0.8-0.6,1.3-0.6c0.7,0,1.3,0.6,1.3,1.3c0,0.2-0.1,0.3-0.2,0.3c-0.2,0-1.2,0.1-2.1,0.1
				c0,1,0.6,1.5,1.2,1.5c0.3,0,0.6-0.1,0.9-0.4L80.4,59.6z M78.2,58c0.4,0,0.8,0,1.1,0c0.1,0,0.2,0,0.2-0.2c0-0.4-0.2-0.9-0.6-0.9
				C78.5,56.9,78.2,57.3,78.2,58 M82.3,57.5c0.3-0.5,0.6-0.9,1-0.9c0.3,0,0.5,0.2,0.5,0.5c0,0.2-0.2,0.5-0.4,0.5c-0.1,0-0.2,0-0.2,0
				c-0.1-0.1-0.2-0.2-0.4-0.2c-0.2,0-0.4,0.2-0.5,0.5v1.6c0,0.5,0,0.6,0.7,0.6v0.3h-2.2v-0.3c0.5-0.1,0.6-0.1,0.6-0.6v-1.8
				c0-0.5-0.1-0.5-0.5-0.6v-0.2c0.5-0.1,0.9-0.2,1.4-0.3L82.3,57.5L82.3,57.5z M83.9,60.4v-0.3c0.5-0.1,0.6-0.1,0.6-0.7v-3.9
				c0-0.5,0-0.6-0.5-0.6v-0.2c0.5-0.1,1-0.2,1.4-0.3v5c0,0.6,0.1,0.6,0.6,0.7v0.3H83.9z M89.1,60.5c-0.2,0-0.4-0.1-0.5-0.2
				c-0.1-0.1-0.2-0.2-0.2-0.3c-0.3,0.2-0.7,0.5-0.9,0.5c-0.7,0-1.1-0.5-1.1-1.1c0-0.4,0.2-0.7,0.7-0.8c0.5-0.2,1.1-0.4,1.3-0.6v-0.2
				c0-0.6-0.2-0.9-0.6-0.9c-0.1,0-0.2,0.1-0.3,0.2c-0.1,0.1-0.2,0.3-0.2,0.6c0,0.2-0.2,0.3-0.3,0.3c-0.2,0-0.5-0.2-0.5-0.4
				c0-0.1,0.1-0.2,0.3-0.4c0.3-0.2,0.9-0.5,1.3-0.6c0.3,0,0.6,0.1,0.8,0.2c0.3,0.3,0.4,0.6,0.4,1.1v1.4c0,0.4,0.1,0.5,0.3,0.5
				c0.1,0,0.2,0,0.3-0.1l0.1,0.3L89.1,60.5z M88.4,58.4c-0.2,0.1-0.4,0.2-0.6,0.3c-0.3,0.1-0.4,0.3-0.4,0.6c0,0.5,0.3,0.6,0.5,0.6
				c0.2,0,0.3-0.1,0.5-0.2V58.4z M92.5,60.4v-0.3c0.4-0.1,0.5-0.1,0.5-0.7v-1.4c0-0.6-0.3-0.8-0.6-0.8c-0.3,0-0.5,0.1-0.7,0.3v2
				c0,0.5,0,0.6,0.4,0.6v0.3h-1.9v-0.3c0.5-0.1,0.6-0.1,0.6-0.6v-1.7c0-0.5,0-0.5-0.5-0.6v-0.2c0.4-0.1,0.9-0.2,1.4-0.3v0.6
				c0.2-0.1,0.3-0.2,0.5-0.4c0.2-0.2,0.4-0.2,0.7-0.2c0.7,0,1.1,0.5,1.1,1.3v1.6c0,0.5,0.1,0.6,0.5,0.6v0.3H92.5z M99,60.2
				c-0.2,0-0.9,0.1-1.5,0.3V60L97,60.3c-0.3,0.2-0.4,0.2-0.5,0.2c-0.7,0-1.7-0.6-1.7-1.8c0-1.1,1-2.1,2.2-2.1c0.1,0,0.2,0,0.4,0.1
				v-1.1c0-0.5,0-0.5-0.6-0.6v-0.2c0.5-0.1,1.1-0.2,1.5-0.3v4.9c0,0.5,0.1,0.5,0.4,0.5l0.2,0V60.2z M97.5,57.4
				c-0.2-0.3-0.4-0.4-0.7-0.4c-0.3,0-0.9,0.3-0.9,1.5c0,1,0.6,1.4,1,1.4c0.2,0,0.4-0.1,0.6-0.2V57.4z M101.6,57.8
				c-0.2-0.5-0.5-0.8-0.9-0.8c-0.3,0-0.5,0.2-0.5,0.5c0,0.3,0.2,0.5,0.7,0.7c0.7,0.3,1.1,0.6,1.1,1.2c0,0.8-0.8,1.2-1.5,1.2
				c-0.4,0-0.9-0.2-1-0.3c-0.1-0.1-0.1-0.7-0.1-1.1l0.2,0c0.2,0.5,0.6,1.1,1.1,1.1c0.3,0,0.5-0.2,0.5-0.5c0-0.3-0.2-0.5-0.6-0.7
				c-0.4-0.2-1.1-0.5-1.1-1.2c0-0.6,0.5-1.1,1.4-1.1c0.4,0,0.6,0.1,0.8,0.1c0.1,0.2,0.2,0.8,0.2,0.9L101.6,57.8z"/>
			<path clip-path="url(#SVGID_4_)" fill="#17498B" d="M55.6,25.8c-0.8,0.1-1.2,0.3-1.3,0.8c-0.1,0.4-0.1,1-0.1,2.2v0.7
				c0,1.6-0.3,2.8-1.1,3.7c-0.7,0.7-1.5,1-2.6,1c-0.9,0-1.7-0.2-2.4-0.7c-0.8-0.6-1.2-1.7-1.2-3.4v-2.9c0-1.3-0.1-1.4-1.2-1.5v-0.5
				h4v0.5c-1.1,0.1-1.2,0.1-1.2,1.5v2.6c0,2.2,0.8,3.5,2.5,3.5c1.9,0,2.5-1.5,2.5-3.9v-0.6c0-1.2-0.1-1.7-0.1-2.2
				c-0.1-0.5-0.4-0.8-1.4-0.8v-0.5h3.6V25.8z M64.9,26.4c0.5,0,0.9-0.4,0.9-0.9c0-0.5-0.4-0.9-0.9-0.9c-0.5,0-0.9,0.4-0.9,0.9
				C64.1,26,64.5,26.4,64.9,26.4 M66.8,34v-0.4c-0.9-0.1-1.1-0.2-1.1-1.2v-4.9c-0.6,0.2-1.8,0.4-2.5,0.5v0.4
				c0.8,0.1,1.1,0.2,1.1,1.1v2.9c0,1-0.2,1.1-1.1,1.2V34H66.8z M75.3,29.9c0.1-1,0.6-1.9,1.4-1.9c0.7,0,1.1,0.7,1.1,1.6
				c0,0.2-0.1,0.3-0.3,0.3H75.3z M78.9,30.4c0.3,0,0.4-0.1,0.4-0.4c0-1.6-1.1-2.4-2.4-2.4c-0.8,0-1.4,0.3-2.1,0.9
				c-0.6,0.6-1,1.6-1,2.6c0,1.6,1.1,3.1,3,3.1c0.5,0,1.6-0.3,2.5-1.5l-0.2-0.3c-0.5,0.5-1.1,0.7-1.6,0.7c-1,0-2.1-0.6-2.1-2.5
				L78.9,30.4z M100.5,29.9c0.1-1,0.6-1.9,1.4-1.9c0.7,0,1.1,0.7,1.1,1.6c0,0.2-0.1,0.3-0.3,0.3H100.5z M104.1,30.4
				c0.3,0,0.4-0.1,0.4-0.4c0-1.6-1.1-2.4-2.4-2.4c-0.8,0-1.4,0.3-2.1,0.9c-0.6,0.6-1,1.6-1,2.6c0,1.6,1.1,3.1,3,3.1
				c0.5,0,1.6-0.3,2.5-1.5l-0.2-0.3c-0.5,0.5-1.1,0.7-1.6,0.7c-1,0-2.1-0.6-2.1-2.5L104.1,30.4z M82.3,29.1v-1.6
				c-0.8,0.3-1.5,0.5-2.3,0.6v0.4c0.7,0.1,0.9,0.2,0.9,1v3c0,0.9-0.2,1-1,1.1V34h3.7v-0.4c-1.1-0.1-1.2-0.2-1.2-1.1v-2.6
				c0.3-0.7,0.7-1,1-1c0.2,0,0.5,0.2,0.8,0.4c0.1,0.1,0.2,0.1,0.3,0c0.3-0.2,0.6-0.6,0.6-1c0-0.4-0.4-0.7-0.9-0.7
				C83.4,27.5,82.8,28.3,82.3,29.1L82.3,29.1z M89.6,29.4c0-0.3-0.2-1.3-0.3-1.6c-0.3-0.1-0.8-0.2-1.4-0.2c-1.4,0-2.3,0.9-2.3,1.9
				c0,1.2,1.1,1.7,1.8,2c0.8,0.4,1.1,0.7,1.1,1.2c0,0.5-0.4,0.9-0.9,0.9c-0.9,0-1.5-0.9-1.8-1.8l-0.4,0c0,0.6,0.1,1.6,0.2,1.8
				c0.3,0.2,1,0.5,1.8,0.5c1.2,0,2.5-0.7,2.5-2c0-1.1-0.8-1.6-1.9-2c-0.7-0.3-1.2-0.6-1.2-1.2c0-0.5,0.4-0.9,0.9-0.9
				c0.8,0,1.2,0.6,1.5,1.4L89.6,29.4z M92.2,26.4c0.5,0,0.9-0.4,0.9-0.9c0-0.5-0.4-0.9-0.9-0.9c-0.5,0-0.9,0.4-0.9,0.9
				C91.4,26,91.8,26.4,92.2,26.4 M94.1,34v-0.4c-0.9-0.1-1-0.2-1-1.2v-4.9c-0.6,0.2-1.8,0.4-2.5,0.5v0.4c0.8,0.1,1,0.2,1,1.1v2.9
				c0,1-0.2,1.1-1,1.2V34H94.1z M106.7,26.4c0.5,0,0.9-0.4,0.9-0.9c0-0.5-0.4-0.9-0.9-0.9c-0.5,0-0.9,0.4-0.9,0.9
				C105.9,26,106.3,26.4,106.7,26.4 M108.6,34v-0.4c-0.9-0.1-1-0.2-1-1.2v-4.9c-0.6,0.2-1.8,0.4-2.5,0.5v0.4c0.8,0.1,1,0.2,1,1.1
				v2.9c0,1-0.2,1.1-1,1.2V34H108.6z M109.8,26.7v1.1h-0.8l-0.3,0.5v0.2h1v4c0,1.2,0.7,1.8,1.7,1.8c0.3,0,0.3,0,0.4-0.1
				c0.3-0.1,1-0.5,1.3-0.7l-0.2-0.4c-0.2,0.1-0.6,0.3-0.9,0.3c-0.3,0-0.8-0.2-0.8-1.3v-3.5h1.6c0.1-0.1,0.2-0.5,0.2-0.7h-1.7v-1.9
				l-0.2-0.1C110.9,26.1,110.2,26.5,109.8,26.7 M95.3,26.7v1.1h-0.8l-0.3,0.5v0.2h1v4c0,1.2,0.7,1.8,1.7,1.8c0.3,0,0.3,0,0.4-0.1
				c0.3-0.1,1-0.5,1.3-0.7L98.6,33c-0.2,0.1-0.6,0.3-0.9,0.3c-0.3,0-0.8-0.2-0.8-1.3v-3.5h1.6c0.1-0.1,0.2-0.5,0.2-0.7h-1.7v-1.9
				l-0.2-0.1C96.3,26.1,95.7,26.5,95.3,26.7 M71,34c0.7-2.1,1.1-3.5,1.7-5c0.2-0.7,0.4-0.8,1.1-0.8v-0.4H71l0,0.4
				c0.1,0,0.4,0,0.5,0.1c0.3,0.1,0.4,0.3,0.2,0.7l-1.2,4.1h-0.1L69.4,29c-0.1-0.4-0.1-0.6,0.1-0.7c0.2-0.1,0.5-0.1,0.6-0.1v-0.4
				h-3.3v0.4c0.8,0.1,0.7,0.2,1,0.9l1.6,4.9H71z M55.5,28.4c0.8,0.1,1,0.2,1,1.1v3c0,0.9-0.2,1-1.1,1.1V34h3.4v-0.4
				c-0.7-0.1-0.9-0.1-0.9-1.1v-3.4c0.4-0.3,0.9-0.6,1.2-0.6c0.7,0,1.3,0.4,1.3,1.5v2.4c0,1-0.1,1.1-0.8,1.2V34h3.2v-0.4
				c-0.8-0.1-1-0.1-1-1.1v-2.7c0-1.4-0.7-2.3-1.8-2.3c-0.4,0-0.7,0.1-0.9,0.3L58,28.6v-1.1c-0.6,0.2-1.8,0.5-2.5,0.6V28.4z
				 M62.1,40.8c0.5,0,0.9-0.4,0.9-0.9c0-0.5-0.4-0.9-0.9-0.9c-0.5,0-0.9,0.4-0.9,0.9C61.2,40.4,61.6,40.8,62.1,40.8 M64,48.3v-0.4
				c-0.9-0.1-1-0.2-1-1.2v-4.9c-0.6,0.2-1.8,0.4-2.5,0.5v0.4c0.8,0.1,1,0.2,1,1.1v2.9c0,1-0.2,1.1-1,1.2v0.4H64z M55.7,44.3
				c0.1-1,0.6-1.9,1.4-1.9c0.7,0,1.1,0.7,1.1,1.6c0,0.2-0.1,0.3-0.3,0.3H55.7z M59.3,44.8c0.3,0,0.4-0.1,0.4-0.4
				c0-1.6-1.1-2.4-2.4-2.4c-0.8,0-1.4,0.3-2.1,0.9c-0.6,0.6-1,1.6-1,2.6c0,1.6,1.1,3.1,3,3.1c0.5,0,1.6-0.3,2.5-1.5l-0.2-0.3
				c-0.5,0.5-1.1,0.7-1.6,0.7c-1,0-2.1-0.6-2.1-2.5L59.3,44.8z M73.6,44.3c0.1-1,0.6-1.9,1.4-1.9c0.7,0,1.1,0.7,1.1,1.6
				c0,0.2-0.1,0.3-0.3,0.3H73.6z M77.2,44.8c0.3,0,0.4-0.1,0.4-0.4c0-1.6-1.1-2.4-2.4-2.4c-0.8,0-1.4,0.3-2.1,0.9
				c-0.6,0.6-1,1.6-1,2.6c0,1.6,1.1,3.1,3,3.1c0.5,0,1.6-0.3,2.5-1.5l-0.2-0.3c-0.5,0.5-1.1,0.7-1.6,0.7c-1,0-2.1-0.6-2.1-2.5
				L77.2,44.8z M53,45.8c-0.2,0.7-0.5,1.1-0.8,1.4c-0.4,0.3-0.8,0.5-1.5,0.5c-0.5,0-0.9,0-1.1-0.2c-0.3-0.1-0.3-0.4-0.3-1.1v-4.9
				c0-1.2,0.2-1.3,1.3-1.4v-0.5h-4.1v0.5c1.1,0.1,1.3,0.2,1.3,1.4v5c0,1.2-0.2,1.3-1.4,1.4v0.5H53c0.1-0.4,0.4-1.9,0.5-2.4L53,45.8z
				 M69,47.2c-0.3,0.2-0.7,0.4-1.1,0.4c-0.8,0-1.8-0.8-1.8-2.5c0-2.1,1.1-2.6,1.6-2.6c0.6,0,1,0.2,1.3,0.6V47.2z M71.6,47.6l-0.4,0
				c-0.6-0.1-0.7-0.1-0.7-0.9v-8c-0.6,0.2-1.8,0.4-2.6,0.5v0.4c1,0.1,1.1,0.1,1.1,1V42c-0.3-0.1-0.8-0.1-0.9-0.1
				c-2.3,0-3.6,1.6-3.6,3.5c0,2.1,1.5,3,2.6,3c0.2,0,0.6,0,1-0.2l0.9-0.5v0.9c0.5-0.2,1.8-0.4,2.6-0.6V47.6z M78.2,42.8
				c0.8,0.1,1,0.2,1,1.1v3c0,0.9-0.1,1-1.1,1.1v0.4h3.4v-0.4c-0.7-0.1-0.8-0.1-0.8-1.1v-3.4c0.4-0.3,0.9-0.6,1.2-0.6
				c0.7,0,1.3,0.4,1.3,1.5v2.4c0,1-0.1,1.1-0.8,1.2v0.4h3.2v-0.4c-0.8-0.1-0.9-0.1-0.9-1.1v-2.7c0-1.4-0.7-2.3-1.8-2.3
				c-0.4,0-0.7,0.1-0.9,0.3l-1.2,0.8v-1.1c-0.6,0.2-1.8,0.5-2.5,0.6V42.8z"/>
			<path clip-path="url(#SVGID_4_)" fill="#FFFFFF" d="M20.8,16.3C9.6,16.3,0.4,26.9,0.4,40c0,13.1,9.1,23.7,20.3,23.7
				S41.1,53.1,41.1,40C41.1,26.9,32,16.3,20.8,16.3"/>
			<path clip-path="url(#SVGID_4_)" fill="#17498B" d="M9.2,28.8c0.2,0,0.5-0.1,0.8-0.2v1.7c0,0.2,0,0.2,0.3,0.2v0.1h-1v-0.1
				c0.2,0,0.3,0,0.3-0.2V29c0-0.1,0-0.2-0.1-0.2l-0.2,0V28.8z M29.5,28.6c0,0.1,0,0.3-0.1,0.6h0.1c0.1-0.2,0.1-0.2,0.3-0.2h0.7
				c-0.3,0.5-0.6,1.1-1,1.6l0,0l0.5,0c0.3-0.6,0.6-1.3,0.9-2l0,0H29.5z M31.3,28.6l-0.1,1c0.1,0,0.2-0.1,0.3-0.1
				c0.3,0,0.4,0.2,0.4,0.5c0,0.3-0.1,0.4-0.2,0.4c-0.1,0-0.3-0.2-0.4-0.2c0,0-0.1,0-0.1,0c-0.1,0-0.1,0.1-0.1,0.2c0,0.1,0,0.1,0,0.1
				c0.1,0,0.2,0.1,0.4,0.1c0.2,0,0.4-0.1,0.6-0.2c0.2-0.2,0.3-0.4,0.3-0.6c0-0.3-0.2-0.6-0.7-0.6c-0.1,0-0.3,0-0.4,0.1l0.1-0.4h0.8
				l0.1-0.4H31.3z M10.8,28.6l-0.1,1c0.1,0,0.2-0.1,0.3-0.1c0.3,0,0.4,0.2,0.4,0.5c0,0.3-0.1,0.4-0.2,0.4c-0.1,0-0.3-0.2-0.4-0.2
				c0,0-0.1,0-0.1,0c-0.1,0-0.1,0.1-0.1,0.2c0,0.1,0,0.1,0,0.1c0.1,0,0.2,0.1,0.4,0.1c0.2,0,0.4-0.1,0.6-0.2
				c0.2-0.2,0.3-0.4,0.3-0.6c0-0.3-0.2-0.6-0.7-0.6c-0.1,0-0.3,0-0.4,0.1L11,29h0.8l0.1-0.4H10.8z M41.1,40
				c0,13.1-9.1,23.7-20.3,23.7S0.4,53.1,0.4,40c0-13.1,9.1-23.7,20.3-23.7S41.1,26.9,41.1,40 M41.4,40c0-13.2-9.3-24-20.7-24
				C9.4,16,0.1,26.8,0.1,40c0,13.2,9.3,24,20.7,24C32.2,64,41.4,53.2,41.4,40 M20.1,25.5c0.1,0.1,0.2,0.1,0.3,0.1
				c0.2,0,0.3-0.2,0.3-0.3c-0.1,0-0.1,0-0.3,0c-0.1,0-0.1,0.1-0.1,0.1C20.2,25.4,20.1,25.5,20.1,25.5 M20.1,25.1
				c-0.1,0-0.1,0.1-0.1,0.1c0,0,0-0.1,0.1,0c0,0,0.1,0,0.1,0c0,0,0.1,0,0.1,0c0,0,0.1-0.1,0-0.1c0,0-0.1,0-0.1,0
				C20.2,25.1,20.3,25.1,20.1,25.1C20.2,25.1,20.2,25.1,20.1,25.1 M20.5,24.4L20.5,24.4L20.5,24.4L20.5,24.4z M21,24.2
				c-0.2,0-0.6,0.1-0.6,0.2c0,0,0,0.1,0,0.1c0,0,0.1,0,0.1,0c0,0,0,0,0,0c0,0,0,0,0,0c0,0.1,0.1,0.1,0.2,0.1c0.1,0,0.1-0.1,0.1-0.2
				c0,0,0-0.1-0.1-0.1C20.8,24.3,20.9,24.3,21,24.2C21,24.3,21.1,24.2,21,24.2C21.1,24.2,21,24.2,21,24.2 M20.1,24.1
				c0.4-0.2,0.7-0.4,1.2-0.4c0.5,0,0.5,0.3,0.5,0.3c0.2-0.2,0.1-0.6-0.5-0.6C20.6,23.5,20.3,23.9,20.1,24.1 M20.7,35.7
				c-0.9-0.1-1-0.7-1-1c0-0.2,0.2-0.1-0.2-0.3c-0.7-0.4-1.3-0.1-1.3-0.1l0.1,0.1c0.6,0,0.9,0.3,0.9,0.3c-0.1,1.6,1,1.5,1,1.5
				c0.2,0.3,0.5,0.4,0.7,0.4c0.1,0,0.2-0.1,0.3-0.1C20.7,36.3,20.7,35.7,20.7,35.7 M23.3,36c0,0,0.4-0.1,0.4-0.2
				c0-0.2,0.2-0.3,0.3-0.4c0.1,0,0.1-0.1,0.1-0.1c0-0.2,0-0.3-0.2-0.5c-0.5-0.7-0.5-1.3-0.6-1.4c0-0.1-0.1,0-0.1,0s0.3,1.4-0.2,1.5
				c0,0,0.1,0.7-0.6,0.8c-0.1,0-0.1,0.1-0.1,0.1c0,0.1-0.1,0.3-0.1,0.4C22.7,36.1,23,36.1,23.3,36C23.4,36,23.4,36,23.3,36
				 M23.4,32.8c0.1,0,0.3-0.1,0.5-0.1c0.3,0,0.4,0.2,0.4,0.2l0.1,0.3c0,0,0.3,0.1,0.4,0c0.1-0.1,0-0.3-0.1-0.4
				c-0.2-0.2-0.3-0.3-0.7-0.3C23.7,32.5,23.4,32.7,23.4,32.8L23.4,32.8 M16.5,30.8C16.1,31,16,31.6,16,32.4c0,1.1,0.6,1.2,1,0.6
				c0.4-0.4,0.5-0.9,0.4-0.9c-0.2,0.1-0.7,0.1-0.9-0.1c-0.3-0.4-0.1-0.9,0-1.1L16.5,30.8 M23,48.5c-0.5-0.3-1-0.9-1.4-1.5
				c-1.1-1.7-1.2-3.2-1.2-7.1c0-0.2,0-0.3,0-0.5l-0.6-0.1c0,0-0.1,4.1-0.1,4.6c0,0.6,0.2,1.2,0.3,0c0-0.6-0.1-2.4,0.1-2.4
				c0.2,0,0.3,7,0,7c-0.5,0-0.6-0.1-1.3-0.1c-0.3-0.3-0.9-0.3-1-0.2c0,0,0.2,0.1,0.5,0.2l-7.4,1.9l-0.5-0.3l-3.1,1.3l3.4-0.3
				l0.2-0.5l7.6-2c0.3,0.1,0.7,0.3,0.7,0.3c0.1,0.1,1-0.1,1,0.3c0,0.2-0.3,0.4-0.5,0.5c-0.3,0.1-0.6,0-0.6,0.1
				c0,0.1,0.6,0.2,0.9,0.1c0.2-0.1,1-0.3,1.4-0.8C21.2,49,22.8,48.9,23,48.5C23.1,48.6,23,48.5,23,48.5 M10.5,50.8l-2,0.3l2.1-0.6
				L10.5,50.8z M11,37.9c0,0,1,0.1,1-0.4c0-0.3-0.1-0.3-0.3-0.3c-0.1,0-0.2,0.1-0.1,0.3C11.7,37.5,11.9,37.7,11,37.9 M10.3,37.4
				c0,0.1,0,0.1,0.1,0.1c0.1,0,0.1-0.1,0.1-0.1c0,0,0,0,0-0.1l0.1,0c0,0,0.1,0,0.1-0.1c0,0,0-0.1-0.1-0.1l-0.4,0c0,0-0.1,0-0.1,0
				c0,0,0,0,0.1,0L10.3,37.4C10.3,37.3,10.3,37.4,10.3,37.4 M13.2,41.2c0.1-0.2,0.6-0.2,0.8,0.1c0,0-0.4,0-0.5,0.1
				c0,0,0.5,0.2,0.4,0.5c0,0-0.2-0.2-0.4-0.2c0,0,0.1,0.4-0.1,0.6c0,0-0.1-0.4-0.3-0.4c-0.2,0-0.2,0.2-0.2,0.3c0,0-0.2-0.1-0.2-0.4
				c0-0.2-0.1-0.2-0.2-0.2c-0.1,0-0.7-0.1-1.4-0.9c0,0-0.5,0.3-1,0.3c0,0-0.1,0.2,0.1,0.2c0.2,0,0.9,0,1.4,0.7
				c0.1,0.1,0.2,0.2,0.6,0.2c0,0,0,0.4-0.7,0.4c0,0,0.4,0.3,0.7,0.6c0.1,0.1,0.2,0,0.3,0c0.1-0.1,0.6-0.4,0.8,0.1c0,0-0.3-0.1-0.4,0
				c0,0,0.3,0.3,0.2,0.6c0,0-0.2-0.3-0.4-0.2c-0.1,0,0.1,0.3-0.2,0.4c0,0,0-0.4-0.3-0.4c0,0,0.1,0.2-0.3,0.3c0,0,0.2-0.5-0.1-0.6
				c-0.1,0-1.5-0.2-1.7-0.8c0,0,0.2-0.1,0.4-0.2c0,0-0.8-0.6-1-1c0,0-0.2,0-0.1,0.1c0.1,0.1,0.2,0.2,0.1,1.1c0,0.2,0.1,0.5,0.3,0.6
				c0,0-0.5,0.2-1-0.4c0,0,0,1.2,0.6,1.2c0.3,0,0.8,0,0.8,0.7c0,0-0.3-0.3-0.5-0.2c0,0,0.2,0.2,0.1,0.4c0,0-0.2-0.3-0.4-0.3
				c0,0,0.1,0.2,0,0.4c0,0-0.2-0.5-0.3-0.5c-0.1,0-0.2,0.2-0.2,0.4c0,0-0.3-0.1-0.2-0.4C8.9,44.3,9,44.3,9,44.2
				c0.1-0.1-1.7-0.7-1.5-2c0,0,0.3,0.2,0.5,0.1c0.2-0.2,0.1-0.6-0.3-0.9c0,0,0.3-0.1,0.5-0.2c0.1,0,0-0.2,0.1-0.3
				c-0.2,0-0.5,0-0.7-0.2c-0.2-0.2-0.2-0.4-0.1-0.7c0.1-0.3,0.4-0.7,0.6-1.1c0.1-0.1,0.1-0.2,0.2-0.3c0.1-0.2,0.3-0.6,0.2-0.8
				c-0.1-0.1-0.2-0.2-0.3-0.2c-0.1,0-0.2,0-0.2,0c0.1,0.3-0.1,0.6-0.4,0.8c-0.5,0.3-0.4,0.7-0.4,0.7S7,38.3,7.1,37.8
				c0.1-0.4,0.4-0.8,0.8-0.5c0,0,0.2,0,0.2,0c0.3,0,0.5,0.1,0.6,0.3C9,38,8.5,38.7,8.5,38.7c-0.1,0.1-0.1,0.2-0.2,0.3
				c-0.2,0.3-0.5,0.7-0.6,1c-0.1,0.2,0,0.4,0.1,0.5c0.2,0.2,0.5,0.2,0.6,0.2c0,0,0.7-0.6,1.2-0.8c0.2-0.1,0.2-0.3,0.1-0.2
				c-0.1,0-0.8,0.1-1-0.3c0,0,0.7-0.2,0.8-0.6c0,0-0.3,0.3-0.7,0c0,0,0.6-0.4,0.5-0.8c0-0.1-0.2-0.6,0-0.7c0.1,0-0.1-0.2-0.3-0.2
				c0,0,0.3-0.3,0.6,0c0,0,0.1,0,0.2,0c0.1,0,0.3-0.1,0.5-0.1c0.2,0,0.3-0.1,0.5,0.2c0,0,0.2,0.1,0.3,0.1c0.1,0,0.1,0.1,0,0.3
				c0,0.1,0,0-0.5,0.1c-0.1,0-0.3,0.5-0.2,0.5c0.1,0,0.5-0.2,0.6-0.1c0.1,0,0.1,0.2,0,0.3c0,0.1-0.2,0-0.3,0c-0.2,0-0.3,0.2-0.1,0.4
				c0.2,0.1,0.7,0.3,1.1-0.5c0,0,0.1,0.2,0.1,0.6L13,38c0,0-0.1-0.6,0.4-0.9c0,0-0.2,0.3-0.1,0.4c0,0,0.3-0.2,0.5-0.2
				c0,0-0.3,0.4-0.3,0.4c0,0,0.4-0.1,0.5,0c0,0-0.4,0.2-0.4,0.3c0,0.1,0.3,0.1,0.5,0.1c0,0-0.1,0.3-0.6,0.3c0,0-0.5,0.7-1.2,1.1
				c-0.2,0.1,0,0.4,0.4,0.2c0.2-0.1,0.3-0.2,0.3-0.2c0,0,0.4,0.8-0.9,0.8c0,0,0.7,0.7,0.8,0.9C13.1,41.4,13.1,41.3,13.2,41.2
				 M33.4,44.6c0,0.1,0,0.1-0.1,0.2c-0.1,0-0.1,0-0.2,0.1c-0.1,0.1-0.1,0.1,0,0.1c0.2,0,0.3-0.2,0.3-0.3c0,0,0.1-0.1,0.2-0.2
				c0.1,0,0-0.1,0-0.1l-0.1,0c0-0.1,0-0.2,0-0.3c0.2,0,0.5,0,0.6-0.2c0,0,0.1-0.1,0.1-0.2c0,0,0-0.1-0.1-0.2c-0.1-0.1-0.4-0.1-0.5,0
				c-0.3,0.1-0.4,0-0.5-0.1c0,0,0-0.1,0-0.1c0.1,0,0.2,0,0.3,0c0.1,0,0.1-0.2,0-0.2c-0.3-0.1-0.3,0.1-0.3,0.1
				c-0.1,0.1-0.1,0.2,0,0.3c0.1,0.1,0.4,0.2,0.6,0.1c0.2-0.1,0.4,0,0.5,0c0,0,0,0.1,0,0.1c0,0,0,0.1-0.1,0.1C34,44,33.6,44,33.4,44
				c-0.2-0.1-0.5,0.1-0.6,0.1c-0.1,0.1-0.2,0.1-0.3,0.1c-0.1-0.1,0.2-0.3,0.2-0.4c0-0.1,0-0.1,0-0.1c-0.3,0.1-0.3-0.1-0.3-0.1
				c0-0.1-0.1,0-0.1,0c0,0.1,0.1,0.4-0.2,0.5c-0.5,0.1-0.6-0.3-0.6-0.3l-0.1,0c0,0.2,0.2,0.3,0.3,0.4c0.1,0.1,0.1,0.1,0.1,0.2
				l0.1,0.1c0,0-0.1,0.2-0.1,0.2c0,0.1-0.3,0.3-0.3,0.3c-0.1,0-0.3,0.1-0.2,0.1c0.1,0.1,0.3,0,0.3,0c0-0.1,0.4-0.4,0.5-0.5
				c0,0,0.5-0.1,0.6-0.2c0.1-0.1,0.1,0,0.1,0c-0.1,0.1-0.3,0.5-0.3,0.5c-0.1,0-0.3,0.1-0.2,0.2c0.1,0.1,0.3-0.1,0.3-0.1
				c0,0,0.1-0.2,0.1-0.2l0.2-0.4l0.2-0.1c0,0,0,0.1,0.2,0.2C33.5,44.6,33.4,44.6,33.4,44.6 M33.6,37.1l0.2-0.3L33.4,37l0-0.3
				L33.2,37l-0.2-0.3l0,0.3L33.6,37.1z M28.7,37.3c-0.4-0.1-0.4-0.2-0.3-0.2c0.1-0.1,0-0.1-0.1-0.2c-0.1,0-0.1,0-0.1,0.2
				C28.2,37.4,28.7,37.3,28.7,37.3 M28,36.4h-0.2v0.4H28V36.4z M30.2,36.5H30v0.4h0.2V36.5z M27.5,38h-0.2v0.4h0.2V38z M27.3,40
				h-0.2v0.4h0.2V40z M28.7,40.5h-0.2v0.4h0.2V40.5z M24,40.9c0-0.1,0-0.3-0.2-0.3c-0.1,0-0.3,0-0.4,0.9c0,0,0.3-0.1,0.5,0
				C24,41.4,24,41,24,40.9 M24.3,37.3c-0.2,0-0.3,0.2-0.4,0.4c0,0.3-0.1,0.5-0.1,0.7c0.1,0,0.1,0,0.1,0c0.1-0.2,0.2-0.5,0.4-0.7
				c0,0,0,0,0,0C24.5,37.4,24.4,37.3,24.3,37.3 M23.4,38.5c0,0,0.1,0,0.1,0c0-0.2,0-0.5-0.1-0.8c-0.1-0.3-0.2-0.4-0.3-0.4
				c-0.1,0.1-0.2,0-0.3,0.3C23.1,37.8,23.3,38.2,23.4,38.5C23.4,38.5,23.4,38.5,23.4,38.5 M25.6,40c0-0.3,0-0.6,0-0.9
				c0,0.1-0.1,0.3-0.1,0.4C25.5,39.6,25.6,39.8,25.6,40 M24,43.3C24,43.3,24,43.4,24,43.3c0.1,0.1,0.1,0.2,0.1,0.2
				c0.2,0.4,0,1.3,0,1.3c0.3-0.6,0.4-1.1,0.2-1.5c0-0.1-0.1-0.2-0.2-0.3C24.2,43,23.9,43.3,24,43.3 M24.5,39.6
				c0.1-0.1,0.2-0.4-0.2-0.7c0,0,0-0.1,0-0.1c0,0,0.1-0.6,0.6-0.8c0.1,0,0.2-0.1,0.3,0c0.1,0.1,0.2,0.4,0.1,0.8
				c0-0.1-0.1-0.2-0.1-0.3c-0.1-0.1-0.2-0.2-0.4-0.1c-0.1,0.1-0.2,0.2-0.1,0.4c0.1,0.3,0.3,0.8,0.5,1.6l0.1,0.3
				c0.1,0.8-0.1,1.3-0.4,2.3c-0.3,0.8-0.6,2.5-0.4,3.4c0.2-1.4,0.6-3,0.8-3.4c0.1-0.2,0.2-0.4,0.3-0.7c-0.1,1.6-0.2,3.2-0.7,4.8
				c-0.2,0.6-0.4,1.1-0.7,1.4c-0.2,0.3-0.4,0.4-0.4,0.4s0,0,0,0c0,0,0,0,0,0c0,0,0,0,0,0c0,0,0,0,0,0c-0.2-0.1-0.8-0.6-1.4-1.3
				c-0.2-0.2-0.4-0.5-0.5-0.8c-0.7-1.3-1-2.3-1-4.5c0-0.5,0-1,0-1.6c0-0.2,0-0.4,0-0.6c0-1.9,0.2-2.9,0.2-2.9s0.4-0.1,1.4-0.4
				c0.4-0.1,1.1-0.2,1.7-0.1c0,0,0,0.1,0,0.1c0,0.1,0.1,0.1,0.2,0.2c-0.1,0.1-0.3,0.2-0.4,0.4c-0.1-0.2-0.3-0.4-0.5-0.4
				c-0.3-0.1-0.6,0-0.8,0.5c-0.3-0.1-0.6-0.1-0.9,0.1c-0.4,0.3-0.5,1.2,0.1,2.3c-0.1,0.2-0.1,0.3-0.1,0.4c-0.5,1.6,0.2,2.5,0.7,3.4
				c0.3,0.7,0.9,2.8,1,2.9c0.1-0.3-0.2-2.3-0.6-3.2c-0.3-0.7-1-1.7-0.6-2.9c0.1-0.5,0.4-1,0.5-1.6c0-0.3-0.4-0.7-0.5-0.3
				c0,0.2-0.1,0.3-0.1,0.5c-0.3-0.6-0.3-1.1-0.1-1.2c0.1-0.1,0.4,0,0.5,0c0.3,0.2,0.4,0.6,0.5,0.8h0c0.1,0.2,0,0.5,0,0.7
				c-0.1,0.4-0.3,0.5,0,0.8c0.1,0.1,0.4,0.2,0.4,0.3c0,0-0.8,1.7,0.4,1.9c0.3,0,0.5-0.1,0.5-0.2c0-0.1-0.1-0.4,0.1-0.9
				c0.1-0.1,0.3-0.6,0.2-0.8c0-0.1-0.1-0.3-0.1-0.5 M23.7,43.4c0.1-0.2,0.4-0.5,0.4-0.5c0.4-0.4,0.7-0.5,0.8-1
				c0.1-0.4,0.1-0.5,0.2-1c0.1-0.5-0.2-1.1-0.3-0.6c-0.1,0.5-0.1,1-0.3,1.4c-0.2,0.5-0.4,0.6-0.6,0.8c0,0-0.1,0.1-0.1,0.1
				c0,0-0.1,0-0.1-0.1c-0.7-0.3-1-0.4-1.1-1.1c-0.1-0.7,0.1-0.8-0.2-1.5c-0.1-0.1-0.2,0.1-0.2,0.3c0,0.1,0,0.2,0,0.4
				c0.1,0.3-0.1,0.8,0.1,1.3c0.2,0.6,0.6,0.8,1.3,1.1c-0.1,0.2-0.2,0.4-0.2,0.6c-0.1,0.5,0.2,1,0.3,1.3
				C23.6,44.6,23.4,43.8,23.7,43.4 M25.5,37.6C25.5,37.6,25.5,37.6,25.5,37.6c0,0,0-0.1,0-0.1c0-0.2-0.2-0.4-0.4-0.6
				C25,37,24.8,37,24.7,37c0.1,0.1,0.1,0.3,0.2,0.5C25.2,37.4,25.4,37.5,25.5,37.6 M23.6,39.8c0-0.1,0-0.1,0-0.2
				c0.1,0,0.1-0.1,0.2-0.1c0,0,0-0.1,0-0.1c0,0-0.1,0-0.1,0c-0.2,0.2-0.6,0.2-0.6,0.2c0,0-0.1,0,0,0.1c0,0,0,0.1,0.1,0.1
				c0,0,0.2,0,0.3-0.1c0,0,0,0.1,0,0.1c0,0.1,0.1,0.2,0.1,0.2C23.5,39.9,23.6,39.9,23.6,39.8 M24.5,39.6c-0.3-0.1-0.5-0.2-0.5-0.2
				c0,0-0.1,0-0.1,0c0,0,0,0.1,0,0.1c0,0,0.1,0,0.2,0.1c0,0-0.1,0.1-0.1,0.2c0,0.1,0,0.2,0.1,0.2c0.1,0,0.1-0.1,0.1-0.2
				c0,0,0-0.1,0-0.1c0.1,0,0.2,0.1,0.3,0.1 M23.9,40.5c-0.1,0-0.3,0-0.4,0.9c0,0,0.3-0.1,0.5,0c0,0,0-0.4,0.1-0.5
				C24.1,40.8,24.1,40.6,23.9,40.5 M23.8,40.2C23.8,40.2,23.8,40.2,23.8,40.2c-0.1,0-0.2,0-0.2,0.1c0,0,0.1-0.1,0.1,0
				c0,0,0.1,0,0.1,0c0,0,0.1,0,0.1,0c0,0,0.1-0.1,0-0.1C24,40.2,24,40.2,23.8,40.2C23.9,40.2,23.9,40.2,23.8,40.2 M12.9,48.2
				C12.9,48.2,12.9,48.2,12.9,48.2L12.9,48.2C12.9,48.2,12.9,48.2,12.9,48.2 M7.9,48.2L7.9,48.2C7.9,48.2,7.9,48.2,7.9,48.2
				C7.9,48.2,7.9,48.2,7.9,48.2 M16.7,56.3c0,2.2,1.8,4,4,4s4-1.8,4-4v-5.6h-8.1V56.3 M34.1,51.9c-2.6,4.1-6.4,7-10.9,7.8
				c-0.7,0.5-1.5,0.8-2.4,0.8c-0.9,0-1.8-0.3-2.4-0.8c-4.4-0.8-8.3-3.7-10.8-7.8h9.1v-1.2v-0.1h0.1h8.2H25v0.1v1.2H34.1 M23.5,56.5
				c0-0.2,0.1-0.6-0.3-0.6c-0.4-0.1-0.7,0.5-0.7,0.5c0,0.1-0.1,0.1-0.1,0.1c-0.1,0-0.6,0.1-0.6,0.6c0,0.4,0.4,0.4,0.5,0.5
				c0.2,0,0.4,0,0.6-0.1c0.1,0,0.2,0,0.3,0c0-0.1,0.1-0.2,0.1-0.3C23.4,56.9,23.5,56.8,23.5,56.5 M23.8,57.3c0.1,0,0.2,0.1,0.1,0.2
				c0,0.1-0.1,0.2-0.2,0.1c-0.1,0-0.3,0-0.4,0c0,0.1-0.1,0.2-0.1,0.4c0,0.1-0.1,0.2-0.2,0.2C23,58.2,23,58.1,23,58
				c0-0.1,0-0.2,0-0.2c0,0,0,0,0,0c-0.2,0.1-0.4,0.1-0.7,0.1c-0.6,0-0.9-0.4-0.9-0.9c0-0.5,0.4-0.7,0.7-0.8l-1.3-1.7l-1.3,1.7
				c0.3,0.1,0.7,0.3,0.7,0.8c0,0.5-0.3,0.8-0.9,0.9c-0.3,0-0.5,0-0.7-0.1c0,0,0,0,0,0c0,0.1,0,0.2,0,0.2c0,0.1-0.1,0.2-0.2,0.2
				c-0.1,0-0.2-0.1-0.2-0.2c0-0.1,0-0.3-0.1-0.4c-0.1,0-0.2,0-0.4,0c-0.1,0-0.2,0-0.2-0.1c0-0.1,0-0.2,0.1-0.2c0.1,0,0.2,0,0.2,0
				c0,0,0,0,0,0c-0.1-0.2-0.2-0.4-0.3-0.7c-0.1-0.6,0.1-1,0.6-1.1c0.4-0.1,0.8,0.2,0.9,0.5l1.4-1.8l-0.8-1l-1.4,1.1l-0.3-0.3
				l0.7-0.5L18.5,53l-0.7,0.5l-0.5-0.7l0.3-0.3l0.3,0.3l0.3-0.3l-0.3-0.3l0.3-0.3l0.5,0.7l0.3-0.3l-0.5-0.7l0.3-0.2l1.8,2.3l1.8-2.3
				l0.3,0.2l-0.5,0.7l0.3,0.3l0.5-0.7l0.3,0.3l-0.3,0.3l0.3,0.3l0.3-0.3l0.3,0.3l-0.5,0.7L23,53l-0.3,0.3l0.7,0.5l-0.3,0.3l-1.4-1.1
				l-0.8,1l1.4,1.8c0.2-0.3,0.5-0.6,0.9-0.5c0.5,0.1,0.7,0.5,0.6,1.1c-0.1,0.3-0.2,0.5-0.3,0.7c0,0,0,0,0,0
				C23.7,57.3,23.7,57.3,23.8,57.3 M19.7,57c0-0.5-0.6-0.6-0.6-0.6c-0.1,0-0.1-0.1-0.1-0.1c0,0-0.3-0.6-0.7-0.5
				c-0.4,0.1-0.3,0.5-0.3,0.6c0,0.2,0.1,0.4,0.2,0.6c0,0.1,0.1,0.2,0.1,0.3c0.1,0,0.2,0,0.3,0c0.2,0.1,0.4,0.1,0.6,0.1
				C19.4,57.5,19.8,57.4,19.7,57 M18.3,61.8c-0.1,0-0.2-0.1-0.2-0.1c-0.1,0-0.4,0-0.5,0.5c0,0.3,0.1,0.5,0.4,0.5
				c0.2,0,0.2,0,0.2-0.1L18.3,61.8z M18.4,61.2c0.1-0.4,0-0.4-0.3-0.5l0-0.1l1.2,0.2l0,0.1c-0.3,0-0.3,0-0.4,0.3l-0.2,1.1
				c-0.1,0.4,0,0.4,0.2,0.5l0,0.1l-1.2-0.2c-0.5-0.1-0.8-0.3-0.7-0.8c0.1-0.4,0.4-0.6,0.8-0.6c0.1,0,0.1,0,0.2,0l0.2,0.1L18.4,61.2z
				 M15.5,61.1L15.4,61c-0.1,0-0.2-0.1-0.3,0c-0.2,0-0.3,0.2-0.3,0.3c-0.1,0.3,0,0.5,0.3,0.6c0.2,0.1,0.2,0.1,0.2-0.1L15.5,61.1z
				 M15.7,60.6c0.1-0.3,0.1-0.4-0.2-0.5l0-0.1l1.1,0.4l0,0.1c-0.3-0.1-0.3-0.1-0.5,0.3l-0.4,1.1c-0.1,0.3-0.1,0.4,0.2,0.5l0,0.1
				L14.8,62c-0.2-0.1-0.4-0.2-0.5-0.3c-0.1-0.1-0.1-0.3-0.1-0.5c0.1-0.3,0.4-0.4,0.6-0.4c0-0.1-0.1-0.4-0.1-0.6
				c-0.1-0.2-0.1-0.3-0.1-0.4c0-0.1-0.1-0.2-0.2-0.2l0.1-0.1l0.2,0.1c0.4,0.2,0.5,0.3,0.6,0.5c0.1,0.2,0.1,0.5,0.1,0.6
				c0,0.1,0.1,0.2,0.2,0.2l0.1,0L15.7,60.6z M13,59.7l-0.5-0.3l-0.1,0.7l0,0L13,59.7z M12.9,58.8L12.9,58.8
				c-0.2-0.1-0.3-0.1-0.3,0.1l0,0.3l0.6,0.3c0,0,0.2-0.1,0.3-0.2c0.1-0.1,0.1-0.2,0-0.2L13.3,59l0.1-0.1l0.8,0.5l-0.1,0.1
				c-0.2-0.1-0.3-0.1-0.6,0.1L12,60.7l-0.2-0.1l0.3-2c0-0.3,0-0.4-0.2-0.5l0.1-0.1l1,0.6L12.9,58.8z M11,58c0.2-0.3,0.3-0.3,0.5-0.1
				l0.1-0.1l-1.5-1.2c-0.1,0.1-0.4,0.3-0.5,0.4L9.7,57c0.1-0.1,0.3-0.1,0.3-0.2c0.1,0,0.3,0.1,0.4,0.2c0.1,0.1,0.2,0.2,0.2,0.3
				c0,0.1,0,0.2-0.1,0.3L10.2,58L10,57.8c-0.2-0.2-0.2-0.2-0.1-0.4l-0.1-0.1l-0.5,0.6L9.4,58c0.2-0.2,0.2-0.2,0.4,0l0.3,0.2
				l-0.4,0.5c-0.1,0.1-0.1,0.1-0.2,0l-0.1-0.1c-0.2-0.2-0.2-0.3-0.2-0.3c0-0.1,0-0.2,0.1-0.3l-0.1-0.1c-0.1,0.2-0.3,0.4-0.3,0.5
				l1.4,1.2l0.1-0.1c-0.2-0.2-0.2-0.2,0-0.5L11,58z M9,56.5c0.1-0.2,0.3-0.4,0.4-0.5c0-0.1-0.1-0.4-0.3-0.6
				c-0.4-0.4-0.8-0.5-1.1-0.2c-0.3,0.3-0.2,0.6-0.1,1l0.1,0.1c0.1,0.2,0.1,0.4,0,0.5c-0.1,0.1-0.3,0.1-0.5,0c-0.2-0.2-0.1-0.5,0-0.7
				l-0.1-0.1c-0.2,0.2-0.3,0.3-0.4,0.4c0,0.1,0.1,0.3,0.3,0.5C7.6,57.2,8,57.3,8.3,57c0.2-0.2,0.2-0.6,0.1-0.9L8.3,56
				c-0.1-0.3-0.1-0.4,0.1-0.6c0.1-0.1,0.4-0.1,0.5,0.1c0.2,0.2,0.1,0.7,0,0.9L9,56.5z M6.1,54.5c-0.3,0.2-0.3,0.2-0.5,0l-0.1,0.1
				l0.7,1l0.1-0.1c-0.2-0.3-0.2-0.3,0.1-0.5l0.9-0.7c0.3-0.2,0.3-0.2,0.5,0L8,54.2l-0.7-1l-0.1,0.1c0.2,0.3,0.2,0.3-0.1,0.5
				L6.1,54.5z M5.9,52.1c0.2-0.1,0.3-0.2,0.2-0.4c-0.3-0.5-0.7-0.5-1.2-0.3c-0.6,0.3-0.7,0.7-0.4,1.2c0.1,0.1,0.1,0.2,0.1,0.2
				c0,0,0.1,0,0.2-0.1L5.9,52.1z M4.3,52.7c-0.2-0.4-0.3-0.7-0.2-1c0-0.2,0.2-0.5,0.5-0.6c0.7-0.4,1.4,0,1.8,0.7l0.5,0.9l-0.1,0.1
				c-0.2-0.3-0.2-0.3-0.5-0.1l-1,0.5c-0.3,0.2-0.3,0.2-0.2,0.5l-0.1,0.1L4.3,52.7z M3.4,49.6c-0.3,0.1-0.4,0.1-0.5-0.2l-0.1,0.1
				l0.5,1.1l0.1-0.1c-0.1-0.3-0.1-0.3,0.2-0.5l1-0.4C5,49.5,5,49.5,5.2,49.8l0.1-0.1l-0.5-1.1l-0.1,0.1C4.8,49,4.8,49,4.5,49.1
				L3.4,49.6z M2.5,48.6l0.1,0c-0.1-0.3-0.1-0.3,0.3-0.4l0.7-0.2c0.4-0.1,0.6-0.3,0.7-0.5c0.1-0.2,0.1-0.5,0-0.7
				c-0.1-0.3-0.2-0.5-0.4-0.6C3.6,46,3.3,46,3,46.1l-0.3,0.1c-0.3,0.1-0.5,0.1-0.6,0.1c-0.1,0-0.2-0.1-0.3-0.2l-0.1,0L2,47l0.1,0
				c-0.1-0.2,0-0.3,0.1-0.4c0.1,0,0.3-0.1,0.6-0.2L3,46.3c0.5-0.1,0.9-0.1,1,0.3c0.1,0.4-0.2,0.7-0.7,0.8l-0.6,0.2
				c-0.4,0.1-0.4,0.1-0.5-0.2l-0.1,0L2.5,48.6z M1.3,43l1.5,0.5l-1.4,0.9l0.1,0.8l0.1,0c0-0.3,0-0.4,0.4-0.4l0.7,0
				c0.3,0,0.5,0,0.6,0c0.1,0,0.2,0.1,0.2,0.3l0.1,0L3.6,44l-0.1,0c0,0.2,0,0.3-0.1,0.4c-0.1,0-0.2,0-0.6,0.1L2,44.5l0,0l1.6-0.9
				l0-0.1l-1.9-0.6l0,0l1.3-0.2c0.3,0,0.4,0,0.4,0.3l0.1,0l-0.2-1.2l-0.1,0c0,0.3,0,0.4-0.3,0.4l-1.2,0.2c-0.3,0.1-0.3,0-0.4-0.3
				l-0.1,0L1.3,43z M2.1,40c-0.3,0-0.5,0.3-0.5,0.6c0,0.3,0.3,0.5,0.6,0.5c0.3,0,0.5-0.3,0.5-0.6C2.7,40.2,2.4,40,2.1,40 M2.5,38.5
				l0-0.6l-0.7,0.2v0L2.5,38.5z M3.3,38L3.3,38c0-0.2,0-0.3-0.3-0.2l-0.3,0.1l-0.1,0.7c0.1,0,0.2,0.1,0.3,0.1c0.1,0.1,0.2,0,0.2-0.1
				l0-0.1l0.1,0l-0.1,0.9l-0.1,0c0-0.2,0-0.3-0.3-0.5L1.2,38l0-0.2L3,37.2c0.3-0.1,0.3-0.2,0.3-0.4l0.1,0L3.4,38L3.3,38z M2.4,34.2
				c-0.2,0-0.4,0-0.6,0c0,0.1-0.2,0.3-0.2,0.7c-0.1,0.8,0.2,1.5,0.9,1.6c0.6,0.1,1.2-0.2,1.3-1.1c0.1-0.3,0-0.6,0-0.7
				c-0.1-0.1-0.4-0.2-0.6-0.3l0,0.1c0.3,0.3,0.5,0.5,0.4,0.8c-0.1,0.5-0.5,0.7-1.2,0.6c-0.5-0.1-0.9-0.4-0.8-0.9
				c0.1-0.3,0.2-0.5,0.7-0.6L2.4,34.2z M3.4,33l0.2-0.5l-0.8,0.1l0,0L3.4,33z M4.3,32.7L4.3,32.7c0-0.2,0-0.3-0.2-0.2l-0.3,0
				l-0.2,0.6c0,0,0.2,0.1,0.3,0.2C4,33.5,4,33.4,4.1,33.3l0-0.1l0.1,0L4,34.1l-0.1,0c0-0.2,0.1-0.3-0.2-0.5l-1.4-1.2l0-0.2l2-0.2
				c0.3,0,0.3-0.1,0.4-0.3l0.1,0l-0.3,1.1L4.3,32.7z M4.7,30.3c0.3,0.1,0.3,0.1,0.4-0.1c0.2-0.5,0-0.9-0.5-1.1
				c-0.6-0.3-1-0.1-1.2,0.4c-0.1,0.1-0.1,0.2-0.1,0.2c0,0,0.1,0.1,0.1,0.1L4.7,30.3z M3.3,29.3c0.2-0.4,0.4-0.7,0.7-0.8
				c0.2-0.1,0.5-0.1,0.8,0c0.8,0.3,0.8,1.1,0.5,1.8l-0.4,1l-0.1-0.1c0.1-0.3,0.1-0.3-0.2-0.5l-1-0.5c-0.3-0.2-0.4-0.1-0.5,0.1
				l-0.1-0.1L3.3,29.3z M5.8,28.1c0.3,0.2,0.3,0.2,0.2,0.5l0.1,0.1l1-1.7C7,27,6.7,26.7,6.6,26.6l-0.1,0.1C6.7,26.8,6.7,27,6.8,27
				c0,0.1,0,0.3-0.1,0.4c-0.1,0.1-0.2,0.2-0.2,0.3c-0.1,0-0.2,0-0.3-0.1l-0.4-0.3l0.2-0.3C6,26.9,6,26.8,6.2,26.9l0.1-0.1l-0.6-0.4
				l-0.1,0.1c0.2,0.2,0.2,0.2,0.1,0.4l-0.2,0.3l-0.6-0.3c-0.1-0.1-0.1-0.1,0-0.2L5,26.6c0.1-0.2,0.2-0.3,0.3-0.3
				c0.1,0,0.2,0,0.3,0.1l0.1-0.1C5.4,26.1,5.2,26,5.2,26l-0.9,1.5l0.1,0.1c0.2-0.3,0.2-0.3,0.5-0.1L5.8,28.1z M5.8,28.1
				c0.3,0.2,0.3,0.2,0.2,0.5l0.1,0.1l1-1.7C7,27,6.7,26.7,6.6,26.6l-0.1,0.1C6.7,26.8,6.7,27,6.8,27c0,0.1,0,0.3-0.1,0.4
				c-0.1,0.1-0.2,0.2-0.2,0.3c-0.1,0-0.2,0-0.3-0.1l-0.4-0.3l0.2-0.3C6,26.9,6,26.8,6.2,26.9l0.1-0.1l-0.6-0.4l-0.1,0.1
				c0.2,0.2,0.2,0.2,0.1,0.4l-0.2,0.3l-0.6-0.3c-0.1-0.1-0.1-0.1,0-0.2L5,26.6c0.1-0.2,0.2-0.3,0.3-0.3c0.1,0,0.2,0,0.3,0.1l0.1-0.1
				C5.4,26.1,5.2,26,5.2,26l-0.9,1.5l0.1,0.1c0.2-0.3,0.2-0.3,0.5-0.1L5.8,28.1z M7.1,23.4l0.7,1.4l-1.6-0.4l-0.5,0.6l0.1,0.1
				c0.2-0.2,0.3-0.3,0.6,0l0.5,0.5c0.2,0.2,0.3,0.3,0.4,0.4c0.1,0.1,0.1,0.2,0,0.4l0.1,0.1L8,25.8l-0.1-0.1
				c-0.2,0.2-0.3,0.2-0.4,0.1c-0.1-0.1-0.2-0.1-0.5-0.4L6.5,25l0,0l1.7,0.5l0.1-0.1l-0.9-1.8l0,0l1,0.8c0.3,0.2,0.3,0.2,0.1,0.5
				L8.6,25l0.8-0.9L9.3,24c-0.2,0.3-0.3,0.3-0.5,0l-0.9-0.7c-0.3-0.2-0.3-0.2-0.1-0.5l-0.1-0.1L7.1,23.4z M9.3,22
				c-0.2-0.3-0.2-0.3,0-0.5l-0.1-0.1l-0.9,0.8l0.1,0.1c0.2-0.2,0.3-0.2,0.5,0.1l0.8,0.8c0.2,0.3,0.2,0.3,0,0.5l0.1,0.1l0.9-0.8
				l-0.1-0.1c-0.2,0.2-0.3,0.2-0.5-0.1L9.3,22z M11.1,21.5l0.5-0.3L11,20.8l0,0L11.1,21.5z M12,21.8L12,21.8c0.2-0.2,0.2-0.2,0-0.3
				l-0.3-0.2l-0.6,0.4c0,0.1,0.1,0.2,0.1,0.4c0,0.1,0.1,0.2,0.2,0.1l0.1-0.1l0.1,0.1L11,22.7l-0.1-0.1c0.2-0.1,0.2-0.2,0.2-0.5
				l-0.4-1.8l0.1-0.1l1.7,1.1c0.2,0.2,0.3,0.1,0.5,0l0.1,0.1l-0.9,0.6L12,21.8z M13.8,19.5c-0.1-0.3-0.5-0.4-0.7-0.2
				c-0.3,0.1-0.4,0.5-0.2,0.7c0.1,0.3,0.5,0.4,0.7,0.2C13.8,20.1,13.9,19.8,13.8,19.5 M16.8,19.7c0-0.1-0.1-0.5-0.1-0.7l-0.1,0
				c0,0.2,0,0.3-0.1,0.4c0,0.1-0.1,0.2-0.3,0.2c-0.1,0-0.2,0.1-0.3,0c-0.1,0-0.1-0.1-0.2-0.3l-0.4-1c-0.1-0.3-0.1-0.4,0.2-0.5l0-0.1
				l-1.2,0.4l0,0.1c0.3-0.1,0.3-0.1,0.4,0.3l0.4,1.1c0.1,0.3,0.1,0.4-0.2,0.5l0,0.1L16.8,19.7z M16.7,17.4l0,0.1
				c0.3,0,0.3,0,0.4,0.4l0.1,0.7c0.1,0.4,0.2,0.6,0.4,0.7c0.2,0.1,0.5,0.1,0.7,0.1c0.3-0.1,0.5-0.2,0.7-0.4c0.2-0.2,0.2-0.5,0.1-0.9
				l0-0.3c-0.1-0.3-0.1-0.5-0.1-0.6c0-0.1,0.1-0.2,0.3-0.2l0-0.1l-1,0.2l0,0.1c0.2,0,0.3,0,0.4,0.1c0,0.1,0.1,0.3,0.1,0.6l0,0.2
				c0.1,0.5,0,0.9-0.4,1c-0.4,0.1-0.6-0.2-0.7-0.8l-0.1-0.6c-0.1-0.4,0-0.4,0.3-0.5l0-0.1L16.7,17.4z M22.1,17.6c0-0.3,0-0.5,0-0.6
				c-0.1,0-0.4-0.1-0.7-0.1c-0.8,0-1.4,0.4-1.4,1.2c0,0.7,0.5,1.2,1.4,1.2c0.3,0,0.6-0.1,0.8-0.1c0-0.1,0-0.2,0-0.3l0-0.2
				c0-0.2,0-0.2,0.2-0.3l0-0.1l-1.1,0l0,0.1c0.4,0,0.4,0.1,0.4,0.3l0,0.3c0,0.2-0.2,0.2-0.3,0.2c-0.6,0-0.8-0.5-0.8-1
				c0-0.6,0.4-0.9,0.8-0.9c0.3,0,0.6,0.1,0.7,0.6L22.1,17.6z M23.7,18.9c-0.1,0.3,0,0.4,0.2,0.4c0.5,0.1,0.9-0.2,1-0.7
				c0.1-0.6-0.1-1-0.6-1.1c-0.2,0-0.2,0-0.2,0c0,0,0,0.1-0.1,0.2L23.7,18.9z M24.4,17.3c0.4,0.1,0.7,0.2,0.9,0.5
				c0.1,0.2,0.2,0.5,0.1,0.8c-0.2,0.8-0.9,1-1.7,0.9l-1-0.2l0-0.1c0.3,0.1,0.3,0,0.4-0.3l0.2-1.1c0.1-0.4,0.1-0.4-0.2-0.5l0-0.1
				L24.4,17.3z M26.4,17.9L26.4,18c0.3,0.1,0.3,0.2,0.2,0.5l-0.3,0.7c-0.2,0.4-0.2,0.6-0.1,0.8c0.1,0.2,0.3,0.3,0.6,0.4
				c0.3,0.1,0.6,0.1,0.8,0.1c0.2-0.1,0.4-0.3,0.6-0.7l0.1-0.2c0.1-0.3,0.2-0.5,0.3-0.6c0.1-0.1,0.2-0.1,0.4,0l0.1-0.1l-0.9-0.4
				l-0.1,0.1c0.2,0.1,0.3,0.2,0.3,0.3c0,0.1-0.1,0.3-0.2,0.6l-0.1,0.2c-0.2,0.5-0.5,0.7-0.9,0.6c-0.4-0.2-0.4-0.5-0.2-1l0.2-0.6
				c0.1-0.3,0.2-0.3,0.5-0.2l0.1-0.1L26.4,17.9z M30.8,21.3c0.2-0.3,0.3-0.4,0.4-0.5c0.1-0.1,0.2-0.1,0.4,0l0.1-0.1l-0.8-0.5
				l-0.1,0.1c0.2,0.1,0.3,0.2,0.2,0.4c0,0.1-0.1,0.3-0.3,0.6l-0.3,0.4l0,0l-0.3-2l-0.6-0.4l-0.1,0.1c0.3,0.2,0.3,0.3,0.1,0.6
				l-0.3,0.5c-0.2,0.3-0.3,0.4-0.4,0.5c-0.1,0.1-0.2,0.1-0.4,0l-0.1,0.1l0.8,0.5l0.1-0.1c-0.2-0.1-0.3-0.3-0.2-0.4
				c0-0.1,0.1-0.2,0.3-0.5l0.4-0.6l0,0l0.3,2.2l0.2,0.1L30.8,21.3z M31.9,22.3c-0.4,0.4-0.5,1-0.2,1.2c0.2,0.2,0.6,0.2,1.1-0.2
				c0.4-0.4,0.5-0.9,0.2-1.2C32.7,21.8,32.3,21.9,31.9,22.3 M33.1,22c0.5,0.5,0.6,1.2,0.1,1.7c-0.5,0.6-1.3,0.5-1.7,0
				c-0.6-0.6-0.5-1.3-0.1-1.7C32,21.4,32.7,21.6,33.1,22 M34.5,25.1c0.2-0.2,0.3-0.5,0.1-0.8c-0.2-0.2-0.5-0.3-0.8-0.1
				c-0.2,0.2-0.3,0.5-0.1,0.8C34,25.2,34.3,25.2,34.5,25.1 M35.4,26.2l0.1,0.2c0.1,0.2,0.3,0.3,0.6,0.1c0.2-0.1,0.2-0.4,0.1-0.6
				c-0.1-0.2-0.1-0.2-0.2-0.1L35.4,26.2z M35.3,26.3l-0.5,0.3c-0.3,0.2-0.3,0.3-0.1,0.5c0.1,0.2,0.4,0.3,0.6,0.1
				c0.3-0.2,0.3-0.5,0.1-0.7L35.3,26.3z M35.5,25.6c0.3-0.2,0.3-0.2,0.2-0.5l0.1-0.1l0.7,1c0.2,0.4,0.3,0.7,0,0.9
				c-0.2,0.2-0.5,0-0.7-0.1l0,0c0.2,0.3,0.2,0.6-0.1,0.8c-0.4,0.3-0.8-0.1-1.1-0.5l-0.6-0.9l0.1-0.1c0.2,0.2,0.2,0.3,0.5,0.1
				L35.5,25.6z M36.5,28.6l0.2,0.5l0.5-0.6l0,0L36.5,28.6z M36,29.5L36,29.5c0.1,0.2,0.2,0.2,0.3,0l0.2-0.2l-0.3-0.6
				c-0.1,0-0.2,0-0.4,0.1c-0.2,0-0.2,0.1-0.1,0.2l0,0.1l-0.1,0.1l-0.4-0.8l0.1-0.1c0.1,0.2,0.2,0.3,0.5,0.2l1.9-0.1l0.1,0.1L36.6,30
				c-0.2,0.2-0.2,0.3-0.1,0.5l-0.1,0.1l-0.5-1L36,29.5z M38.8,31.1l0.1,0.2c0.1,0.2,0.1,0.3,0.1,0.4c0,0.1-0.1,0.1-0.3,0.2l0.1,0.1
				c0.2-0.1,0.5-0.2,0.6-0.3l0-0.1c-0.1,0-0.1,0-0.1-0.2l-0.5-1.4c0-0.1,0-0.2,0-0.2l0-0.1c-0.2,0.1-0.4,0.1-0.7,0.2l0,0.1
				c0.2,0,0.3,0,0.4,0c0.1,0,0.2,0.1,0.3,0.4l0,0.1l-1.4,0.5c-0.3,0.1-0.4,0.1-0.5-0.2l-0.1,0l0.4,1.2l0.1,0
				c-0.1-0.3-0.1-0.4,0.2-0.5L38.8,31.1z M38.2,33.2l0.1,0.5l0.6-0.4l0,0L38.2,33.2z M37.7,34L37.7,34c0.1,0.2,0.1,0.2,0.3,0.1
				l0.3-0.2l-0.2-0.7c-0.1,0-0.2,0-0.4,0c-0.2,0-0.2,0-0.2,0.2l0,0.1l-0.1,0l-0.2-0.9l0.1,0c0.1,0.2,0.1,0.3,0.5,0.3l1.9,0.3
				l0.1,0.2l-1.6,1.2c-0.2,0.2-0.2,0.3-0.2,0.5l-0.1,0L37.5,34L37.7,34z M37.9,36.2c0.7,0.2,1.7,0.4,1.8,0.5
				c0.3,0.1,0.4,0.2,0.5,0.4l0.1,0l-0.1-0.9l-0.1,0l0,0.1c0,0.2,0,0.2-0.2,0.2c-0.2,0-1-0.2-1.2-0.3l1.1-0.7c0.1-0.1,0.2-0.1,0.2,0
				l0,0.1l0.1,0l-0.2-1.1l-0.1,0c0,0.2,0,0.3-0.2,0.4L37.9,36L37.9,36.2z M39.1,37.8l0,0.6l0.7-0.3l0,0L39.1,37.8z M38.3,38.5
				L38.3,38.5c0,0.2,0.1,0.3,0.3,0.2l0.3-0.1l0-0.7c-0.1,0-0.2-0.1-0.4-0.1c-0.2,0-0.2,0-0.2,0.1l0,0.1l-0.1,0l-0.1-0.9l0.1,0
				c0,0.2,0.1,0.3,0.4,0.4l1.8,0.6l0.1,0.2l-1.8,0.9c-0.3,0.1-0.3,0.2-0.3,0.4l-0.1,0l-0.1-1.1L38.3,38.5z M39.4,41.1
				c0.3,0,0.6-0.2,0.6-0.5c0-0.3-0.2-0.6-0.5-0.6c-0.3,0-0.6,0.2-0.6,0.5C38.9,40.8,39.1,41.1,39.4,41.1 M38,43.6
				c0.1,0,0.5,0.1,0.6,0.2l0-0.1c-0.2-0.1-0.3-0.2-0.4-0.2c-0.1-0.1-0.1-0.2-0.1-0.4c0-0.1,0-0.2,0.1-0.3c0-0.1,0.2-0.1,0.3-0.1
				l1.1,0.1c0.4,0,0.4,0.1,0.4,0.4l0.1,0l0.1-1.2l-0.1,0c-0.1,0.3-0.1,0.3-0.4,0.3l-1.1-0.1c-0.4,0-0.4-0.1-0.4-0.4l-0.1,0L38,43.6z
				 M39.3,45.8c0.4,0.1,0.4,0.1,0.3,0.4l0.1,0L40,45l-0.1,0c-0.1,0.3-0.1,0.3-0.5,0.2L38.3,45c-0.4-0.1-0.4-0.1-0.3-0.4l-0.1,0
				l-0.2,1.2l0.1,0c0.1-0.3,0.1-0.3,0.5-0.2L39.3,45.8z M38.3,48l-0.1,0.2c-0.1,0.2,0,0.4,0.2,0.5c0.2,0.1,0.4-0.1,0.5-0.3
				c0.1-0.2,0.1-0.2-0.1-0.2L38.3,48z M38.1,47.9l-0.5-0.2c-0.3-0.1-0.4,0-0.5,0.2c-0.1,0.2,0,0.5,0.3,0.5c0.3,0.1,0.5-0.1,0.6-0.4
				L38.1,47.9z M38.8,47.6c0.3,0.1,0.4,0.1,0.5-0.2l0.1,0L39,48.7c-0.1,0.4-0.4,0.7-0.7,0.5C38,49.1,38,48.8,38,48.6l0,0
				c-0.1,0.3-0.4,0.5-0.7,0.4c-0.5-0.2-0.4-0.7-0.3-1.2l0.4-1.1l0.1,0c-0.1,0.3-0.1,0.3,0.3,0.5L38.8,47.6z M36.6,50.4
				c-0.3-0.2-0.3-0.2-0.2-0.5l-0.1-0.1l-0.9,1.7c0.1,0.1,0.4,0.3,0.5,0.4l0.1-0.1c-0.1-0.1-0.2-0.2-0.2-0.3c0-0.1,0-0.3,0.1-0.4
				c0.1-0.2,0.1-0.2,0.2-0.3c0.1,0,0.2,0,0.3,0.1l0.4,0.2l-0.1,0.3c-0.1,0.3-0.1,0.3-0.4,0.2l-0.1,0.1l0.7,0.3l0.1-0.1
				c-0.2-0.1-0.2-0.2-0.1-0.4l0.1-0.3l0.6,0.3c0.1,0.1,0.1,0.1,0,0.2l-0.1,0.2c-0.1,0.2-0.2,0.3-0.2,0.3c-0.1,0-0.2,0-0.4,0
				l-0.1,0.1c0.2,0.1,0.5,0.2,0.5,0.2l0.8-1.6l-0.1-0.1c-0.1,0.3-0.2,0.3-0.5,0.1L36.6,50.4z M35.3,53.8l-0.1,0.1
				c-0.1,0.1-0.1,0.2-0.1,0.3c0,0.2,0.1,0.3,0.2,0.4c0.3,0.2,0.5,0.1,0.6-0.1c0.1-0.2,0.1-0.2,0-0.3L35.3,53.8z M34.8,53.4
				c-0.3-0.2-0.3-0.2-0.5,0l-0.1-0.1l0.7-1l0.1,0.1c-0.2,0.3-0.2,0.3,0.1,0.5l0.9,0.6c0.3,0.2,0.3,0.2,0.5,0l0.1,0.1l-0.7,1
				c-0.1,0.2-0.3,0.3-0.4,0.4c-0.1,0.1-0.3,0.1-0.5-0.1c-0.2-0.2-0.3-0.4-0.2-0.7c-0.1,0-0.4,0-0.6,0c-0.2,0-0.4,0-0.4,0
				c-0.1,0-0.2,0.1-0.3,0.1l-0.1-0.1l0.1-0.2c0.3-0.4,0.4-0.4,0.7-0.4c0.2,0,0.5,0,0.6,0c0.1,0,0.2,0,0.2-0.1l0-0.1L34.8,53.4z
				 M33.6,57.3l-0.1,0.1c-0.1,0.1-0.2,0.2-0.3,0.2c-0.1,0-0.2,0-0.3-0.1l-0.1,0.1c0.2,0.1,0.4,0.3,0.5,0.4l0.1-0.1
				c0-0.1,0-0.1,0.1-0.2l1.1-1.1c0.1-0.1,0.1-0.1,0.2-0.1l0.1-0.1c-0.1-0.1-0.3-0.3-0.5-0.5l-0.1,0.1c0.1,0.2,0.1,0.3,0.1,0.3
				c0,0.1,0,0.2-0.2,0.4L34,56.9l-1.1-1c-0.3-0.3-0.3-0.3,0-0.5l-0.1-0.1l-0.9,0.9l0.1,0.1c0.3-0.2,0.3-0.2,0.6,0L33.6,57.3z
				 M31.2,58l-0.4,0.3l0.6,0.4l0,0L31.2,58z M30.3,57.7L30.3,57.7c-0.2,0.2-0.2,0.2,0,0.3l0.3,0.2l0.5-0.4c0-0.1-0.1-0.2-0.1-0.4
				c-0.1-0.1-0.1-0.2-0.2-0.1l-0.1,0.1l-0.1-0.1l0.7-0.5l0.1,0.1c-0.1,0.1-0.2,0.2-0.1,0.6l0.5,1.8l-0.1,0.1l-1.7-1
				c-0.3-0.1-0.3-0.1-0.5,0l-0.1-0.1l0.9-0.7L30.3,57.7z M28.7,61l-0.2,0.1c-0.2,0.1-0.3,0.1-0.4,0.1c-0.1,0-0.1-0.1-0.3-0.2
				L27.7,61c0.1,0.2,0.3,0.4,0.4,0.6l0.1,0c0-0.1,0-0.1,0.1-0.2l1.4-0.7c0.1-0.1,0.1-0.1,0.2,0l0.1,0c-0.1-0.2-0.2-0.4-0.3-0.6
				L29.5,60c0.1,0.2,0.1,0.3,0,0.4c0,0.1-0.1,0.2-0.3,0.3l-0.1,0.1l-0.7-1.3c-0.2-0.3-0.2-0.4,0.1-0.5l-0.1-0.1l-1.1,0.6l0.1,0.1
				c0.3-0.1,0.4-0.1,0.5,0.2L28.7,61z M25.8,61.8c0.1,0.3,0.1,0.4-0.2,0.5l0,0.1l1.1-0.4l0-0.1c-0.3,0.1-0.3,0.1-0.4-0.3L26,60.5
				c-0.1-0.3-0.1-0.4,0.2-0.5l0-0.1L25,60.3l0,0.1c0.3-0.1,0.3-0.1,0.4,0.3L25.8,61.8z M24.1,61.3c-0.1-0.2-0.2-0.5-0.2-0.6
				c-0.1,0-0.3-0.1-0.7-0.1c-0.5,0.1-0.9,0.4-0.8,0.8c0.1,0.4,0.4,0.5,0.8,0.6l0.1,0c0.2,0,0.4,0.1,0.4,0.3c0,0.2-0.1,0.3-0.3,0.4
				c-0.3,0-0.5-0.1-0.6-0.4l-0.1,0c0.1,0.2,0.1,0.4,0.2,0.5c0.1,0,0.3,0,0.5,0c0.6-0.1,0.8-0.4,0.8-0.8c-0.1-0.3-0.4-0.4-0.7-0.5
				l-0.1,0c-0.3-0.1-0.4-0.2-0.4-0.4c0-0.2,0.1-0.3,0.3-0.4c0.3-0.1,0.6,0.3,0.8,0.5L24.1,61.3z M20.2,62.1c0,0.3,0.2,0.6,0.5,0.6
				c0.3,0,0.5-0.3,0.5-0.6c0-0.3-0.2-0.6-0.5-0.6C20.5,61.5,20.2,61.8,20.2,62.1 M14.6,36.3L14.6,36.3
				C14.6,36.3,14.6,36.3,14.6,36.3 M35.5,33.9c0.1-0.1,0.3-0.2,0.5-0.2c0,0,0,0,0,0c-0.2-0.2-0.5-0.2-0.7,0c-0.2,0.2-0.2,0.5,0,0.7
				c0,0,0,0,0,0C35.3,34.2,35.4,34.1,35.5,33.9 M33.1,26.7c2.7,3.5,4.3,8.2,4.3,13.3c0,2.9-0.5,5.6-1.4,8.1c0,0.1-0.1,0.2-0.1,0.2
				l-1.8,0c0.2,0.2,0.3,0.4,0.3,0.6c0,0.4-0.3,0.4-0.7,0.4l-0.2,0h-5h-0.1c-0.3,0-0.6,0-0.7-0.1c-0.1-0.1-0.1-0.2-0.1-0.3
				c0-0.2,0.1-0.4,0.3-0.6h-3.4c0.2-0.3,0.4-0.7,0.6-1.3c0.7-2.4,0.6-5,0.7-7.1c0-1.2,0-1.1,0-2.3c0,0,0.2-0.1,0.1-0.6
				c-0.1-0.2-0.2-0.4-0.5-0.6c0-0.1,0-0.2-0.1-0.3l-0.2-0.1c0,0,0-0.1,0-0.1c0-0.1-0.1-0.3-0.1-0.6c0-0.7-0.5-2.1-0.5-2.1
				s0.1,0,0.3,0c0.3-0.1,0.3-0.5,0.1-0.7c-0.1-0.1-0.3-0.5-0.4-0.6c-0.1-0.2-0.3-0.6-0.3-0.9c-0.1-0.2,0-1.3,0-1.6
				c0.1-2.4-1-2.6-1.4-2.8c-0.2-0.1-0.2-0.1-0.4-0.2c0,0.4-0.7,0.7-1.3,0.7c-0.7,0-1.4-0.3-1.4-0.7c0,0,0-0.1,0.1-0.1l-0.3,0
				c-0.4,0.1-0.5,0.1-0.7,0.1c-0.6,0.2-0.7,0.7-0.7,0.8c-0.2,0.5-0.4,1.1-0.4,1.1c-0.1,0.1-0.1,0.3-0.1,0.3s-0.1-0.2-0.2-0.3
				c-0.1-0.2-1-0.9-1.1-1.1c-0.1-0.1-0.6,0.1-0.6,0.1c1.1,0.9,1.9,1.9,2,2.1c0.1,0.1,0,0.1-0.1,0c-1.1-0.5-2.7-0.4-2.7-0.4L14.5,30
				c1.6-0.2,2.8,0,3.1,0.5c0.1,0.1,0.2,0.2,0.4,0.1c0.2,0,0.2-0.2,0.2-0.3c0,0,0-0.1,0.1-0.2c0.8-1.6,2.8-2.3,2.8-2.3l0.8,2.5
				c0.3,0,0.4,0.1,0.6,0.1c-0.1-0.1-0.4-0.4-0.3-0.6c0,0,0.4,0,0.5-0.1c0.2-0.1,0.5-0.4,0.2-1.1c0-0.1-0.1-0.3-0.1-0.4l0.1,0
				c0,0,0.1,0.2,0.1,0.3c0.4,1-0.1,1.2-0.2,1.4c0,0-0.1,0.1-0.1,0.1c-0.1,0.2,0,0.4,0.1,0.5c0.2,0.1,0.2,0.1,0.2,0.1l0,0.5
				c-0.6-0.3-2.2-0.3-2.1-0.3c0.1,0,0.3-0.1,0.3-0.2c0,0-0.3,0-0.4,0c-0.1,0-0.1-0.1,0-0.1c0,0,0.1,0,0.2-0.1
				c0.3-0.2,0.4-0.4,0.4-0.5c0-0.1-0.1-0.1-0.1-0.1c0-0.1-0.1-0.2-0.2-0.1c-0.1,0-0.5,0.2-0.6,0.3c-0.1,0-0.1-0.1-0.1-0.1
				c0.3-0.3,0.3-0.3,0.4-0.5c0.2-0.3-0.1-0.2-0.2-0.1c-0.2,0.2-0.6,0.6-0.9,0.7c-0.1,0.1-0.2,0-0.1-0.1c0-0.2,0-0.2,0-0.4
				c0-0.1-0.2-0.2-0.2-0.1c0,0.2,0,0.3-0.1,0.5c-0.2,0.2-0.1,0.5-0.2,0.6c-0.8,0.6-1.6,0.4-1.6,0.4c-0.1-0.2-0.7-0.4-1-0.2
				c-0.8,0.8-0.5,2.5-0.4,2.6c0.4,1,1,0.5,1.1,0.4c0.7-0.7,0.9-1.6,0.9-1.6c0.4-0.1,0.6-0.2,0.9-0.4c0.4-0.3,0.6-0.4,0.7-0.5
				c0.2,0,0.4-0.1,0.5-0.1v0.1c-0.4,0.2-1.1,0.8-1.1,0.8c-0.1,0.5-1.3,2.2-0.8,2.5c0.2,0.1,0.1,0.4,0,0.8c0,0-0.3,1.1-0.5,3.1
				c0,0-0.1,0.5,0.1,0.7c0.1,0.1,0.8,0.2,1.3,0.1c0.1,0,0.4,0.1,0.5,0.1c0,0,0,0.9-0.2,0.9c-0.2,0-0.1-0.6-0.2-0.6
				c0,0.1-0.1-0.1-0.2-0.1c-0.2,0-0.5,0-1,0c-0.1,0-0.2,0.1-0.2,0.2c0,0.2,0,0.2-0.1,1.1c0,0.3-0.1,0.5-0.1,0.8c0,0.2,0,1.2,0,1.7
				c-0.1,0.9-0.2,3.3-0.2,4.1c-1.6,0-3.1-0.2-2.5-0.8c0.1-0.1,0.2-0.2,0.3-0.3c0.5-0.4,0.5,0,1-0.8c0.5-0.7,0.6-1.6,0.8-2.3
				c0.2-0.5,0-0.7-0.4,0c-0.1,0.1-0.2,0.4-0.4,0.7c-0.1,0.1-0.3,0.4-0.5,0.5c-0.5,0.2-0.8-0.7-0.2-1.4c0.2-0.3,0.5-0.2,0.5-0.1
				c0,0,0.1,0.2,0.2,0c0.1-0.1,0.2-0.4,0.2-0.4c0.7-1,0.9-2.5,0.9-2.8c0-0.1,0-0.3,0-0.4c0-0.6-0.4-0.8-0.5-0.4
				c-0.1,0.3-0.4,0.3-0.3-0.2c0.3-1.5,1.1-3.3,1.2-3.6c0.1-0.2-0.1-0.3-0.1-0.3c-0.1-0.1-0.1-0.1-0.1-0.3c0.2-0.8,0.9-2.2,0.9-2.2
				c0.1-0.2,0-0.3-0.2,0c-1.7,2.6-2.4,7-2.4,7.3c0,1.1,0.7,0.5,0.7,0.5c-0.2,0.8-0.6,1.2-0.8,1.5c-1.5,2.2-0.9,3.2-0.9,3.2
				c0.2,0.4,0.6,0.8-0.3,1.5c-0.3,0.2-1.2,0.9-0.2,1.6c0.3,0.2,0.6,0.4,0.7,0.5h-1.5c0.2,0.2,0.3,0.4,0.3,0.6c0,0.4-0.3,0.4-0.7,0.4
				l-5.3,0c-0.3,0-0.6,0-0.7-0.1C7,49.1,7,49,7,48.9c0-0.2,0.1-0.4,0.3-0.6l-1.6,0c0-0.1-0.1-0.2-0.1-0.2c-0.9-2.5-1.4-5.2-1.4-8.1
				c0-5.1,1.6-9.8,4.3-13.3c0,0,0,0,0,0v7c-0.2-0.1-0.4-0.1-0.6,0.1c0,0,0,0,0,0c0.2,0,0.4,0,0.5,0.2c0.1,0.1,0.2,0.3,0.2,0.5
				c0,0-0.1,0-0.1,0.1v0.2c0.1,0.2,0.4,0.5,1,0.5c0.4,0,0.9-0.3,0.9-0.9c0,0,0-0.1-0.2-0.1c-0.1,0.2-0.2,0.3-0.5,0.3
				c-0.3,0-0.5-0.2-0.5-0.5c0-0.3,0.2-0.5,0.5-0.5c0.3,0,0.5,0.2,0.5,0.4c0.1,0,0.2,0,0.2-0.3c-0.2,0-0.4-0.2-0.4-0.5
				c0-0.3,0.2-0.5,0.5-0.5c0.3,0,0.5,0.2,0.5,0.5c0,0.2-0.2,0.4-0.4,0.5c0,0.3,0.2,0.3,0.2,0.3c0-0.3,0.2-0.4,0.5-0.4
				c0.3,0,0.5,0.2,0.5,0.5c0,0.3-0.2,0.5-0.5,0.5c-0.2,0-0.4-0.1-0.5-0.3c-0.1,0-0.2,0.1-0.2,0.1c0,0.6,0.5,0.9,0.9,0.9
				c0.8,0,1-0.6,1-0.7c-0.2-0.1-0.3-0.2-0.3-0.4c0-0.1,0-0.2,0.1-0.3c0.2,0,0.4,0,0.5,0.2c0.1,0.1,0.2,0.3,0.2,0.5c0,0,0,0,0,0
				c0.2-0.2,0.2-0.5,0-0.7c-0.1-0.1-0.3-0.2-0.5-0.1v-7.7c0,0-0.7-5.7,8-5.8c8.2-0.1,8.1,5.8,8.1,5.8v7.7c-0.1,0-0.3,0-0.4,0.1
				c-0.2,0.2-0.2,0.5,0,0.7c0,0,0,0,0,0c0-0.2,0-0.4,0.2-0.5c0.1-0.1,0.3-0.2,0.5-0.2c0.1,0.1,0.1,0.2,0.1,0.3
				c0,0.2-0.1,0.4-0.3,0.5c0,0.1,0.2,0.7,1,0.7c0.4,0,0.9-0.3,0.9-0.9c0,0,0-0.1-0.2-0.1c-0.1,0.2-0.2,0.3-0.5,0.3
				c-0.3,0-0.5-0.2-0.5-0.5c0-0.3,0.2-0.5,0.5-0.5c0.3,0,0.5,0.2,0.5,0.4c0.1,0,0.2,0,0.2-0.3c-0.2,0-0.4-0.2-0.4-0.5
				c0-0.3,0.2-0.5,0.5-0.5c0.3,0,0.5,0.2,0.5,0.5c0,0.2-0.2,0.4-0.4,0.5c0,0.3,0.2,0.3,0.2,0.3c0-0.2,0.2-0.4,0.5-0.4
				c0.3,0,0.5,0.2,0.5,0.5c0,0.3-0.2,0.5-0.5,0.5c-0.2,0-0.4-0.1-0.5-0.3c-0.1,0-0.1,0.1-0.1,0.1c0,0.6,0.5,0.9,0.9,0.9
				c0.8,0,1-0.6,1-0.7c-0.1,0-0.1-0.1-0.1-0.1c0-0.2,0-0.4,0.2-0.5c0.1-0.1,0.3-0.2,0.5-0.2c0,0,0,0,0,0c-0.1-0.1-0.3-0.2-0.4-0.1
				L33.1,26.7C33.1,26.6,33.1,26.6,33.1,26.7 M12.7,34.6c0,0,0.1,0.8,0.9,0.8c0.2,0,0.4-0.1,0.5-0.2c-0.1,0.1-0.2,0.1-0.3,0.1
				c-0.6,0-0.8-0.4-0.8-0.6c0-0.1,0-0.1,0-0.1L12.7,34.6z M6.5,34.1C6.5,34.1,6.4,34.1,6.5,34.1c0.1,0,0.3,0.1,0.5,0.2
				c0.1,0.1,0.2,0.3,0.2,0.5c0,0,0,0,0,0c0.2-0.2,0.2-0.5,0-0.7C7,33.9,6.7,33.9,6.5,34.1 M6.1,34.4c0.2-0.2,0.2-0.5,0-0.7
				c-0.2-0.2-0.5-0.2-0.7,0c0,0,0,0,0,0c0.2,0,0.4,0,0.5,0.2C6,34.1,6.1,34.3,6.1,34.4C6.1,34.4,6.1,34.4,6.1,34.4 M6.4,34.9
				c0.2,0.3,0.4,0.5,0.8,0.5c0.2,0,0.4-0.1,0.6-0.2c-0.1,0.1-0.2,0.1-0.4,0.1c-0.4,0-0.6-0.2-0.8-0.5L6.4,34.9z M13.7,48.9
				c0-0.2-0.2-0.4-0.4-0.6c-0.1-0.1-0.2-0.1-0.4-0.2h0c0,0,0,0,0,0c0,0,0,0,0,0h-5c0,0,0,0,0,0c0,0,0,0,0,0h0
				c-0.1,0.1-0.3,0.1-0.4,0.2c-0.3,0.2-0.4,0.4-0.4,0.6c0,0,0,0.1,0,0.1L13.7,48.9C13.7,49,13.7,48.9,13.7,48.9 M14.9,33.7
				C14.8,33.7,14.8,33.8,14.9,33.7c0.2,0,0.3,0.1,0.5,0.2c0.1,0.1,0.2,0.3,0.2,0.5c0,0,0,0,0,0c0.2-0.2,0.2-0.5,0-0.7
				C15.3,33.5,15,33.5,14.9,33.7 M15,34.7c-0.2,0.1-0.5,0.4-0.5,1.2c0,0.2,0,0.3,0,0.4H6.4v5.6c0,1.5,0.8,2.8,2,3.6
				c0.6,0.4,1.3,0.6,2.1,0.6c0.5,0,1-0.1,1.5-0.3c-0.6,0.3-1.3,0.5-2,0.5c-0.5,0-1.1-0.1-1.5-0.3v2h4.2v-2.6c1.2-0.7,2-2,2-3.6v-5.6
				h0c0,0,0-0.1,0-0.4C14.6,35.1,14.8,34.8,15,34.7 M14.5,34.1c-0.2-0.2-0.5-0.2-0.7,0c0,0,0,0,0,0c0.2,0,0.4,0,0.5,0.2
				c0.1,0.1,0.2,0.3,0.2,0.5c0,0,0,0,0,0C14.7,34.6,14.7,34.3,14.5,34.1 M23.6,22.1c0-0.4,0-0.8-0.7-0.8c0.2,0-0.5-0.1-0.5,0.3
				c0,0.2-0.1,0.6-0.6,0.6c0,0-0.8-0.2-0.4-0.4c0.2-0.1,0.5-0.3,0.3-0.8c-0.1-0.2-0.5-0.5-1-0.1c-0.1,0.1,0,0.4-0.2,0.4
				c-0.2,0-0.2-0.2-0.2-0.3c0-0.1-0.1-0.4-0.4-0.4c-0.4,0-0.5,0.3-0.5,0.4c0,0.2,0,0.3,0.2,0.3c0.1,0.1,0.1,0.3-0.2,0.2
				c-0.1,0-0.9-0.8-1.6-0.3c-0.3,0.2-0.3,0.5-0.1,0.7c0.1,0.1,0.1,0.2,0,0.2c-0.1,0.1-0.3,0.6,0.1,1c0.3,0.2,0.8,0.3,1-0.2
				c0.1-0.1,0.1-0.4,0.1-0.8c0-0.1,0.1-0.4,0.5-0.3c0.2,0,0.2,0.2,0.1,0.3c-0.1,0.1-0.6,0.4-0.7,1.4c0,0.2-0.1,0.4-0.4,0.6
				c-0.2,0.1-0.7,0.4-0.2,0.9c0.2,0.3,0.3,0.4-0.3,0.9C18,25.9,17.8,26,18.2,26c0.2,0,1,0,1.6-0.1l-0.1-0.2c-0.5,0.1-1.2,0-1.2,0
				c0.8-0.5,0.3-1.2,0.3-1.2c-0.2-0.3,0-0.5,0.4-0.5c0.4-0.1,0.5,0,0.9,0.1c0,0-0.6-0.1-0.8,0.1l0,0.1c0,0,0,0.1,0,0.2
				c0.5-0.1,0.6-0.2,0.7-0.1c0,0,0,0.1,0,0.1c0,0-0.1,0-0.1,0c0,0-0.1,0-0.2,0c0,0,0.1,0.1,0.1,0.1c0,0.1,0,0.1-0.1,0.2
				c-0.1,0-0.1,0-0.2-0.1c0,0,0-0.1,0-0.1c-0.1,0-0.2,0-0.3,0.1c0,0,0,0,0,0.1c0,0,0,0.1,0,0.1c0.1,0.1,0.1,0.2,0.1,0.3
				c0,0.1,0,0.1,0,0.2c0,0,0,0.1,0.1,0.1c0.1,0.3,0.4,0.8,1,0.7c0,0,0.1,0,0.1,0c0,0,0,0.1,0,0.1c0,0-0.1,0-0.1,0.1
				c-0.2,0.1-0.2,0.1-0.4,0c0,0.1,0,0.2,0,0.2s-0.2,0-0.3,0.1c0,0,0,0,0,0.1c0,0.4,0.5,0.7,1.1,0.7c0.6,0,1.1-0.3,1.1-0.7
				c0,0,0-0.1,0-0.1l0,0c0-0.1-0.1-0.1-0.1-0.2c-0.3-0.5-0.2-0.6-0.2-0.6c0-0.1,0-0.1,0-0.1c0.5,0,1-0.1,1.5-0.2
				c0.1,0,0.2-0.1,0.1-0.2c-0.1-0.1-0.9-0.1-0.9-0.7c0-0.4,0.1-0.9-0.6-1.1c-0.1,0-0.1,0-0.1-0.1c0-0.1-0.1-0.5-0.2-0.7
				c-0.1-0.1-0.3-0.3-0.3-0.4l0.1,0c0,0,0.3,0.1,0.5,0.4c0.1,0.2,0.3,0.4,0.9,0.4C23.4,23,23.6,22.4,23.6,22.1 M34.3,34.1
				c-0.2,0.2-0.2,0.5,0,0.7c0,0,0,0,0,0c0-0.2,0-0.4,0.2-0.5c0.1-0.1,0.3-0.2,0.5-0.2c0,0,0,0,0,0C34.8,33.9,34.5,33.9,34.3,34.1
				 M34.2,35.3c-0.2,0-0.3,0-0.4-0.1c0.1,0.1,0.3,0.2,0.6,0.2c0.4,0,0.6-0.2,0.8-0.5l-0.1-0.1C34.8,35.1,34.5,35.3,34.2,35.3
				 M31.1,39.9h0.2h0.3v-0.4c0-0.2-0.2-0.2-0.3-0.2v-0.1h0.9v0.1c-0.2,0-0.3,0-0.3,0.2v0.4h0.2v0.5c0,0,0.1,0,0.2,0
				c0.3,0,0.4-0.2,0.4-0.5c0-0.2,0-0.2,0-0.3h0.1c0,0.1,0,0.2,0,0.4V40c0,0.2,0,0.3-0.2,0.4c-0.1,0.1-0.3,0.1-0.4,0.1
				c0,0-0.1,0-0.1,0v0.5H33v-2.3h-1.9V39.9z M33.2,37.4C33.2,37.4,33.2,37.4,33.2,37.4C33.2,37.4,33.2,37.4,33.2,37.4
				C33.2,37.3,33.2,37.3,33.2,37.4L33,37.2c0,0,0,0,0,0c0,0,0,0,0,0l0.1,0c0,0,0,0,0,0C33,37.4,33,37.4,33.2,37.4
				C33.1,37.4,33.2,37.4,33.2,37.4 M33.1,37.6c-0.2,0-0.2,0.1-0.2,0.1c0.3-0.1,0.3,0.1,0.3,0.1C33.2,37.8,33.3,37.6,33.1,37.6
				 M33.2,37.4C33.2,37.4,33.2,37.4,33.2,37.4C33.2,37.4,33.2,37.4,33.2,37.4C33.2,37.4,33.2,37.4,33.2,37.4
				c0.1,0.1,0.2,0.1,0.2,0.1c0,0,0,0,0,0l0.1,0c0,0,0,0,0,0c0,0,0,0,0,0L33.2,37.4C33.2,37.3,33.2,37.4,33.2,37.4 M33.4,38.8
				c-0.1,0-0.1,0-0.2,0V39C33.2,38.9,33.3,38.9,33.4,38.8C33.4,38.9,33.4,38.8,33.4,38.8 M32.8,42.5c0.2-0.3,0.2-0.6,0.2-0.9v-0.3
				h-0.9v0.1c0,0.1,0,0.2,0,0.2L32.8,42.5z M31.3,42.3c-0.1,0-0.1,0-0.2,0v1.1c0.3,0,0.6-0.1,0.9-0.3L31.3,42.3z M30.7,40.6v0.6
				h-0.6v0c0,0.4,0.2,0.7,0.6,0.8v-0.9h0.6v0.9c0.3-0.1,0.5-0.4,0.6-0.7c0,0,0-0.1,0-0.1v0h-0.6v-0.6H30.7z M30.7,40.1h-0.6v0.6h0.6
				V40.1z M31.4,40.6h0.6v-0.6h-0.6V40.6z M29,37.1C29,37.1,29,37.1,29,37.1C29,37.1,29,37.1,29,37.1c0.1,0.1,0.1,0,0.1,0
				c0,0,0,0,0,0l0.1,0c0,0,0,0,0,0c0,0,0,0,0,0L29,37.1L29,37.1L29,37.1L29,37.1C29,37,29,37,29,37.1C29,37.1,29,37.1,29,37.1
				L29,37.1z M29.1,39.5v1.6H30v-0.4L29.1,39.5z M30.7,39.9H31v-1.1h-1.2L30.7,39.9z M29.1,41.2v0.3c0,1.1,0.9,1.9,1.9,2v-1.1
				c-0.1,0-0.1,0-0.2,0c0,0,0,0.1,0,0.1v-0.1c0,0.2,0,0.3-0.2,0.4c-0.1,0.1-0.3,0.1-0.4,0.1c-0.1,0-0.3,0-0.4-0.1
				c-0.1-0.1-0.2-0.2-0.2-0.4v-0.5c0-0.2-0.2-0.2-0.3-0.2v-0.1H30c0-0.1,0-0.2,0-0.3v-0.1H29.1z M30.1,41.7c-0.1,0-0.2,0.1-0.2,0.2
				v0.4c0,0.3,0.1,0.5,0.4,0.5c0.3,0,0.4-0.2,0.4-0.5v0C30.4,42.2,30.2,42,30.1,41.7 M28.6,34.7c-0.1,0.2-0.2,0.7-0.8,0.7
				c-0.1,0-0.2,0-0.3-0.1c0.1,0.1,0.3,0.2,0.5,0.2c0.8,0,0.9-0.8,0.9-0.8l-0.1-0.1C28.6,34.5,28.6,34.6,28.6,34.7 M26.9,34.1
				c-0.2,0.2-0.2,0.5,0,0.7c0,0,0,0,0,0c0-0.2,0-0.4,0.2-0.5c0.1-0.1,0.3-0.2,0.5-0.2c0,0,0,0,0,0C27.4,33.9,27.1,33.9,26.9,34.1
				 M26.1,33.9c0.1-0.1,0.3-0.2,0.5-0.2c0,0,0,0,0,0c-0.2-0.2-0.5-0.2-0.7,0c-0.2,0.2-0.2,0.5,0,0.7c0,0,0,0,0,0
				C25.9,34.2,26,34.1,26.1,33.9 M26.6,34.7c0.2,0.1,0.3,0.5,0.3,1.1c0,0.3,0,0.4,0,0.4l0,0v4.8h2v-1.1c-0.2,0.1-0.5,0.1-0.5,0.1
				c-0.2,0-0.1,0.3-0.1,0.3c-0.2,0-0.1-0.2-0.1-0.2c-0.2,0-0.2,0.2-0.2,0.2c-0.2-0.1,0-0.2-0.1-0.2c-0.1,0-0.2,0.1-0.2,0.1
				c0-0.2,0.1-0.3,0.1-0.3c-0.1,0-0.2,0-0.2,0c0.1-0.3,0.3-0.1,0.4-0.1c0,0,0.1,0.1,0.1,0c0.1-0.1,0.4-0.3,0.4-0.3
				c-0.2,0-0.2-0.2-0.2-0.2c0.2,0,0.2-0.1,0.2-0.1c0.1-0.2,0.2-0.2,0.3-0.3v-0.3c-0.2-0.1-0.3-0.1-0.3-0.1c-0.4,0.4-0.6,0.5-0.6,0.5
				c0,0-0.1,0-0.1,0.1c0,0.2-0.1,0.2-0.1,0.2c0,0,0-0.1-0.1-0.2c-0.1,0-0.2,0.2-0.2,0.2c-0.1-0.1,0-0.3,0-0.3
				c-0.1,0-0.2,0.1-0.2,0.1c-0.1-0.2,0.2-0.2,0.2-0.2c0,0-0.2,0-0.2,0c0.1-0.2,0.3-0.2,0.4-0.1c0,0,0.1,0.1,0.1,0
				c0.1-0.1,0.4-0.5,0.5-0.5c-0.1,0-0.2,0-0.4-0.1c0,0,0.3,0,0.4-0.1c0,0,0-0.1-0.1-0.1c-0.3-0.2-0.7-0.6-0.7-0.6
				c-0.3,0-0.3-0.1-0.3-0.1c0.1,0,0.2,0,0.2,0c0-0.1-0.2-0.2-0.2-0.2c0.1,0,0.2,0,0.2,0c0,0-0.1-0.2-0.1-0.2c0.1,0,0.2,0.1,0.2,0.1
				c0-0.1,0-0.2,0-0.2c0.2,0.1,0.2,0.4,0.2,0.4l0.7,0.5c0.2,0.1,0.3,0.1,0.5-0.1c0.1-0.1,0-0.2-0.1-0.2c0,0-0.1,0-0.1,0
				c0-0.1,0-0.1,0-0.1c0,0,0.2,0,0.2,0c0,0,0.1-0.1,0-0.1c-0.2-0.1-0.3-0.1-0.3-0.2c0-0.1,0-0.1,0-0.1c0.1,0,0.1,0,0.1,0
				c0.1-0.1,0.2-0.1,0.2-0.1c0.1,0,0.3,0.1,0.3,0.1c0,0,0.1,0,0.1,0c0.1-0.1,0.3,0,0.3,0c-0.1,0-0.2,0.1-0.1,0.1
				c0.1,0.1,0,0.3,0,0.3c-0.1,0.2,0.1,0.4,0.1,0.4c-0.2,0.1-0.3,0-0.3,0c0,0.3,0.5,0.3,0.5,0.3c-0.1,0.2-0.4,0.1-0.5,0.1
				c-0.1,0-0.1,0.1,0,0.1c0.2,0.1,0.3,0.2,0.5,0.3h0.5c0-0.1,0-0.1,0-0.2c0-0.1-0.2-0.3-0.3-0.5c0-0.1-0.1-0.1-0.1-0.1
				c0,0-0.2-0.3-0.1-0.6c0.2-0.2,0.4-0.1,0.4-0.1c0.1-0.2,0.4-0.1,0.4,0.1c0.1,0.3-0.2,0.3,0,0.7c-0.2,0-0.6-0.4-0.4-0.8
				c0,0-0.1,0-0.1,0c-0.1,0-0.1,0-0.2,0.1c-0.1,0.1,0,0.3,0.1,0.4c0,0,0.1,0.1,0.1,0.1c0.1,0.2,0.3,0.4,0.3,0.5c0,0.1,0,0.2,0,0.2
				H31v-2.4H29h-1.9l-0.1,0c0-0.1,0-0.1,0-0.3C27.1,35.1,26.8,34.8,26.6,34.7 M26.9,41.9c0,0.2,0,0.5,0.1,0.7h2.2
				c-0.2-0.3-0.3-0.7-0.3-1.1v-0.3h-2V41.9 M27.7,44.3c0.3,0.4,0.6,0.7,1.1,1l0,2.7h4.4l0-2c-0.5,0.2-1,0.3-1.5,0.3
				c-0.7,0-1.4-0.2-2-0.5C30,45.9,30.5,46,31,46v-1.7H27.7 M34.3,48.9c0-0.3-0.3-0.6-0.8-0.7h-5c-0.5,0.2-0.8,0.5-0.8,0.7
				c0,0,0,0.1,0,0.1L34.3,48.9C34.3,49,34.3,48.9,34.3,48.9 M35.1,41.2h-2v0.3c0,0.2,0,0.4-0.1,0.6c0.2,0,0.3,0,0.4,0
				c0,0,0.3,0,0.5,0c0.1,0,0.1,0,0.2,0c0.1,0,0.4-0.1,0.5-0.2c0,0,0-0.1,0-0.1c0,0,0-0.1,0-0.1c-0.1,0-0.3,0-0.4,0.1
				c-0.2,0.1-0.4,0.1-0.5,0c-0.1,0-0.1-0.1,0-0.2c0,0,0-0.1,0.2-0.1c0.1,0,0.1,0.1,0,0.1c0,0-0.2,0.1-0.2,0.1c0,0,0,0.1,0,0.1
				c0,0,0.2,0.1,0.4,0c0.1-0.1,0.3-0.1,0.4-0.1c0,0,0.1,0.1,0.1,0.1c0,0,0,0.1-0.1,0.2c-0.1,0.1-0.3,0.2-0.4,0.2
				c0.1,0,0.1,0.1,0.1,0.1s0,0.1,0,0.1c0,0.2,0.3,0.1,0.3,0.1c0,0.1-0.1,0.4-0.1,0.4c0,0.1-0.2,0-0.3,0c-0.1,0,0,0,0-0.1
				c0,0,0.1,0,0.1,0l0.1-0.2c-0.3,0-0.5-0.3-0.5-0.3s-0.2,0.3-0.5,0.5c-0.1,0.1-0.2,0-0.2,0c0,0,0.1,0,0.1,0
				c0.2-0.1,0.5-0.5,0.5-0.5s0.1-0.1-0.3,0c-0.3,0.1-0.5,0.2-0.6,0.2c0,0,0,0,0,0c-0.2,0.3-0.4,0.6-0.7,0.7c-0.3,0.2-0.6,0.3-1,0.3
				V46c0.8,0,1.6-0.3,2.3-0.8v0c1-0.7,1.7-2,1.7-3.4V41.2z M35.1,36.3h-4v2.4h1.1c0,0,0,0,0-0.1c-0.1,0-0.1-0.1-0.2-0.2
				c0,0,0.3,0,0.4-0.1c0,0,0-0.1-0.1-0.1c-0.3-0.2-0.7-0.6-0.7-0.6c-0.3,0-0.3-0.1-0.3-0.1c0.1,0,0.2,0,0.2,0c0-0.1-0.2-0.2-0.2-0.2
				c0.1,0,0.2,0,0.2,0c0,0-0.1-0.2-0.1-0.2c0.1,0,0.2,0.1,0.2,0.1c0-0.1,0-0.2,0-0.2c0.2,0.1,0.2,0.4,0.2,0.4l0.6,0.4
				c0.2,0.1,0.3,0.1,0.3-0.1c0,0-0.2,0-0.2-0.2c0,0,0.1,0,0.2-0.1c0.1-0.1,0-0.4,0.2-0.4l0.6,0.1c0,0,0,0.3-0.1,0.4
				c0,0,0,0.2,0.1,0.2c0,0-0.2,0-0.2,0l0,0.1c0,0.2,0.1,0.4,0.2,0.4c0.2,0.1,0.6,0.4,0.6,0.4c0.1,0,0.2,0,0.3-0.1
				c0-0.1,0.1-0.1,0-0.2c0-0.1-0.2-0.3-0.3-0.5c0-0.1-0.1-0.1-0.1-0.1c0,0-0.2-0.4-0.1-0.6c0.2-0.2,0.4-0.1,0.4-0.1
				c0.1-0.2,0.4-0.1,0.4,0.1c0.1,0.3-0.2,0.3,0,0.7c-0.2,0-0.6-0.4-0.4-0.8c0,0-0.1,0-0.1,0c-0.1,0-0.1,0-0.2,0.1
				c-0.1,0.1,0,0.3,0.1,0.4c0,0,0.1,0.1,0.1,0.1c0.1,0.2,0.3,0.4,0.3,0.5c0,0.2,0,0.3-0.1,0.4c-0.1,0.1-0.3,0.1-0.4,0.1
				c0,0.1,0,0.1,0,0.2c0,0.1,0.1,0.2,0.1,0.2c-0.2,0.2-0.1,0.3,0,0.4c0.1,0.1,0.2,0,0.2,0c0.1,0.6-0.8,1-0.7,1c0,0,0.1,0,0.1,0.1
				c0.1,0.2-0.1,0.2-0.1,0.2c0-0.1,0-0.2-0.1-0.2c-0.1,0-0.2,0.2-0.2,0.2c0-0.1,0-0.2,0-0.2c-0.1,0-0.2,0.2-0.2,0.2
				c0-0.1,0.1-0.2,0.1-0.2c-0.1,0-0.3,0.2-0.3,0.2c0-0.3,0.3-0.3,0.4-0.3c0.5,0,0.3-0.5,0.3-0.5c-0.2,0.2-0.4,0.1-0.4,0.1
				c0.1-0.1,0.2-0.2,0.2-0.3c0-0.4-0.1-0.5,0-0.5c0,0-0.1,0-0.1,0c-0.1,0.2-0.5,0.5-0.5,0.5c0.1,0,0.2,0.1,0.2,0.1
				c0,0.1-0.1,0.1-0.2,0.2v1.2h2V36.3z"/>
		</g>
	</g>
</g>
</svg>
